<svg width="125" height="116" viewBox="0 0 125 116" fill="none" xmlns="http://www.w3.org/2000/svg">
<g clip-path="url(#clip0_3_84)">
<mask id="mask0_3_84" style="mask-type:luminance" maskUnits="userSpaceOnUse" x="0" y="0" width="125" height="116">
<path d="M125 0H0V116H125V0Z" fill="white"/>
</mask>
<g mask="url(#mask0_3_84)">
<path fill-rule="evenodd" clip-rule="evenodd" d="M36.8838 0H36.3727C35.8655 0.00211757 35.3797 0.203259 35.0211 0.559626C34.6625 0.915992 34.46 1.39872 34.4579 1.90269V10.5744C34.46 11.0784 34.6625 11.5611 35.0211 11.9175C35.3797 12.2739 35.8655 12.475 36.3727 12.4771H36.8838C37.3909 12.475 37.8767 12.2739 38.2354 11.9175C38.594 11.5611 38.7964 11.0784 38.7985 10.5744V1.90269C38.7964 1.39872 38.594 0.915992 38.2354 0.559626C37.8767 0.203259 37.3909 0.00211757 36.8838 0ZM91.0764 0H90.5704C90.0631 0.00185295 89.577 0.202878 89.2182 0.559273C88.8593 0.915668 88.6568 1.39855 88.6546 1.90269V10.5744C88.6568 11.0784 88.8592 11.5611 89.2178 11.9175C89.5764 12.2739 90.0622 12.475 90.5694 12.4771H91.0835C91.5909 12.4753 92.0769 12.2743 92.4358 11.9179C92.7946 11.5615 92.9972 11.0786 92.9993 10.5744V1.90269C92.9972 1.39733 92.7936 0.91339 92.4333 0.556795C92.0729 0.2002 91.585 -4.47967e-06 91.0764 0ZM58.0394 7.74352V10.5714C58.0416 12.0019 58.6145 13.3731 59.6325 14.3845C60.6505 15.3959 62.0305 15.9649 63.47 15.9667H63.9761C65.4153 15.9638 66.7947 15.3945 67.8125 14.3833C68.8302 13.3722 69.4035 12.0015 69.4067 10.5714V7.74352H85.1388V10.5714C85.142 12.0015 85.7152 13.3722 86.733 14.3833C87.7508 15.3945 89.1302 15.9638 90.5694 15.9667H91.0835C92.5227 15.9641 93.9022 15.3948 94.9199 14.3836C95.9375 13.3723 96.5104 12.0015 96.5131 10.5714V7.74352H109.717C110.472 7.74617 111.195 8.04528 111.729 8.57561C112.262 9.10593 112.563 9.82445 112.566 10.5744V26.323H14.8901V10.5775C14.892 9.82694 15.1927 9.10765 15.7264 8.57668C16.2602 8.0457 16.9837 7.74618 17.739 7.74352H30.9431V10.5714C30.945 12.0021 31.5175 13.3736 32.5353 14.3855C33.553 15.3974 34.933 15.9671 36.3727 15.9698H36.8787C38.3179 15.9671 39.6974 15.3978 40.7151 14.3866C41.7327 13.3753 42.3056 12.0045 42.3083 10.5744V7.74352H58.0394ZM61.5532 5.99369V10.5744C61.5554 11.0788 61.7581 11.5618 62.1171 11.9182C62.4762 12.2746 62.9625 12.4755 63.47 12.4771H63.9761C64.4836 12.4755 64.9699 12.2746 65.329 11.9182C65.688 11.5618 65.8907 11.0788 65.8929 10.5744V1.90269C65.8907 1.39889 65.6884 0.916316 65.33 0.559979C64.9716 0.203641 64.4861 0.002382 63.9791 0L63.4731 0C62.9655 0.00158815 62.4792 0.202496 62.1202 0.55892C61.7611 0.915343 61.5584 1.39837 61.5563 1.90269V5.99369H61.5532ZM36.317 47.5794H28.0183V55.8258H36.317V47.5794ZM26.2614 44.0868H38.0668C38.2976 44.0867 38.5261 44.1317 38.7393 44.2194C38.9526 44.3071 39.1463 44.4357 39.3095 44.5978C39.4726 44.76 39.602 44.9525 39.6903 45.1644C39.7785 45.3762 39.8239 45.6033 39.8237 45.8326V57.5716C39.8239 57.8009 39.7785 58.028 39.6903 58.2398C39.602 58.4517 39.4726 58.6442 39.3095 58.8064C39.1463 58.9685 38.9526 59.0971 38.7393 59.1848C38.5261 59.2725 38.2976 59.3175 38.0668 59.3174H26.2614C26.0306 59.3175 25.8021 59.2725 25.5889 59.1848C25.3757 59.0971 25.182 58.9685 25.0188 58.8064C24.8556 58.6442 24.7262 58.4517 24.638 58.2398C24.5497 58.028 24.5044 57.8009 24.5045 57.5716V45.8326C24.5044 45.6033 24.5497 45.3762 24.638 45.1644C24.7262 44.9525 24.8556 44.76 25.0188 44.5978C25.182 44.4357 25.3757 44.3071 25.5889 44.2194C25.8021 44.1317 26.0306 44.0867 26.2614 44.0868ZM57.3614 47.5794H49.0556V55.8258H57.3614V47.5794ZM47.3057 44.0868H59.1112C59.3419 44.0867 59.5705 44.1317 59.7837 44.2194C59.9969 44.3071 60.1906 44.4357 60.3538 44.5978C60.517 44.76 60.6464 44.9525 60.7346 45.1644C60.8229 45.3762 60.8682 45.6033 60.8681 45.8326V57.5716C60.8682 57.8009 60.8229 58.028 60.7346 58.2398C60.6464 58.4517 60.517 58.6442 60.3538 58.8064C60.1906 58.9685 59.9969 59.0971 59.7837 59.1848C59.5705 59.2725 59.3419 59.3175 59.1112 59.3174H47.2987C46.833 59.3166 46.3865 59.1324 46.0572 58.8052C45.7279 58.478 45.5426 58.0344 45.5418 57.5716V45.8326C45.5426 45.3698 45.7279 44.9262 46.0572 44.599C46.3865 44.2718 46.833 44.0876 47.2987 44.0868H47.3057ZM99.4258 47.5794H91.127V55.8258H99.4258V47.5794ZM89.3701 44.0868H101.188C101.418 44.0867 101.647 44.1317 101.86 44.2194C102.073 44.3071 102.267 44.4357 102.43 44.5978C102.594 44.76 102.723 44.9525 102.811 45.1644C102.899 45.3762 102.945 45.6033 102.945 45.8326V57.5716C102.945 57.8009 102.899 58.028 102.811 58.2398C102.723 58.4517 102.594 58.6442 102.43 58.8064C102.267 58.9685 102.073 59.0971 101.86 59.1848C101.647 59.2725 101.418 59.3175 101.188 59.3174H89.3752C89.1444 59.3175 88.9159 59.2725 88.7027 59.1848C88.4895 59.0971 88.2958 58.9685 88.1326 58.8064C87.9694 58.6442 87.84 58.4517 87.7518 58.2398C87.6635 58.028 87.6182 57.8009 87.6183 57.5716V45.8326C87.6182 45.6033 87.6635 45.3762 87.7518 45.1644C87.84 44.9525 87.9694 44.76 88.1326 44.5978C88.2958 44.4357 88.4895 44.3071 88.7027 44.2194C88.9159 44.1317 89.1444 44.0867 89.3752 44.0868M78.3936 47.5794H70.0948V55.8258H78.3936V47.5794ZM68.3339 44.0868H80.1393C80.605 44.0876 81.0515 44.2718 81.3808 44.599C81.7101 44.9262 81.8954 45.3698 81.8962 45.8326V57.5716C81.8954 58.0344 81.7101 58.478 81.3808 58.8052C81.0515 59.1324 80.605 59.3166 80.1393 59.3174H68.3339C68.1031 59.3175 67.8746 59.2725 67.6614 59.1848C67.4482 59.0971 67.2545 58.9685 67.0913 58.8064C66.9281 58.6442 66.7987 58.4517 66.7105 58.2398C66.6222 58.028 66.5769 57.8009 66.577 57.5716V45.8326C66.5769 45.6033 66.6222 45.3762 66.7105 45.1644C66.7987 44.9525 66.9281 44.76 67.0913 44.5978C67.2545 44.4357 67.4482 44.3071 67.6614 44.2194C67.8746 44.1317 68.1031 44.0867 68.3339 44.0868ZM78.3895 67.6965H70.0908V75.9428H78.3895V67.6965ZM68.3339 64.2079H80.1393C80.3701 64.2078 80.5986 64.2528 80.8118 64.3405C81.025 64.4282 81.2188 64.5568 81.382 64.7189C81.5451 64.8811 81.6745 65.0736 81.7628 65.2854C81.851 65.4973 81.8964 65.7244 81.8962 65.9537V77.6917C81.8964 77.921 81.851 78.1481 81.7628 78.3599C81.6745 78.5718 81.5451 78.7643 81.382 78.9265C81.2188 79.0886 81.025 79.2172 80.8118 79.3049C80.5986 79.3926 80.3701 79.4376 80.1393 79.4375H68.3339C68.1031 79.4376 67.8746 79.3926 67.6614 79.3049C67.4482 79.2172 67.2545 79.0886 67.0913 78.9265C66.9281 78.7643 66.7987 78.5718 66.7105 78.3599C66.6222 78.1481 66.5769 77.921 66.577 77.6917V65.9507C66.5778 65.4882 66.7633 65.0449 67.0927 64.7182C67.4221 64.3914 67.8685 64.2079 68.3339 64.2079ZM49.0556 74.3408C49.7748 74.8443 50.4694 75.3783 51.1394 75.9428H57.3614V67.6965H49.0556V74.3408ZM63.0774 103.404H1.16789C0.858978 103.406 0.563301 103.529 0.344765 103.746C0.126229 103.963 0.00238543 104.257 0 104.564L0 108.923C0.00212076 109.23 0.125847 109.524 0.344412 109.742C0.562976 109.959 0.858804 110.082 1.16789 110.084H63.0774C63.3863 110.081 63.6818 109.958 63.9002 109.741C64.1185 109.524 64.2421 109.23 64.2442 108.923V104.564C64.2421 104.257 64.1185 103.963 63.9002 103.746C63.6818 103.529 63.3863 103.407 63.0774 103.404ZM27.6489 82.2523V66.9664C27.6826 66.9634 27.7164 66.9634 27.7501 66.9664H36.5002C36.5339 66.9634 36.5677 66.9634 36.6014 66.9664V82.2523C36.6014 82.7153 36.7865 83.1594 37.116 83.4868C37.4455 83.8142 37.8924 83.9981 38.3583 83.9981C38.8243 83.9981 39.2711 83.8142 39.6006 83.4868C39.9301 83.1594 40.1152 82.7153 40.1152 82.2523V73.7304C42.2775 74.4319 44.3377 75.4124 46.2431 76.6468C46.3054 76.6938 46.3706 76.7368 46.4384 76.7755C47.4233 77.4259 48.363 78.1415 49.2509 78.9176C49.3029 78.9687 49.3576 79.0171 49.4148 79.0624C50.5229 80.0456 51.545 81.1205 52.4702 82.2754C55.243 85.7282 57.0742 89.8323 57.7874 94.1924L57.7955 94.2397C58.011 95.5854 58.1192 96.9459 58.1194 98.3086V99.9176H6.13498V98.3086C6.13213 92.4835 8.12362 86.8308 11.7822 82.2795C14.9688 78.2898 19.2641 75.3176 24.1351 73.7314V82.2493C24.1351 82.7123 24.3202 83.1564 24.6497 83.4838C24.9792 83.8112 25.4261 83.9951 25.892 83.9951C26.358 83.9951 26.8048 83.8112 27.1343 83.4838C27.4638 83.1564 27.6489 82.7123 27.6489 82.2493M104.463 72.1153H101.375L100.49 72.9943V75.8926C100.49 76.2876 100.355 76.6708 100.107 76.9793C99.8584 77.2878 99.5119 77.5032 99.1242 77.5901C98.198 77.8012 97.2912 78.0885 96.4129 78.4489C95.5776 78.7926 94.7714 79.2026 94.0023 79.6748C93.6639 79.922 93.2476 80.0407 92.8288 80.0094C92.41 79.978 92.0164 79.7987 91.7191 79.5039L89.6525 77.4543H88.4057L86.2257 79.6266V80.8685L88.2883 82.9181C88.5689 83.1972 88.7458 83.5628 88.7899 83.9549C88.834 84.347 88.7428 84.7423 88.5312 85.0762C87.5392 86.639 86.8159 88.355 86.3907 90.1537C86.3282 90.5673 86.1184 90.9448 85.7996 91.2178C85.4807 91.4907 85.0739 91.6409 84.653 91.6411H81.7353L80.8498 92.52V95.5883L81.7343 96.4672H84.651C85.0488 96.4673 85.4348 96.6019 85.7453 96.8491C86.0558 97.0962 86.2724 97.4411 86.3593 97.8269C86.7717 99.6262 87.4802 101.346 88.4563 102.915C88.7048 103.252 88.8239 103.666 88.792 104.082C88.76 104.498 88.5792 104.889 88.2822 105.184L86.2257 107.24V108.482L88.4148 110.657H89.6535L91.7231 108.6C92.0054 108.324 92.3738 108.15 92.7682 108.108C93.1626 108.067 93.5595 108.159 93.894 108.371C95.4651 109.354 97.1894 110.071 98.9967 110.494C99.4128 110.557 99.7927 110.765 100.067 111.082C100.342 111.399 100.493 111.804 100.493 112.222V115.12L101.378 115.999H104.466L105.35 115.12V112.222C105.35 111.827 105.486 111.444 105.734 111.135C105.982 110.827 106.329 110.611 106.716 110.524C108.527 110.114 110.258 109.41 111.838 108.441C112.177 108.194 112.593 108.075 113.012 108.107C113.431 108.139 113.825 108.318 114.122 108.613L116.183 110.662H117.433L119.615 108.494V107.252L117.567 105.198C117.286 104.919 117.109 104.553 117.065 104.16C117.021 103.768 117.112 103.372 117.324 103.038C118.313 101.477 119.035 99.7642 119.46 97.9686C119.522 97.5546 119.732 97.1766 120.051 96.9033C120.37 96.6299 120.778 96.4795 121.199 96.4793H124.115L125.004 95.5903V92.52L124.12 91.6411H121.203C120.805 91.6411 120.42 91.5067 120.109 91.26C119.799 91.0133 119.582 90.6689 119.495 90.2835C119.082 88.4847 118.373 86.766 117.397 85.1969C117.147 84.8607 117.028 84.4468 117.06 84.0304C117.092 83.614 117.273 83.2228 117.571 82.9281L119.632 80.8786V79.6356L117.44 77.4564H116.201L115.575 78.0789L115.55 78.105L114.133 79.5129C113.852 79.7916 113.484 79.9672 113.089 80.0111C112.695 80.0549 112.297 79.9644 111.961 79.7543C110.389 78.7727 108.665 78.0554 106.858 77.6313C106.442 77.5694 106.062 77.3611 105.787 77.0442C105.512 76.7273 105.361 76.3229 105.361 75.9046V73.0104L104.477 72.1314L104.463 72.1153ZM110.904 85.7107L110.959 85.7671C113.153 87.8706 114.424 90.7484 114.497 93.7768C114.57 96.8053 113.439 99.7404 111.35 101.946L111.313 101.984L111.257 102.039C109.14 104.218 106.244 105.482 103.196 105.554C100.148 105.627 97.1945 104.503 94.9748 102.427L94.9364 102.391L94.8817 102.334C92.7522 100.207 91.5428 97.3374 91.5112 94.3371C91.4795 91.3368 92.6281 88.4427 94.7123 86.2716C96.7964 84.1004 99.6514 82.8237 102.669 82.7135C105.686 82.6033 108.628 83.6683 110.867 85.6816L110.905 85.7188L110.904 85.7107ZM91.1321 74.1337V67.6975H99.4308V69.1185L99.4096 69.1396L97.4999 71.0292C97.3337 71.1913 97.2018 71.3845 97.1116 71.5977C97.0214 71.811 96.9748 72.0399 96.9746 72.2712V74.5581C96.3316 74.7512 95.6978 74.9761 95.073 75.2329C94.4496 75.4885 93.8396 75.7752 93.2452 76.0917L91.6351 74.4897C91.4889 74.3423 91.3176 74.2218 91.1291 74.1337M102.942 68.6247V65.9507C102.941 65.4882 102.755 65.0449 102.426 64.7182C102.097 64.3914 101.65 64.2079 101.185 64.2079H89.3752C89.1444 64.2078 88.9159 64.2528 88.7027 64.3405C88.4895 64.4282 88.2958 64.5568 88.1326 64.7189C87.9694 64.8811 87.84 65.0736 87.7518 65.2854C87.6635 65.4973 87.6182 65.7244 87.6183 65.9537V73.9718C87.1725 73.9854 86.7487 74.1674 86.4332 74.4806L83.2392 77.6635C83.0728 77.8253 82.9407 78.0186 82.8505 78.2318C82.7603 78.4451 82.7139 78.6742 82.714 78.9055V81.5966C82.7136 81.8258 82.7589 82.0528 82.8471 82.2646C82.9354 82.4763 83.0648 82.6687 83.2281 82.8306L84.8544 84.4466C84.5355 85.0383 84.2467 85.6454 83.9891 86.2659C83.7321 86.8827 83.5061 87.5115 83.3111 88.1525H81.0026C80.7719 88.1522 80.5434 88.1973 80.3303 88.2852C80.1172 88.373 79.9236 88.5019 79.7608 88.6644L77.8562 90.555C77.6901 90.717 77.5581 90.9103 77.4679 91.1235C77.3777 91.3367 77.3312 91.5657 77.3309 91.797V92.1902H60.9723C60.0142 87.7739 58.0397 83.6382 55.2037 80.1073C55.0202 79.8793 54.835 79.6544 54.6481 79.4325H59.1081C59.3389 79.4326 59.5674 79.3875 59.7806 79.2998C59.9939 79.2122 60.1876 79.0836 60.3508 78.9214C60.5139 78.7593 60.6433 78.5668 60.7316 78.3549C60.8198 78.143 60.8652 77.916 60.865 77.6867V65.9507C60.8642 65.4882 60.6788 65.0449 60.3494 64.7182C60.02 64.3914 59.5736 64.2079 59.1081 64.2079H47.2987C47.0679 64.2078 46.8394 64.2528 46.6262 64.3405C46.413 64.4282 46.2192 64.5568 46.0561 64.7189C45.8929 64.8811 45.7635 65.0736 45.6752 65.2854C45.587 65.4973 45.5416 65.7244 45.5418 65.9537V72.226C43.8071 71.3375 41.9875 70.6233 40.1101 70.094V66.6335C40.105 66.1679 39.9904 65.7099 39.7755 65.2961C39.5606 64.8823 39.2514 64.5241 38.8724 64.2501C38.1879 63.7406 37.3544 63.4676 36.4992 63.4728H27.7491C26.8939 63.4676 26.0604 63.7406 25.3759 64.2501C24.9969 64.5241 24.6877 64.8823 24.4728 65.2961C24.2579 65.7099 24.1433 66.1679 24.1381 66.6335V70.094C20.8164 71.0326 17.6865 72.544 14.8911 74.5591V29.8176H112.559V76.0776C111.973 75.7672 111.375 75.4866 110.766 75.2359C110.144 74.9796 109.51 74.7547 108.866 74.5621V72.2742C108.866 71.8115 108.681 71.3676 108.352 71.0403L106.447 69.1477C106.284 68.9826 106.09 68.8514 105.875 68.7618C105.661 68.6722 105.43 68.626 105.197 68.6257L102.942 68.6247Z" fill="#A5170E"/>
</g>
</g>
<defs>
<clipPath id="clip0_3_84">
<rect width="125" height="116" fill="white"/>
</clipPath>
</defs>
</svg>
