<svg width="125" height="120" viewBox="0 0 125 120" fill="none" xmlns="http://www.w3.org/2000/svg">
<g clip-path="url(#clip0_3_2)">
<mask id="mask0_3_2" style="mask-type:luminance" maskUnits="userSpaceOnUse" x="0" y="0" width="125" height="120">
<path d="M125 0H0V120H125V0Z" fill="white"/>
</mask>
<g mask="url(#mask0_3_2)">
<path d="M22.3828 105.243L22.4025 119.999H28.4758L28.4561 113.148C28.4548 112.935 28.4955 112.724 28.5757 112.527C28.656 112.33 28.7743 112.151 28.9239 111.999C29.0736 111.848 29.2515 111.728 29.4477 111.645C29.6439 111.562 29.8544 111.519 30.0673 111.518C30.2802 111.517 30.4912 111.557 30.6884 111.638C30.8856 111.718 31.065 111.836 31.2164 111.986C31.3679 112.135 31.4884 112.313 31.571 112.509C31.6537 112.705 31.6969 112.915 31.6982 113.128L31.7178 119.979H38.4368L38.4172 109.615C38.4167 109.402 38.4583 109.191 38.5396 108.995C38.6209 108.798 38.7403 108.619 38.8909 108.469C39.0416 108.318 39.2205 108.199 39.4173 108.117C39.6142 108.036 39.8252 107.995 40.0382 107.995C40.2521 107.991 40.4646 108.031 40.663 108.111C40.8614 108.191 41.0416 108.31 41.1928 108.461C41.3441 108.612 41.4634 108.793 41.5435 108.991C41.6237 109.189 41.663 109.401 41.6593 109.615L41.6789 119.96H48.4176V111.353C48.4148 110.923 48.5828 110.51 48.8848 110.204C49.1868 109.898 49.598 109.725 50.0279 109.722C50.4578 109.719 50.8713 109.887 51.1773 110.189C51.4833 110.491 51.6568 110.902 51.6597 111.331V119.92H58.4171L58.3974 114.825C58.3997 114.394 58.5708 113.982 58.8741 113.676C59.1773 113.37 59.5885 113.195 60.0194 113.188C60.2324 113.188 60.4434 113.229 60.6403 113.31C60.8372 113.392 61.016 113.511 61.1667 113.661C61.3173 113.812 61.4367 113.991 61.518 114.187C61.5993 114.384 61.6409 114.595 61.6404 114.808V119.921H68.3594L68.3398 109.557C68.3397 109.344 68.3815 109.134 68.463 108.937C68.5444 108.741 68.6639 108.562 68.8145 108.412C68.9651 108.262 69.1438 108.143 69.3405 108.062C69.5373 107.981 69.748 107.939 69.9608 107.94C70.389 107.945 70.7981 108.118 71.1009 108.42C71.4037 108.723 71.5763 109.132 71.5819 109.56L71.6015 119.924L78.3205 119.904L78.3009 113.053C78.3064 112.625 78.479 112.216 78.7818 111.914C79.0846 111.611 79.4937 111.439 79.9219 111.433C80.1352 111.431 80.3468 111.472 80.5442 111.552C80.7417 111.633 80.9211 111.752 81.0721 111.903C81.223 112.053 81.3425 112.233 81.4235 112.43C81.5045 112.627 81.5454 112.838 81.5438 113.051L81.5635 119.903L87.6368 119.883L87.5975 105.147L22.3828 105.243Z" fill="#A5170E"/>
<path d="M6.46456 12.9018H17.8707V6.75832e-06H6.46456C5.61776 -0.0012233 4.77913 0.165469 3.99725 0.490427C3.21537 0.815386 2.50578 1.29215 1.90959 1.89311C1.3014 2.48774 0.818974 3.19844 0.490951 3.98301C0.162929 4.76757 -0.0040011 5.61001 7.28076e-05 6.4603C0.00597892 8.17013 0.689549 9.80797 1.90113 11.0153C3.11272 12.2225 4.7536 12.9009 6.46456 12.9018Z" fill="#A5170E"/>
<path d="M34.1989 86.8773H48.5935V73.0776C48.5963 72.4932 48.8299 71.9336 49.2436 71.5206C49.6572 71.1075 50.2174 70.8745 50.8022 70.8721H59.1976C59.782 70.8749 60.3418 71.1082 60.755 71.5212C61.1683 71.9342 61.4017 72.4935 61.4045 73.0776V86.8773H75.8V60.9175H34.1989V86.8773Z" fill="#A5170E"/>
<path d="M30.2343 56.8573H79.7655L55.0195 32.479L30.2343 56.8573ZM59.9041 47.4301C59.9041 48.3952 59.6177 49.3386 59.0812 50.1411C58.5447 50.9435 57.7821 51.569 56.8899 51.9383C55.9977 52.3076 55.0159 52.4042 54.0688 52.216C53.1216 52.0277 52.2516 51.5629 51.5687 50.8805C50.8858 50.1981 50.4208 49.3286 50.2324 48.3821C50.044 47.4355 50.1407 46.4544 50.5103 45.5628C50.8798 44.6712 51.5057 43.9091 52.3086 43.3729C53.1116 42.8367 54.0556 42.5506 55.0213 42.5506C56.3163 42.5506 57.5583 43.0647 58.474 43.9798C59.3896 44.8949 59.9041 46.136 59.9041 47.4301Z" fill="#A5170E"/>
<path d="M124.98 29.0044C124.947 25.8091 123.655 22.7555 121.385 20.505C119.115 18.2546 116.049 16.9885 112.852 16.9809H6.46449C4.12459 16.9822 1.85061 16.2064 0 14.7754V89.473C0.00307801 92.5764 1.23932 95.5514 3.43689 97.7441C5.63446 99.9367 8.61343 101.167 11.7188 101.165H103.378V35.3085C103.379 35.0191 103.441 34.7331 103.563 34.4703C103.684 34.2075 103.861 33.974 104.081 33.7858C104.292 33.5915 104.543 33.4455 104.816 33.3578C105.089 33.2701 105.378 33.2428 105.663 33.278C122.714 35.288 124.784 29.7649 124.979 29.0036M86.64 59.6681C86.4837 60.042 86.2208 60.3617 85.8839 60.5872C85.547 60.8128 85.1512 60.9342 84.7457 60.9364H79.9022V86.8962H82.871C83.4098 86.8962 83.9265 87.1101 84.3074 87.4908C84.6884 87.8716 84.9024 88.3879 84.9024 88.9264C84.9024 89.4648 84.6884 89.9811 84.3074 90.3619C83.9265 90.7426 83.4098 90.9565 82.871 90.9565H27.1289C26.5901 90.9565 26.0734 90.7426 25.6924 90.3619C25.3115 89.9811 25.0974 89.4648 25.0974 88.9264C25.0974 88.3879 25.3115 87.8716 25.6924 87.4908C26.0734 87.1101 26.5901 86.8962 27.1289 86.8962H30.1173V60.9364H25.2756C24.8696 60.9386 24.4721 60.8194 24.1344 60.594C23.7967 60.3687 23.5341 60.0476 23.3805 59.672C23.2268 59.2964 23.1891 58.8834 23.2722 58.4862C23.3552 58.0889 23.5553 57.7256 23.8466 57.4429L53.5727 28.1672C53.7583 27.9772 53.9801 27.8262 54.225 27.7231C54.4698 27.62 54.7329 27.5669 54.9986 27.5669C55.2643 27.5669 55.5273 27.62 55.7722 27.7231C56.0171 27.8262 56.2389 27.9772 56.4245 28.1672L86.1506 57.4429C86.4496 57.7196 86.6568 58.0811 86.7441 58.4789C86.8314 58.8767 86.7948 59.2917 86.6391 59.6681" fill="#A5170E"/>
<path d="M107.461 37.5541V118.434H113.457C116.516 118.429 119.448 117.212 121.611 115.051C123.774 112.89 124.993 109.96 125 106.904V35.0166C121.23 37.3979 115.354 38.2566 107.461 37.5541Z" fill="#A5170E"/>
</g>
</g>
<defs>
<clipPath id="clip0_3_2">
<rect width="125" height="120" fill="white"/>
</clipPath>
</defs>
</svg>
