<svg width="125" height="113" viewBox="0 0 125 113" fill="none" xmlns="http://www.w3.org/2000/svg">
<g clip-path="url(#clip0_3_39)">
<path d="M26.3708 79.7558H34.2373V87.567H26.3708V79.7558ZM37.1791 79.7558H45.0519V87.567H37.1791V79.7558ZM79.9473 79.7558H87.8193V87.567H79.9473V79.7558ZM90.7611 79.7558H98.6276V87.567H90.7611V79.7558ZM26.3708 69.0552H34.2373V76.8664H26.3708V69.0552ZM37.1791 69.0552H45.0519V76.8664H37.1791V69.0552ZM79.9473 69.0552H87.8193V76.8664H79.9473V69.0552ZM90.7611 69.0552H98.6276V76.8664H90.7611V69.0552ZM51.863 64.0529H73.1377V110.116H51.863V64.0529ZM19.4849 55.2587V113H105.514V55.046L62.6114 17.0996L19.4849 55.2587Z" fill="#A5170E"/>
<path d="M62.5 0L0 55.2974H15.1403L15.4519 55.0213L62.4953 13.399L108.395 54.0089L109.936 55.2974H125L100.006 33.1846V14.3997H89.0157V23.46L62.5 0Z" fill="#A5170E"/>
</g>
<defs>
<clipPath id="clip0_3_39">
<rect width="125" height="113" fill="white"/>
</clipPath>
</defs>
</svg>
