<svg width="125" height="126" viewBox="0 0 125 126" fill="none" xmlns="http://www.w3.org/2000/svg">
<g clip-path="url(#clip0_3_45)">
<path d="M78.1271 97.1282H63.8036V125.989H78.1271V97.1282Z" fill="#A5170E"/>
<path d="M58.5952 97.1282H44.2717V125.989H58.5952V97.1282Z" fill="#A5170E"/>
<path d="M105.66 0H18.4904V10.6444H105.66V0Z" fill="#A5170E"/>
<path d="M23.4328 65.6362H39.0554V81.3744H23.4328V65.6362ZM44.2636 65.6362H59.8914V81.3744H44.2636V65.6362ZM65.0975 65.6362H80.7252V81.3744H65.0975V65.6362ZM85.9313 65.6362H101.559V81.3744H85.9313V65.6362ZM23.4328 44.6481H39.0554V60.3864H23.4328V44.6481ZM44.2636 44.6481H59.8914V60.3864H44.2636V44.6481ZM65.0975 44.6481H80.7252V60.3864H65.0975V44.6481ZM85.9313 44.6481H101.559V60.3864H85.9313V44.6481ZM23.4328 23.66H39.0554V39.4035H23.4328V23.66ZM44.2636 23.66H59.8914V39.4035H44.2636V23.66ZM65.0975 23.66H80.7252V39.4035H65.0975V23.66ZM85.9313 23.66H101.559V39.4035H85.9313V23.66ZM18.2297 15.8025V120.753H0V126H20.8338V125.99H39.0635V91.8838H83.3353V125.99H104.166V126H125V120.753H106.773V15.8025H18.2297Z" fill="#A5170E"/>
<path d="M122.83 23.9495H112.264V115.756H122.83V23.9495Z" fill="#A5170E"/>
<path d="M13.2073 23.9495H2.64111V115.756H13.2073V23.9495Z" fill="#A5170E"/>
</g>
<defs>
<clipPath id="clip0_3_45">
<rect width="125" height="126" fill="white"/>
</clipPath>
</defs>
</svg>
