<svg width="90" height="90" viewBox="0 0 90 90" fill="none" xmlns="http://www.w3.org/2000/svg">
<mask id="mask0_1_34" style="mask-type:luminance" maskUnits="userSpaceOnUse" x="5" y="5" width="80" height="80">
<path d="M84.473 5H5V84.677H84.473V5Z" fill="white"/>
</mask>
<g mask="url(#mask0_1_34)">
<mask id="mask1_1_34" style="mask-type:luminance" maskUnits="userSpaceOnUse" x="5" y="5" width="80" height="80">
<path d="M84.473 5H5V84.677H84.473V5Z" fill="white"/>
</mask>
<g mask="url(#mask1_1_34)">
<path d="M53.075 56.938H49.7V51.055H52.15C52.3953 51.055 52.6306 50.9575 52.8041 50.7841C52.9775 50.6106 53.075 50.3753 53.075 50.13C53.075 49.8847 52.9775 49.6494 52.8041 49.4759C52.6306 49.3025 52.3953 49.205 52.15 49.205H49.7V43.27H52.15C52.3953 43.27 52.6306 43.1725 52.8041 42.9991C52.9775 42.8256 53.075 42.5903 53.075 42.345C53.075 42.0997 52.9775 41.8644 52.8041 41.6909C52.6306 41.5175 52.3953 41.42 52.15 41.42H49.7V35.11H52.15C52.3953 35.11 52.6306 35.0125 52.8041 34.8391C52.9775 34.6656 53.075 34.4303 53.075 34.185C53.075 33.9397 52.9775 33.7044 52.8041 33.5309C52.6306 33.3575 52.3953 33.26 52.15 33.26H49.7V31.59C49.7 31.3447 49.6025 31.1094 49.4291 30.9359C49.2556 30.7625 49.0203 30.665 48.775 30.665C48.5297 30.665 48.2944 30.7625 48.1209 30.9359C47.9475 31.1094 47.85 31.3447 47.85 31.59V33.26H40.294V31.59C40.294 31.3447 40.1965 31.1094 40.0231 30.9359C39.8496 30.7625 39.6143 30.665 39.369 30.665C39.1237 30.665 38.8884 30.7625 38.7149 30.9359C38.5415 31.1094 38.444 31.3447 38.444 31.59V33.26H30.885V31.59C30.885 31.3447 30.7875 31.1094 30.6141 30.9359C30.4406 30.7625 30.2053 30.665 29.96 30.665C29.7147 30.665 29.4794 30.7625 29.3059 30.9359C29.1325 31.1094 29.035 31.3447 29.035 31.59V33.26H21.478V31.59C21.478 31.3447 21.3805 31.1094 21.2071 30.9359C21.0336 30.7625 20.7983 30.665 20.553 30.665C20.3077 30.665 20.0724 30.7625 19.8989 30.9359C19.7255 31.1094 19.628 31.3447 19.628 31.59V33.26H12.068V31.59C12.068 31.3447 11.9705 31.1094 11.7971 30.9359C11.6236 30.7625 11.3883 30.665 11.143 30.665C10.8977 30.665 10.6624 30.7625 10.4889 30.9359C10.3155 31.1094 10.218 31.3447 10.218 31.59V33.26H7.768C7.52267 33.26 7.2874 33.3575 7.11393 33.5309C6.94046 33.7044 6.843 33.9397 6.843 34.185C6.843 34.4303 6.94046 34.6656 7.11393 34.8391C7.2874 35.0125 7.52267 35.11 7.768 35.11H10.218V41.42H7.768C7.52267 41.42 7.2874 41.5175 7.11393 41.6909C6.94046 41.8644 6.843 42.0997 6.843 42.345C6.843 42.5903 6.94046 42.8256 7.11393 42.9991C7.2874 43.1725 7.52267 43.27 7.768 43.27H10.218V48.241H6.847C6.35731 48.2415 5.88782 48.4363 5.54156 48.7826C5.19529 49.1288 5.00053 49.5983 5 50.088V56.778C5 56.8995 5.02393 57.0198 5.07041 57.132C5.1169 57.2442 5.18503 57.3462 5.27093 57.4321C5.35682 57.518 5.45879 57.5861 5.57102 57.6326C5.68324 57.6791 5.80353 57.703 5.925 57.703C6.04647 57.703 6.16676 57.6791 6.27898 57.6326C6.39121 57.5861 6.49318 57.518 6.57907 57.4321C6.66497 57.3462 6.7331 57.2442 6.77959 57.132C6.82607 57.0198 6.85 56.8995 6.85 56.778V50.088H26.058L32.544 58.424C32.6299 58.5351 32.74 58.625 32.8661 58.6869C32.9921 58.7488 33.1306 58.781 33.271 58.781H53.061V82.8H38.1V66.067C38.1 65.8217 38.0025 65.5864 37.8291 65.4129C37.6556 65.2395 37.4203 65.142 37.175 65.142H22.732C22.6105 65.142 22.4902 65.1659 22.378 65.2124C22.2658 65.2589 22.1638 65.327 22.0779 65.4129C21.992 65.4988 21.9239 65.6008 21.8774 65.713C21.8309 65.8252 21.807 65.9455 21.807 66.067V82.8L6.864 82.807V65.1C6.864 64.9785 6.84007 64.8582 6.79359 64.746C6.7471 64.6338 6.67897 64.5318 6.59307 64.4459C6.50718 64.36 6.40521 64.2919 6.29298 64.2454C6.18076 64.1989 6.06047 64.175 5.939 64.175C5.81753 64.175 5.69724 64.1989 5.58502 64.2454C5.47279 64.2919 5.37082 64.36 5.28493 64.4459C5.19903 64.5318 5.1309 64.6338 5.08441 64.746C5.03793 64.8582 5.014 64.9785 5.014 65.1V82.809C5.01453 83.2984 5.20919 83.7677 5.55527 84.1137C5.90134 84.4598 6.37057 84.6545 6.86 84.655H53.075C53.5647 84.6545 54.0342 84.4597 54.3804 84.1134C54.7267 83.7672 54.9215 83.2977 54.922 82.808V58.788C54.9217 58.2982 54.7271 57.8286 54.3807 57.4823C54.0344 57.1359 53.5648 56.9413 53.075 56.941V56.938ZM47.857 56.938H40.3V51.055H47.859L47.857 56.938ZM47.857 49.208H40.3V43.274H47.859L47.857 49.208ZM30.895 43.274H38.454V49.209H30.895V43.274ZM47.858 41.424H40.3V35.115H47.859L47.858 41.424ZM38.452 41.424H30.892V35.115H38.451L38.452 41.424ZM29.052 41.424H21.491V35.115H29.048L29.052 41.424ZM12.081 35.114H19.641V41.424H12.081V35.114ZM12.081 43.274H19.641V48.245H12.081V43.274ZM26.521 48.245H21.488V43.274H29.044V50.906L27.25 48.6C27.1639 48.4889 27.0535 48.3991 26.9273 48.3372C26.8012 48.2753 26.6625 48.2431 26.522 48.243L26.521 48.245ZM30.894 53.283V51.058H38.454V56.941H33.739L30.895 53.286L30.894 53.283ZM23.671 67H36.271V82.629H23.671V67ZM5.014 61.771V60.108C5.014 59.8627 5.11146 59.6274 5.28493 59.4539C5.4584 59.2805 5.69367 59.183 5.939 59.183C6.18433 59.183 6.4196 59.2805 6.59307 59.4539C6.76654 59.6274 6.864 59.8627 6.864 60.108V61.771C6.864 61.8925 6.84007 62.0128 6.79359 62.125C6.7471 62.2372 6.67897 62.3392 6.59307 62.4251C6.50718 62.511 6.40521 62.5791 6.29298 62.6256C6.18076 62.6721 6.06047 62.696 5.939 62.696C5.81753 62.696 5.69724 62.6721 5.58502 62.6256C5.47279 62.5791 5.37082 62.511 5.28493 62.4251C5.19903 62.3392 5.1309 62.2372 5.08441 62.125C5.03793 62.0128 5.014 61.8925 5.014 61.771ZM48.914 77.22C49.1593 77.22 49.3946 77.1225 49.5681 76.9491C49.7415 76.7756 49.839 76.5403 49.839 76.295V66.075C49.839 65.8297 49.7415 65.5944 49.5681 65.4209C49.3946 65.2475 49.1593 65.15 48.914 65.15H41.992C41.7467 65.15 41.5114 65.2475 41.3379 65.4209C41.1645 65.5944 41.067 65.8297 41.067 66.075V76.295C41.067 76.5403 41.1645 76.7756 41.3379 76.9491C41.5114 77.1225 41.7467 77.22 41.992 77.22H48.914ZM42.914 67H47.986V75.374H42.914V67ZM17.95 77.22C18.1953 77.22 18.4306 77.1225 18.6041 76.9491C18.7775 76.7756 18.875 76.5403 18.875 76.295V66.075C18.875 65.8297 18.7775 65.5944 18.6041 65.4209C18.4306 65.2475 18.1953 65.15 17.95 65.15H11.031C10.7857 65.15 10.5504 65.2475 10.3769 65.4209C10.2035 65.5944 10.106 65.8297 10.106 66.075V76.295C10.106 76.5403 10.2035 76.7756 10.3769 76.9491C10.5504 77.1225 10.7857 77.22 11.031 77.22H17.95ZM11.953 67H17.025V75.374H11.953V67ZM82.622 6.652H76.94C76.8925 6.20011 76.6799 5.78165 76.3429 5.47681C76.006 5.17197 75.5684 5.00219 75.114 5H62.7C62.2451 5.00041 61.8066 5.16958 61.4692 5.47476C61.1319 5.77994 60.9198 6.19943 60.874 6.652H23.234C22.8606 6.65149 22.496 6.76457 22.1884 6.97622C21.8808 7.18788 21.6449 7.4881 21.512 7.837L19.07 14.171C18.9635 14.4508 18.9265 14.7522 18.9622 15.0494C18.9979 15.3466 19.1051 15.6308 19.2748 15.8774C19.4444 16.124 19.6714 16.3258 19.9361 16.4654C20.2009 16.6051 20.4957 16.6783 20.795 16.679H27.049V21.172H14.057C13.5672 21.1723 13.0976 21.3669 12.7513 21.7133C12.4049 22.0596 12.2103 22.5292 12.21 23.019V26.283C12.2103 26.7728 12.4049 27.2424 12.7513 27.5887C13.0976 27.9351 13.5672 28.1297 14.057 28.13H41.892C42.3817 28.1295 42.8512 27.9347 43.1974 27.5884C43.5437 27.2422 43.7385 26.7727 43.739 26.283V23.019C43.7385 22.5293 43.5437 22.0598 43.1974 21.7136C42.8512 21.3673 42.3817 21.1725 41.892 21.172H28.892V16.679H60.872C60.9144 17.0791 61.0868 17.4542 61.3628 17.747C61.6388 18.0398 62.0031 18.234 62.4 18.3V73.108H62.067C61.6279 73.1192 61.2085 73.293 60.8904 73.5959C60.5722 73.8987 60.3778 74.309 60.345 74.747L59.51 82.619C59.4799 82.8863 59.5062 83.157 59.5874 83.4135C59.6685 83.67 59.8026 83.9066 59.981 84.108C60.1388 84.2851 60.3318 84.4272 60.5478 84.5252C60.7638 84.6231 60.9979 84.6749 61.235 84.677H76.588C76.8251 84.6749 77.0592 84.6231 77.2752 84.5252C77.4912 84.4272 77.6842 84.2851 77.842 84.108C78.0203 83.9071 78.1543 83.6711 78.2355 83.4151C78.3166 83.1591 78.343 82.8889 78.313 82.622L77.478 74.747C77.4441 74.3094 77.2494 73.8998 76.9314 73.5971C76.6135 73.2945 76.1948 73.1203 75.756 73.108H75.427L75.42 18.3C75.8164 18.2337 76.1801 18.0393 76.4553 17.7465C76.7306 17.4537 76.9023 17.0787 76.944 16.679H82.627C83.1167 16.6785 83.5862 16.4837 83.9324 16.1374C84.2787 15.7912 84.4735 15.3217 84.474 14.832V8.5C84.4735 8.01031 84.2787 7.54082 83.9324 7.19456C83.5862 6.84829 83.1167 6.65353 82.627 6.653L82.622 6.652ZM41.895 26.28H14.056V23.017H41.891V26.28H41.895ZM26.827 14.829L31.113 9.116L35.4 14.829H26.827ZM72.491 18.329L68.919 22.538L65.347 18.329H72.491ZM60.853 12.983L57.492 8.5H60.853V12.983ZM32.959 8.5H41.53L37.245 14.213L32.959 8.5ZM43.377 9.116L47.663 14.829H39.1L43.386 9.116H43.377ZM45.224 8.5H53.8L49.51 14.213L45.224 8.5ZM55.642 9.116L59.928 14.829H51.36L55.646 9.116H55.642ZM67.707 23.966L64.246 28.044V19.884L67.707 23.966ZM64.246 40.374V32.215L67.707 36.3L64.246 40.374ZM68.92 37.724L72.939 42.459L68.92 47.2L64.9 42.459L68.92 37.724ZM67.707 48.624L64.246 52.7V44.546L67.707 48.624ZM64.246 56.873L67.707 60.955L64.246 65.033V56.873ZM64.901 54.788L68.92 50.052L72.94 54.788L68.92 59.524L64.901 54.788ZM73.569 56.9V65L70.132 60.947L73.569 56.9ZM70.132 48.623L73.569 44.569V52.669L70.132 48.616V48.623ZM70.132 36.293L73.569 32.239V40.339L70.132 36.286V36.293ZM68.919 34.865L64.9 30.133L68.919 25.4L72.939 30.135L68.919 34.865ZM68.919 62.381L72.939 67.117L68.923 71.85L64.9 67.118L68.919 62.381ZM73.569 28.015L70.132 23.962L73.569 19.909V28.015ZM75.114 16.474H62.7V6.847H75.114V16.474ZM23.235 8.5H29.264L24.517 14.83H20.8L23.235 8.5ZM64.246 69.2L67.558 73.105H64.246V69.2ZM76.456 82.826H61.343C61.3439 82.8217 61.3439 82.8173 61.343 82.813L62.181 74.952H75.631L76.452 82.824L76.456 82.826ZM70.285 73.1L73.569 69.227V73.1H70.285ZM82.622 14.829H76.961V8.5H82.622V14.829Z" fill="white"/>
</g>
</g>
</svg>
