<svg width="90" height="90" viewBox="0 0 90 90" fill="none" xmlns="http://www.w3.org/2000/svg">
<mask id="mask0_1_13" style="mask-type:luminance" maskUnits="userSpaceOnUse" x="5" y="7" width="80" height="77">
<path d="M85 7H5V83.497H85V7Z" fill="white"/>
</mask>
<g mask="url(#mask0_1_13)">
<mask id="mask1_1_13" style="mask-type:luminance" maskUnits="userSpaceOnUse" x="5" y="7" width="80" height="77">
<path d="M85 7H5V83.497H85V7Z" fill="white"/>
</mask>
<g mask="url(#mask1_1_13)">
<path d="M84.921 54.142C84.7688 53.03 84.2889 51.9884 83.5425 51.1501C82.7961 50.3118 81.817 49.7148 80.73 49.435C78.6229 48.8746 76.3839 49.0992 74.43 50.067L63.355 55.544C62.9077 53.8514 61.913 52.3544 60.5261 51.2861C59.1391 50.2178 57.4377 49.6384 55.687 49.638H42.324C33.706 44.821 25.109 46.728 16.754 55.306L16.683 55.235C16.0776 54.6354 15.26 54.2991 14.408 54.2991C13.556 54.2991 12.7384 54.6354 12.133 55.235L5.933 61.435C5.33273 62.0392 4.99582 62.8563 4.99582 63.708C4.99582 64.5597 5.33273 65.3768 5.933 65.981L22.511 82.555C23.1154 83.1583 23.9345 83.4971 24.7885 83.4971C25.6425 83.4971 26.4616 83.1583 27.066 82.555L33.257 76.364C33.7852 75.8364 34.1139 75.1417 34.1868 74.3987C34.2598 73.6556 34.0725 72.9103 33.657 72.29C33.821 72.2515 33.9886 72.2304 34.157 72.227H46.793C49.7106 72.2704 52.6189 71.8877 55.426 71.091L64.726 68.446C67.7862 67.5348 70.7292 66.2685 73.495 64.673L82.214 59.887C83.2036 59.3265 83.9962 58.4742 84.4835 57.4466C84.9708 56.4189 85.1292 55.266 84.937 54.145L84.921 54.142ZM31.386 74.5L25.195 80.691C25.1407 80.7456 25.0761 80.7889 25.0049 80.8184C24.9338 80.848 24.8575 80.8632 24.7805 80.8632C24.7035 80.8632 24.6272 80.848 24.5561 80.8184C24.485 80.7889 24.4204 80.7456 24.366 80.691L7.792 64.118C7.68563 64.0064 7.62629 63.8582 7.62629 63.704C7.62629 63.5498 7.68563 63.4016 7.792 63.29L13.992 57.098C14.1038 56.9904 14.2529 56.9304 14.408 56.9304C14.5631 56.9304 14.7122 56.9904 14.824 57.098L31.39 73.668C31.4447 73.7223 31.4881 73.7869 31.5177 73.858C31.5474 73.9291 31.5626 74.0054 31.5626 74.0825C31.5626 74.1596 31.5474 74.2359 31.5177 74.307C31.4881 74.3781 31.4447 74.4427 31.39 74.497L31.386 74.5ZM80.933 57.575L72.214 62.36C69.6192 63.859 66.8586 65.0507 63.988 65.911L54.695 68.555C52.1215 69.2838 49.4553 69.6324 46.781 69.59H34.14C33.2729 69.6143 32.4209 69.8222 31.64 70.2L18.609 57.165C26.218 49.329 33.656 47.672 41.309 52.094L41.609 52.27H55.682C57.0353 52.2706 58.3371 52.7889 59.3205 53.7186C60.3039 54.6483 60.8944 55.9189 60.971 57.27C60.9828 57.3896 60.9676 57.5103 60.9264 57.6232C60.8852 57.736 60.8191 57.8382 60.733 57.922C60.6524 58.0139 60.5526 58.0868 60.4406 58.1355C60.3285 58.1843 60.2071 58.2076 60.085 58.204H44.1C43.9272 58.204 43.7561 58.238 43.5964 58.3042C43.4367 58.3703 43.2917 58.4672 43.1695 58.5894C43.0473 58.7116 42.9503 58.8567 42.8842 59.0164C42.818 59.1761 42.784 59.3472 42.784 59.52C42.784 59.6928 42.818 59.8639 42.8842 60.0236C42.9503 60.1833 43.0473 60.3284 43.1695 60.4506C43.2917 60.5728 43.4367 60.6697 43.5964 60.7358C43.7561 60.802 43.9272 60.836 44.1 60.836H60.085C60.5656 60.8407 61.042 60.7453 61.4837 60.556C61.9255 60.3666 62.323 60.0873 62.651 59.736C62.9996 59.3671 63.2646 58.9275 63.428 58.447L75.6 52.43C76.9801 51.7468 78.5612 51.5872 80.05 51.981C80.6402 52.1279 81.1723 52.4496 81.5765 52.9041C81.9807 53.3586 82.2381 53.9247 82.315 54.528C82.4307 55.1172 82.3596 55.7279 82.1117 56.2748C81.8638 56.8217 81.4514 57.2776 80.932 57.579L80.933 57.575ZM26.55 73.962C26.5498 74.3366 26.4386 74.7026 26.2303 75.014C26.0221 75.3253 25.7262 75.5679 25.3801 75.7111C25.034 75.8543 24.6532 75.8917 24.2859 75.8185C23.9186 75.7453 23.5812 75.5648 23.3164 75.2999C23.0516 75.035 22.8713 74.6975 22.7983 74.3301C22.7253 73.9628 22.7629 73.582 22.9063 73.236C23.0497 72.8899 23.2924 72.5942 23.6039 72.3861C23.9153 72.1781 24.2814 72.067 24.656 72.067C24.9048 72.067 25.1512 72.116 25.381 72.2113C25.6109 72.3065 25.8197 72.4461 25.9956 72.6221C26.1715 72.7981 26.311 73.007 26.4061 73.2369C26.5012 73.4668 26.5501 73.7132 26.55 73.962ZM38.85 33.739C39.199 33.739 39.5338 33.8776 39.7806 34.1244C40.0274 34.3712 40.166 34.706 40.166 35.055V42.155C40.166 42.3278 40.132 42.4989 40.0658 42.6586C39.9997 42.8183 39.9028 42.9634 39.7806 43.0856C39.6584 43.2078 39.5133 43.3047 39.3536 43.3708C39.194 43.437 39.0228 43.471 38.85 43.471C38.6772 43.471 38.5061 43.437 38.3464 43.3708C38.1867 43.3047 38.0417 43.2078 37.9195 43.0856C37.7973 42.9634 37.7003 42.8183 37.6342 42.6586C37.568 42.4989 37.534 42.3278 37.534 42.155V35.055C37.534 34.706 37.6727 34.3712 37.9195 34.1244C38.1663 33.8776 38.501 33.739 38.85 33.739ZM54.53 33.739C54.7028 33.739 54.874 33.773 55.0336 33.8392C55.1933 33.9053 55.3384 34.0022 55.4606 34.1244C55.5828 34.2466 55.6797 34.3917 55.7458 34.5514C55.812 34.7111 55.846 34.8822 55.846 35.055V42.155C55.846 42.504 55.7074 42.8388 55.4606 43.0856C55.2138 43.3324 54.879 43.471 54.53 43.471C54.181 43.471 53.8463 43.3324 53.5995 43.0856C53.3527 42.8388 53.214 42.504 53.214 42.155V35.055C53.214 34.706 53.3527 34.3712 53.5995 34.1244C53.8463 33.8776 54.181 33.739 54.53 33.739ZM17.245 43.469C17.594 43.469 17.9288 43.3304 18.1756 43.0836C18.4224 42.8368 18.561 42.502 18.561 42.153V34.84C18.6198 33.7162 19.1206 32.6612 19.9543 31.9053C20.788 31.1493 21.8868 30.7538 23.011 30.805H31.347C31.0296 31.7141 30.867 32.6701 30.866 33.633V42.153C30.866 42.5022 31.0047 42.837 31.2516 43.0839C31.4985 43.3308 31.8333 43.4695 32.1825 43.4695C32.5317 43.4695 32.8665 43.3308 33.1134 43.0839C33.3603 42.837 33.499 42.5022 33.499 42.153V33.633C33.4997 32.5525 33.7913 31.492 34.343 30.563C34.374 30.516 34.405 30.469 34.432 30.422C35.0988 29.3979 36.0143 28.5595 37.0929 27.985C38.1715 27.4106 39.3781 27.1188 40.6 27.137H52.789C54.0025 27.12 55.2008 27.4084 56.2737 27.9756C57.3466 28.5428 58.2597 29.3706 58.929 30.383C58.963 30.4533 59.0035 30.5202 59.05 30.583C59.5939 31.5078 59.8811 32.5611 59.882 33.634V42.153C59.882 42.5022 60.0207 42.837 60.2676 43.0839C60.5145 43.3308 60.8493 43.4695 61.1985 43.4695C61.5477 43.4695 61.8825 43.3308 62.1294 43.0839C62.3763 42.837 62.515 42.5022 62.515 42.153V33.633C62.5136 32.6702 62.3514 31.7144 62.035 30.805H70.367C71.4911 30.7538 72.5898 31.1494 73.4233 31.9053C74.2568 32.6613 74.7575 33.7163 74.816 34.84V42.153C74.816 42.5022 74.9547 42.837 75.2016 43.0839C75.4485 43.3308 75.7833 43.4695 76.1325 43.4695C76.4817 43.4695 76.8165 43.3308 77.0634 43.0839C77.3103 42.837 77.449 42.5022 77.449 42.153V34.84C77.3884 33.0179 76.6091 31.2938 75.2814 30.0444C73.9537 28.795 72.1855 28.1218 70.363 28.172H69.8C70.6289 27.3408 71.2803 26.3499 71.7146 25.2594C72.149 24.1688 72.3574 23.0015 72.327 21.828C72.3064 20.212 71.65 18.6691 70.4999 17.5336C69.3498 16.3981 67.7987 15.7614 66.1825 15.7614C64.5663 15.7614 63.0152 16.3981 61.8651 17.5336C60.7151 18.6691 60.0586 20.212 60.038 21.828C60.0072 23.0016 60.2154 24.1692 60.65 25.2598C61.0846 26.3504 61.7365 27.3412 62.566 28.172H62.003C61.5537 28.1731 61.1053 28.2136 60.663 28.293C59.7262 27.1007 58.5287 26.1389 57.1624 25.4814C55.7961 24.8238 54.2973 24.4881 52.781 24.5H51.163C53.706 22.5 55.042 18.86 55.042 15.363C55.042 14.2648 54.8257 13.1773 54.4054 12.1626C53.9851 11.148 53.3691 10.226 52.5925 9.44947C51.816 8.67289 50.894 8.05688 49.8794 7.6366C48.8647 7.21632 47.7772 7 46.679 7C45.5808 7 44.4933 7.21632 43.4786 7.6366C42.464 8.05688 41.542 8.67289 40.7655 9.44947C39.9889 10.226 39.3729 11.148 38.9526 12.1626C38.5323 13.1773 38.316 14.2648 38.316 15.363C38.3193 17.7644 38.9623 20.1216 40.179 22.192C40.7106 23.075 41.3949 23.8565 42.2 24.5H40.585C39.0686 24.4872 37.5694 24.8221 36.2025 25.4789C34.8357 26.1357 33.6375 27.097 32.7 28.289C32.2564 28.2096 31.8067 28.1691 31.356 28.168H30.8C31.6291 27.3369 32.2806 26.346 32.7152 25.2555C33.1497 24.165 33.3582 22.9975 33.328 21.824C33.328 20.1942 32.6806 18.6312 31.5282 17.4788C30.3758 16.3264 28.8128 15.679 27.183 15.679C25.5532 15.679 23.9902 16.3264 22.8378 17.4788C21.6854 18.6312 21.038 20.1942 21.038 21.824C21.0074 22.9976 21.2158 24.1651 21.6503 25.2557C22.0849 26.3463 22.7367 27.3371 23.566 28.168H23C21.1776 28.1178 19.4093 28.791 18.0816 30.0404C16.7539 31.2898 15.9746 33.0139 15.914 34.836V42.149C15.9143 42.4981 16.0531 42.8328 16.3001 43.0796C16.5471 43.3264 16.8819 43.465 17.231 43.465L17.245 43.469ZM66.195 18.317C67.1263 18.3175 68.0193 18.6877 68.6778 19.3462C69.3363 20.0047 69.7065 20.8977 69.707 21.829C69.707 23.946 68.617 26.929 66.195 26.929C63.543 26.929 62.683 23.496 62.683 21.829C62.6838 20.8978 63.0541 20.005 63.7125 19.3465C64.371 18.6881 65.2638 18.3178 66.195 18.317ZM40.965 15.368C40.965 13.8482 41.5688 12.3906 42.6434 11.3159C43.7181 10.2412 45.1757 9.6375 46.6955 9.6375C48.2153 9.6375 49.6729 10.2412 50.7476 11.3159C51.8223 12.3906 52.426 13.8482 52.426 15.368C52.426 18.708 50.649 23.411 46.695 23.411C42.524 23.411 40.965 18.477 40.965 15.368ZM27.192 18.317C28.1225 18.3189 29.0143 18.6896 29.6719 19.3479C30.3295 20.0063 30.6992 20.8985 30.7 21.829C30.7 23.493 29.84 26.929 27.188 26.929C24.766 26.929 23.676 23.949 23.676 21.829C23.6768 20.8978 24.0471 20.005 24.7055 19.3465C25.364 18.6881 26.2568 18.3178 27.188 18.317" fill="white"/>
<path d="M27.192 18.317C28.1225 18.3189 29.0143 18.6896 29.6719 19.3479C30.3295 20.0063 30.6992 20.8985 30.7 21.829C30.7 23.493 29.84 26.929 27.188 26.929C24.766 26.929 23.676 23.949 23.676 21.829C23.6768 20.8978 24.0471 20.005 24.7055 19.3465C25.364 18.6881 26.2568 18.3178 27.188 18.317M84.921 54.142C84.7688 53.03 84.2889 51.9884 83.5425 51.1501C82.7961 50.3118 81.817 49.7148 80.73 49.435C78.6229 48.8746 76.3839 49.0992 74.43 50.067L63.355 55.544C62.9077 53.8514 61.913 52.3544 60.5261 51.2861C59.1391 50.2178 57.4377 49.6384 55.687 49.638H42.324C33.706 44.821 25.109 46.728 16.754 55.306L16.683 55.235C16.0776 54.6354 15.26 54.2991 14.408 54.2991C13.556 54.2991 12.7384 54.6354 12.133 55.235L5.933 61.435C5.33273 62.0392 4.99582 62.8563 4.99582 63.708C4.99582 64.5597 5.33273 65.3768 5.933 65.981L22.511 82.555C23.1154 83.1583 23.9345 83.4971 24.7885 83.4971C25.6425 83.4971 26.4616 83.1583 27.066 82.555L33.257 76.364C33.7852 75.8364 34.1139 75.1417 34.1868 74.3987C34.2598 73.6556 34.0725 72.9103 33.657 72.29C33.821 72.2515 33.9886 72.2304 34.157 72.227H46.793C49.7106 72.2704 52.6189 71.8877 55.426 71.091L64.726 68.446C67.7862 67.5348 70.7292 66.2685 73.495 64.673L82.214 59.887C83.2036 59.3265 83.9962 58.4742 84.4835 57.4466C84.9708 56.4189 85.1292 55.266 84.937 54.145L84.921 54.142ZM31.386 74.5L25.195 80.691C25.1407 80.7456 25.0761 80.7889 25.0049 80.8184C24.9338 80.848 24.8575 80.8632 24.7805 80.8632C24.7035 80.8632 24.6272 80.848 24.5561 80.8184C24.485 80.7889 24.4204 80.7456 24.366 80.691L7.792 64.118C7.68563 64.0064 7.62629 63.8582 7.62629 63.704C7.62629 63.5498 7.68563 63.4016 7.792 63.29L13.992 57.098C14.1038 56.9904 14.2529 56.9304 14.408 56.9304C14.5631 56.9304 14.7122 56.9904 14.824 57.098L31.39 73.668C31.4447 73.7223 31.4881 73.7869 31.5177 73.858C31.5474 73.9291 31.5626 74.0054 31.5626 74.0825C31.5626 74.1596 31.5474 74.2359 31.5177 74.307C31.4881 74.3781 31.4447 74.4427 31.39 74.497L31.386 74.5ZM80.933 57.575L72.214 62.36C69.6192 63.859 66.8586 65.0507 63.988 65.911L54.695 68.555C52.1215 69.2838 49.4553 69.6324 46.781 69.59H34.14C33.2729 69.6143 32.4209 69.8222 31.64 70.2L18.609 57.165C26.218 49.329 33.656 47.672 41.309 52.094L41.609 52.27H55.682C57.0353 52.2706 58.3371 52.7889 59.3205 53.7186C60.3039 54.6483 60.8944 55.9189 60.971 57.27C60.9828 57.3896 60.9676 57.5103 60.9264 57.6232C60.8852 57.736 60.8191 57.8382 60.733 57.922C60.6524 58.0139 60.5526 58.0868 60.4406 58.1355C60.3285 58.1843 60.2071 58.2076 60.085 58.204H44.1C43.9272 58.204 43.7561 58.238 43.5964 58.3042C43.4367 58.3703 43.2917 58.4672 43.1695 58.5894C43.0473 58.7116 42.9503 58.8567 42.8842 59.0164C42.818 59.1761 42.784 59.3472 42.784 59.52C42.784 59.6928 42.818 59.8639 42.8842 60.0236C42.9503 60.1833 43.0473 60.3284 43.1695 60.4506C43.2917 60.5728 43.4367 60.6697 43.5964 60.7358C43.7561 60.802 43.9272 60.836 44.1 60.836H60.085C60.5656 60.8407 61.042 60.7453 61.4837 60.556C61.9255 60.3666 62.323 60.0873 62.651 59.736C62.9996 59.3671 63.2646 58.9275 63.428 58.447L75.6 52.43C76.9801 51.7468 78.5612 51.5872 80.05 51.981C80.6402 52.1279 81.1723 52.4496 81.5765 52.9041C81.9807 53.3586 82.2381 53.9247 82.315 54.528C82.4307 55.1172 82.3596 55.7279 82.1117 56.2748C81.8638 56.8217 81.4514 57.2776 80.932 57.579L80.933 57.575ZM26.55 73.962C26.5498 74.3366 26.4386 74.7026 26.2303 75.014C26.0221 75.3253 25.7262 75.5679 25.3801 75.7111C25.034 75.8543 24.6532 75.8917 24.2859 75.8185C23.9186 75.7453 23.5812 75.5648 23.3164 75.2999C23.0516 75.035 22.8713 74.6975 22.7983 74.3301C22.7253 73.9628 22.7629 73.582 22.9063 73.236C23.0497 72.8899 23.2924 72.5942 23.6039 72.3861C23.9153 72.1781 24.2814 72.067 24.656 72.067C24.9048 72.067 25.1512 72.116 25.381 72.2113C25.6109 72.3065 25.8197 72.4461 25.9956 72.6221C26.1715 72.7981 26.311 73.007 26.4061 73.2369C26.5012 73.4668 26.5501 73.7132 26.55 73.962ZM38.85 33.739C39.199 33.739 39.5338 33.8776 39.7806 34.1244C40.0274 34.3712 40.166 34.706 40.166 35.055V42.155C40.166 42.3278 40.132 42.4989 40.0658 42.6586C39.9997 42.8183 39.9028 42.9634 39.7806 43.0856C39.6584 43.2078 39.5133 43.3047 39.3536 43.3708C39.194 43.437 39.0228 43.471 38.85 43.471C38.6772 43.471 38.5061 43.437 38.3464 43.3708C38.1867 43.3047 38.0417 43.2078 37.9195 43.0856C37.7973 42.9634 37.7003 42.8183 37.6342 42.6586C37.568 42.4989 37.534 42.3278 37.534 42.155V35.055C37.534 34.706 37.6727 34.3712 37.9195 34.1244C38.1663 33.8776 38.501 33.739 38.85 33.739ZM54.53 33.739C54.7028 33.739 54.874 33.773 55.0336 33.8392C55.1933 33.9053 55.3384 34.0022 55.4606 34.1244C55.5828 34.2466 55.6797 34.3917 55.7458 34.5514C55.812 34.7111 55.846 34.8822 55.846 35.055V42.155C55.846 42.504 55.7074 42.8388 55.4606 43.0856C55.2138 43.3324 54.879 43.471 54.53 43.471C54.181 43.471 53.8463 43.3324 53.5995 43.0856C53.3527 42.8388 53.214 42.504 53.214 42.155V35.055C53.214 34.706 53.3527 34.3712 53.5995 34.1244C53.8463 33.8776 54.181 33.739 54.53 33.739ZM17.245 43.469C17.594 43.469 17.9288 43.3304 18.1756 43.0836C18.4224 42.8368 18.561 42.502 18.561 42.153V34.84C18.6198 33.7162 19.1206 32.6612 19.9543 31.9053C20.788 31.1493 21.8868 30.7538 23.011 30.805H31.347C31.0296 31.7141 30.867 32.6701 30.866 33.633V42.153C30.866 42.5022 31.0047 42.837 31.2516 43.0839C31.4985 43.3308 31.8333 43.4695 32.1825 43.4695C32.5317 43.4695 32.8665 43.3308 33.1134 43.0839C33.3603 42.837 33.499 42.5022 33.499 42.153V33.633C33.4997 32.5525 33.7913 31.492 34.343 30.563C34.374 30.516 34.405 30.469 34.432 30.422C35.0988 29.3979 36.0143 28.5595 37.0929 27.985C38.1715 27.4106 39.3781 27.1188 40.6 27.137H52.789C54.0025 27.12 55.2008 27.4084 56.2737 27.9756C57.3466 28.5428 58.2597 29.3706 58.929 30.383C58.963 30.4533 59.0035 30.5202 59.05 30.583C59.5939 31.5078 59.8811 32.5611 59.882 33.634V42.153C59.882 42.5022 60.0207 42.837 60.2676 43.0839C60.5145 43.3308 60.8493 43.4695 61.1985 43.4695C61.5477 43.4695 61.8825 43.3308 62.1294 43.0839C62.3763 42.837 62.515 42.5022 62.515 42.153V33.633C62.5136 32.6702 62.3514 31.7144 62.035 30.805H70.367C71.4911 30.7538 72.5898 31.1494 73.4233 31.9053C74.2568 32.6613 74.7575 33.7163 74.816 34.84V42.153C74.816 42.5022 74.9547 42.837 75.2016 43.0839C75.4485 43.3308 75.7833 43.4695 76.1325 43.4695C76.4817 43.4695 76.8165 43.3308 77.0634 43.0839C77.3103 42.837 77.449 42.5022 77.449 42.153V34.84C77.3884 33.0179 76.6091 31.2938 75.2814 30.0444C73.9537 28.795 72.1855 28.1218 70.363 28.172H69.8C70.6289 27.3408 71.2803 26.3499 71.7146 25.2594C72.149 24.1688 72.3574 23.0015 72.327 21.828C72.3064 20.212 71.65 18.6691 70.4999 17.5336C69.3498 16.3981 67.7987 15.7614 66.1825 15.7614C64.5663 15.7614 63.0152 16.3981 61.8651 17.5336C60.7151 18.6691 60.0586 20.212 60.038 21.828C60.0072 23.0016 60.2154 24.1692 60.65 25.2598C61.0846 26.3504 61.7365 27.3412 62.566 28.172H62.003C61.5537 28.1731 61.1053 28.2136 60.663 28.293C59.7262 27.1007 58.5287 26.1389 57.1624 25.4814C55.7961 24.8238 54.2973 24.4881 52.781 24.5H51.163C53.706 22.5 55.042 18.86 55.042 15.363C55.042 14.2648 54.8257 13.1773 54.4054 12.1626C53.9851 11.148 53.3691 10.226 52.5925 9.44947C51.816 8.67289 50.894 8.05688 49.8794 7.6366C48.8647 7.21632 47.7772 7 46.679 7C45.5808 7 44.4933 7.21632 43.4786 7.6366C42.464 8.05688 41.542 8.67289 40.7655 9.44947C39.9889 10.226 39.3729 11.148 38.9526 12.1626C38.5323 13.1773 38.316 14.2648 38.316 15.363C38.3193 17.7644 38.9623 20.1216 40.179 22.192C40.7106 23.075 41.3949 23.8565 42.2 24.5H40.585C39.0686 24.4872 37.5694 24.8221 36.2025 25.4789C34.8357 26.1357 33.6375 27.097 32.7 28.289C32.2564 28.2096 31.8067 28.1691 31.356 28.168H30.8C31.6291 27.3369 32.2806 26.346 32.7152 25.2555C33.1497 24.165 33.3582 22.9975 33.328 21.824C33.328 20.1942 32.6806 18.6312 31.5282 17.4788C30.3758 16.3264 28.8128 15.679 27.183 15.679C25.5532 15.679 23.9902 16.3264 22.8378 17.4788C21.6854 18.6312 21.038 20.1942 21.038 21.824C21.0074 22.9976 21.2158 24.1651 21.6503 25.2557C22.0849 26.3463 22.7367 27.3371 23.566 28.168H23C21.1776 28.1178 19.4093 28.791 18.0816 30.0404C16.7539 31.2898 15.9746 33.0139 15.914 34.836V42.149C15.9143 42.4981 16.0531 42.8328 16.3001 43.0796C16.5471 43.3264 16.8819 43.465 17.231 43.465L17.245 43.469ZM66.195 18.317C67.1263 18.3175 68.0193 18.6877 68.6778 19.3462C69.3363 20.0047 69.7065 20.8977 69.707 21.829C69.707 23.946 68.617 26.929 66.195 26.929C63.543 26.929 62.683 23.496 62.683 21.829C62.6838 20.8978 63.0541 20.005 63.7125 19.3465C64.371 18.6881 65.2638 18.3178 66.195 18.317ZM40.965 15.368C40.965 13.8482 41.5688 12.3906 42.6434 11.3159C43.7181 10.2412 45.1757 9.6375 46.6955 9.6375C48.2153 9.6375 49.6729 10.2412 50.7476 11.3159C51.8223 12.3906 52.426 13.8482 52.426 15.368C52.426 18.708 50.649 23.411 46.695 23.411C42.524 23.411 40.965 18.477 40.965 15.368Z" stroke="#BC2D33"/>
</g>
</g>
</svg>
