<svg width="90" height="90" viewBox="0 0 90 90" fill="none" xmlns="http://www.w3.org/2000/svg">
<mask id="mask0_1_24" style="mask-type:luminance" maskUnits="userSpaceOnUse" x="4" y="7" width="83" height="76">
<path d="M86.226 7H4V82.239H86.226V7Z" fill="white"/>
</mask>
<g mask="url(#mask0_1_24)">
<mask id="mask1_1_24" style="mask-type:luminance" maskUnits="userSpaceOnUse" x="4" y="7" width="83" height="76">
<path d="M86.226 7H4V82.239H86.226V7Z" fill="white"/>
</mask>
<g mask="url(#mask1_1_24)">
<path fill-rule="evenodd" clip-rule="evenodd" d="M25.161 40.571L24.71 37.556H21.055L20.605 40.571C20.5754 40.7738 20.4818 40.9618 20.3379 41.1076C20.1941 41.2535 20.0073 41.3496 19.805 41.382C18.3568 41.72 16.9752 42.2972 15.717 43.09C15.549 43.1951 15.3529 43.2459 15.155 43.2357C14.9572 43.2255 14.7673 43.1548 14.611 43.033L12.176 41.233L9.594 43.819L11.412 46.274C11.5273 46.4304 11.5926 46.6181 11.5992 46.8123C11.6058 47.0065 11.5534 47.1981 11.449 47.362C10.6509 48.6359 10.0722 50.0346 9.737 51.5C9.69512 51.6902 9.59599 51.8629 9.45296 51.995C9.30994 52.1272 9.12987 52.2123 8.937 52.239L5.922 52.687V56.342L8.937 56.792C9.13958 56.822 9.32735 56.9157 9.47314 57.0596C9.61894 57.2034 9.7152 57.3899 9.748 57.592C10.0854 59.0406 10.6598 60.4236 11.448 61.685C11.5537 61.8515 11.6052 62.0466 11.5955 62.2436C11.5859 62.4405 11.5155 62.6297 11.394 62.785L9.6 65.217L12.184 67.8L14.639 65.982C14.7955 65.8659 14.9834 65.7999 15.1782 65.7926C15.3729 65.7853 15.5652 65.837 15.73 65.941C16.3665 66.3414 17.0355 66.6876 17.73 66.976C18.4243 67.2629 19.141 67.492 19.873 67.661C20.063 67.7035 20.2355 67.8028 20.3677 67.9457C20.4999 68.0886 20.5854 68.2683 20.613 68.461L21.063 71.475H24.718L25.168 68.461C25.1977 68.2583 25.2913 68.0704 25.4352 67.9245C25.5791 67.7787 25.7657 67.6825 25.968 67.65C26.6804 67.4845 27.3778 67.26 28.053 66.979C28.7507 66.6907 29.4231 66.3445 30.063 65.944C30.2295 65.8402 30.4238 65.7899 30.6198 65.7999C30.8157 65.81 31.0039 65.8798 31.159 66L33.593 67.8L36.181 65.212L34.363 62.757C34.2477 62.6006 34.1824 62.4129 34.1758 62.2187C34.1692 62.0245 34.2216 61.8329 34.326 61.669C35.1229 60.3933 35.7028 58.9944 36.042 57.529C36.085 57.3393 36.1845 57.167 36.3273 57.035C36.4701 56.9029 36.6495 56.8171 36.842 56.789L39.856 56.339V52.689L36.842 52.241C36.6393 52.2113 36.4514 52.1176 36.3055 51.9738C36.1597 51.8299 36.0635 51.6433 36.031 51.441C35.8655 50.7286 35.641 50.0312 35.36 49.356C35.072 48.6613 34.7258 47.9923 34.325 47.356C34.2207 47.189 34.1701 46.994 34.1799 46.7974C34.1898 46.6007 34.2596 46.4118 34.38 46.256L36.18 43.821L33.59 41.229L31.132 43.049C30.9759 43.165 30.7881 43.2307 30.5938 43.2373C30.3994 43.2439 30.2076 43.1911 30.044 43.086C28.7697 42.2858 27.3703 41.7048 25.904 41.367C25.7139 41.3256 25.541 41.2272 25.4083 41.085C25.2755 40.9428 25.1893 40.7635 25.161 40.571ZM75.468 34.522C75.5284 34.4077 75.611 34.3065 75.7109 34.2245C75.8109 34.1424 75.9261 34.0811 76.05 34.044C76.1748 34.0089 76.3054 33.9992 76.4339 34.0156C76.5625 34.032 76.6865 34.0741 76.7985 34.1395C76.9105 34.2048 77.0081 34.292 77.0857 34.3958C77.1633 34.4997 77.2192 34.6181 77.25 34.744C77.2803 34.8697 77.2852 35.0002 77.2642 35.1278C77.2433 35.2555 77.1969 35.3776 77.128 35.487L70.511 46.96C70.3824 47.1808 70.1713 47.3414 69.9242 47.4066C69.6771 47.4718 69.4143 47.4361 69.1935 47.3075C68.9727 47.1789 68.8121 46.9678 68.7469 46.7207C68.6817 46.4736 68.7174 46.2108 68.846 45.99L75.468 34.522ZM64.812 49.682L69.332 52.296L81.165 31.8L76.645 29.189L64.812 49.682ZM68.158 53.828L63.025 58L64.069 51.477L68.158 53.836V53.828ZM77.601 27.528L77.801 27.176L82.321 29.787L82.121 30.139L77.601 27.528ZM78.764 25.518L83.284 28.129L83.965 26.952C84.2986 26.3673 84.3878 25.6744 84.2133 25.0243C84.0388 24.3741 83.6146 23.8191 83.033 23.48L82.918 23.416C82.3335 23.0822 81.6409 22.9927 80.9907 23.1668C80.3405 23.341 79.7854 23.7648 79.446 24.346L78.765 25.526L78.764 25.518ZM85.6 27.971L73.163 49.506V75.265C73.1601 76.0308 72.8544 76.7644 72.3126 77.3057C71.7708 77.8469 71.0368 78.1519 70.271 78.154H68.771V79.354C68.7681 80.1198 68.4624 80.8534 67.9206 81.3947C67.3788 81.9359 66.6448 82.2409 65.879 82.243H20.424C19.6577 82.2425 18.9228 81.938 18.3807 81.3964C17.8385 80.8548 17.5333 80.1203 17.532 79.354V68.968C17.3487 68.9013 17.1657 68.83 16.983 68.754C16.3927 68.5078 15.8186 68.2246 15.264 67.906L12.9 69.663C12.6459 69.8422 12.3375 69.9276 12.0274 69.9046C11.7174 69.8816 11.4249 69.7517 11.2 69.537L7.863 66.205C7.64045 65.9842 7.5057 65.6901 7.48381 65.3774C7.46192 65.0647 7.55438 64.7546 7.744 64.505L9.5 62.136C9.18275 61.5798 8.89989 61.0048 8.653 60.414C8.40633 59.8229 8.1966 59.2171 8.025 58.6L5.115 58.169C4.80517 58.123 4.52217 57.9672 4.31752 57.7301C4.11288 57.493 4.0002 57.1902 4 56.877V52.157C3.99999 51.8437 4.1126 51.5409 4.31728 51.3037C4.52196 51.0665 4.80508 50.9108 5.115 50.865L8.028 50.431C8.19712 49.815 8.40453 49.2102 8.649 48.62C8.89489 48.0305 9.17572 47.4561 9.49 46.9L7.744 44.53C7.5694 44.2981 7.47783 44.0143 7.48399 43.7241C7.49016 43.4339 7.59371 43.1542 7.778 42.93C7.80469 42.8935 7.83519 42.86 7.869 42.83L11.205 39.49C11.4262 39.2683 11.7199 39.134 12.0322 39.1115C12.3445 39.0891 12.6545 39.1802 12.905 39.368L15.272 41.121C15.8261 40.8023 16.4003 40.5201 16.991 40.276C17.174 40.201 17.35 40.13 17.534 40.062V13.974C17.5369 13.2094 17.8416 12.4768 18.3819 11.9358C18.9223 11.3947 19.6544 11.0889 20.419 11.085H21.919V9.885C21.9214 9.1192 22.2272 8.38556 22.7695 7.8448C23.3117 7.30404 24.0462 7.00026 24.812 7H56.64C56.8952 7.00014 57.14 7.10115 57.321 7.281L72.841 21.261C72.9414 21.3513 73.0217 21.4617 73.0766 21.5851C73.1316 21.7084 73.16 21.842 73.16 21.977V31.383L77.782 23.377C78.0749 22.8688 78.465 22.4233 78.9301 22.0659C79.3952 21.7085 79.9262 21.4463 80.4926 21.2942C81.0591 21.1421 81.65 21.1031 82.2316 21.1794C82.8131 21.2557 83.374 21.4459 83.882 21.739L83.936 21.769C83.9804 21.7896 84.0227 21.8148 84.062 21.844C85.053 22.4406 85.7741 23.3982 86.0737 24.5154C86.3734 25.6326 86.2283 26.8225 85.669 27.835C85.6477 27.8799 85.623 27.923 85.595 27.964L85.6 27.971ZM71.233 52.841V75.264C71.2312 75.5188 71.1291 75.7627 70.9489 75.9429C70.7687 76.1231 70.5248 76.2252 70.27 76.227H24.812C24.5571 76.2254 24.3131 76.1235 24.1328 75.9432C23.9525 75.7629 23.8506 75.5189 23.849 75.264V73.406H25.249C25.5619 73.4059 25.8644 73.2935 26.1015 73.0892C26.3386 72.885 26.4946 72.6025 26.541 72.293L26.975 69.381C27.5908 69.2112 28.1956 69.0038 28.786 68.76C29.3763 68.5127 29.9513 68.2306 30.508 67.915L32.875 69.668C33.1244 69.8548 33.4329 69.9454 33.7438 69.9229C34.0546 69.9005 34.3469 69.7667 34.567 69.546L37.9 66.21C38.121 65.9886 38.2551 65.6952 38.2781 65.3832C38.301 65.0712 38.2112 64.7614 38.025 64.51L36.272 62.143C36.5876 61.5864 36.8694 61.0114 37.116 60.421C37.3607 59.8309 37.5681 59.2261 37.737 58.61L40.65 58.176C40.96 58.1297 41.2433 57.974 41.4485 57.737C41.6537 57.5 41.7674 57.1975 41.769 56.884V52.156C41.7676 51.8425 41.654 51.5398 41.4488 51.3028C41.2435 51.0658 40.9601 50.9101 40.65 50.864L37.737 50.43C37.398 49.1969 36.9062 48.011 36.273 46.9L38.032 44.53C38.2198 44.2795 38.3109 43.9695 38.2885 43.6572C38.266 43.3449 38.1317 43.0512 37.91 42.83L34.574 39.493C34.543 39.4623 34.5095 39.4343 34.474 39.409C34.2671 39.2354 34.0112 39.1305 33.742 39.109H33.708C33.4063 39.0953 33.1091 39.1865 32.867 39.367L30.5 41.12C29.3873 40.4887 28.2006 39.998 26.967 39.659L26.533 36.746C26.4858 36.4367 26.3297 36.1544 26.0929 35.95C25.856 35.7455 25.5539 35.6324 25.241 35.631H23.849V9.889C23.8506 9.63408 23.9525 9.39005 24.1328 9.20979C24.3131 9.02954 24.5571 8.92757 24.812 8.926H55.677V20.05C55.6775 20.8165 55.9821 21.5515 56.5239 22.0937C57.0657 22.6358 57.8005 22.9409 58.567 22.942H71.234V34.721L64.351 46.642H44.329C44.0736 46.642 43.8287 46.7435 43.6481 46.9241C43.4675 47.1047 43.366 47.3496 43.366 47.605C43.366 47.8604 43.4675 48.1053 43.6481 48.2859C43.8287 48.4665 44.0736 48.568 44.329 48.568H63.242L62.456 49.932C62.3844 50.0443 62.3371 50.1703 62.317 50.302L61.676 54.313H44.329C44.0731 54.313 43.8276 54.4147 43.6466 54.5956C43.4657 54.7766 43.364 55.0221 43.364 55.278C43.364 55.5339 43.4657 55.7794 43.6466 55.9604C43.8276 56.1413 44.0731 56.243 44.329 56.243H61.361L60.934 58.929C60.8883 59.2169 60.9309 59.5119 61.0563 59.775C61.1817 60.0382 61.3839 60.2571 61.6363 60.4029C61.8887 60.5487 62.1794 60.6145 62.47 60.5917C62.7606 60.5689 63.0375 60.4584 63.264 60.275L70.015 54.792C70.1208 54.7132 70.2096 54.6139 70.276 54.5L71.235 52.839L71.233 52.841ZM37.411 71.592C37.1552 71.592 36.9099 71.4904 36.729 71.3095C36.5481 71.1286 36.4465 70.8833 36.4465 70.6275C36.4465 70.3717 36.5481 70.1264 36.729 69.9455C36.9099 69.7646 37.1552 69.663 37.411 69.663H66.276C66.5318 69.663 66.7771 69.7646 66.958 69.9455C67.1389 70.1264 67.2405 70.3717 67.2405 70.6275C67.2405 70.8833 67.1389 71.1286 66.958 71.3095C66.7771 71.4904 66.5318 71.592 66.276 71.592H37.411ZM41.9 63.915H66.276C66.4049 63.9186 66.5331 63.8964 66.6533 63.8496C66.7734 63.8029 66.883 63.7326 66.9755 63.6428C67.0681 63.5531 67.1417 63.4457 67.1921 63.3271C67.2425 63.2084 67.2687 63.0809 67.269 62.952C67.2689 62.8223 67.2422 62.694 67.1906 62.575C67.139 62.4559 67.0636 62.3488 66.969 62.26C66.8773 62.1691 66.7677 62.0981 66.6473 62.0514C66.5268 62.0048 66.3981 61.9835 66.269 61.989H41.9C41.7709 61.9846 41.6422 62.0062 41.5216 62.0526C41.4011 62.0991 41.2911 62.1693 41.1983 62.2592C41.1055 62.3491 41.0318 62.4568 40.9816 62.5758C40.9314 62.6949 40.9057 62.8228 40.906 62.952C40.9061 63.081 40.9319 63.2087 40.9821 63.3275C41.0322 63.4464 41.1056 63.554 41.198 63.644C41.3863 63.8234 41.638 63.9208 41.898 63.915M44.325 40.9C44.0692 40.9 43.8239 40.7984 43.643 40.6175C43.4621 40.4366 43.3605 40.1913 43.3605 39.9355C43.3605 39.6797 43.4621 39.4344 43.643 39.2535C43.8239 39.0726 44.0692 38.971 44.325 38.971H66.276C66.5318 38.971 66.7771 39.0726 66.958 39.2535C67.1389 39.4344 67.2405 39.6797 67.2405 39.9355C67.2405 40.1913 67.1389 40.4366 66.958 40.6175C66.7771 40.7984 66.5318 40.9 66.276 40.9H44.325ZM29.487 28.137H51.431C51.56 28.1417 51.6885 28.1201 51.8089 28.0735C51.9292 28.0269 52.0388 27.9563 52.131 27.866C52.2705 27.7308 52.3658 27.5565 52.4045 27.3661C52.4431 27.1758 52.4233 26.9781 52.3476 26.7992C52.2719 26.6203 52.1438 26.4685 51.9802 26.3637C51.8166 26.2589 51.6252 26.206 51.431 26.212H29.487C29.293 26.2065 29.1019 26.2597 28.9387 26.3646C28.7755 26.4695 28.6477 26.6212 28.572 26.7999C28.4964 26.9786 28.4765 27.1759 28.5148 27.3662C28.5532 27.5564 28.648 27.7306 28.787 27.866C28.8793 27.9562 28.9889 28.0267 29.1092 28.0732C29.2295 28.1198 29.3581 28.1415 29.487 28.137ZM29.487 22.237H51.431C51.56 22.2417 51.6885 22.2201 51.8089 22.1735C51.9292 22.1269 52.0388 22.0563 52.131 21.966C52.2234 21.876 52.2969 21.7684 52.347 21.6495C52.3972 21.5307 52.423 21.403 52.423 21.274C52.423 21.145 52.3972 21.0173 52.347 20.8985C52.2969 20.7796 52.2234 20.672 52.131 20.582C52.0379 20.493 51.9281 20.4232 51.808 20.3767C51.6879 20.3302 51.5598 20.3079 51.431 20.311H29.487C29.227 20.3052 28.9753 20.4026 28.787 20.582C28.6946 20.672 28.6211 20.7796 28.571 20.8985C28.5208 21.0173 28.495 21.145 28.495 21.274C28.495 21.403 28.5208 21.5307 28.571 21.6495C28.6211 21.7684 28.6946 21.876 28.787 21.966C28.8793 22.0562 28.9889 22.1267 29.1092 22.1732C29.2295 22.2198 29.3581 22.2415 29.487 22.237ZM29.487 16.337H51.431C51.56 16.3417 51.6885 16.3201 51.8089 16.2735C51.9292 16.2269 52.0388 16.1563 52.131 16.066C52.2234 15.976 52.2969 15.8684 52.347 15.7495C52.3972 15.6307 52.423 15.503 52.423 15.374C52.423 15.245 52.3972 15.1173 52.347 14.9985C52.2969 14.8796 52.2234 14.772 52.131 14.682C52.0379 14.593 51.9281 14.5232 51.808 14.4767C51.6879 14.4302 51.5598 14.4079 51.431 14.411H29.487C29.227 14.4052 28.9753 14.5026 28.787 14.682C28.6946 14.772 28.6211 14.8796 28.571 14.9985C28.5208 15.1173 28.495 15.245 28.495 15.374C28.495 15.503 28.5208 15.6307 28.571 15.7495C28.6211 15.8684 28.6946 15.976 28.787 16.066C28.8793 16.1562 28.9889 16.2267 29.1092 16.2732C29.2295 16.3198 29.3581 16.3415 29.487 16.337ZM22.887 44.544C25.1926 44.5433 27.4271 45.342 29.2098 46.804C30.9925 48.2661 32.2132 50.301 32.6638 52.5621C33.1145 54.8232 32.7672 57.1706 31.6812 59.2044C30.5952 61.2382 28.8376 62.8325 26.7079 63.7157C24.5782 64.5989 22.2082 64.7165 20.0016 64.0482C17.795 63.38 15.8883 61.9674 14.6064 60.051C13.3245 58.1346 12.7468 55.8331 12.9715 53.5385C13.1963 51.2439 14.2096 49.0982 15.839 47.467C16.7642 46.5407 17.8628 45.8058 19.0722 45.3042C20.2815 44.8027 21.5778 44.5443 22.887 44.544ZM28.577 48.827C29.8917 50.1427 30.7096 51.8736 30.8913 53.7247C31.073 55.5759 30.6072 57.4327 29.5733 58.9789C28.5394 60.5252 27.0014 61.6651 25.2213 62.2045C23.4413 62.7439 21.5292 62.6494 19.811 61.9372C18.0927 61.2249 16.6746 59.9389 15.7982 58.2983C14.9218 56.6577 14.6413 54.764 15.0045 52.9398C15.3678 51.1156 16.3523 49.4738 17.7904 48.294C19.2284 47.1143 21.031 46.4697 22.891 46.47C23.9473 46.4714 24.9929 46.6809 25.9682 47.0865C26.9435 47.4921 27.8293 48.0859 28.575 48.834L28.577 48.827ZM21.919 35.627V13.011H20.419C20.1636 13.012 19.919 13.1137 19.7381 13.294C19.5573 13.4743 19.4548 13.7186 19.453 13.974V36.182C19.5746 36.0117 19.7347 35.8725 19.9203 35.7759C20.1059 35.6793 20.3118 35.6279 20.521 35.626L21.919 35.627ZM21.919 73.405H20.525C20.3161 73.4053 20.1102 73.3556 19.9244 73.2601C19.7386 73.1646 19.5783 73.026 19.457 72.856V79.35C19.4581 79.6056 19.5603 79.8504 19.7413 80.0308C19.9223 80.2113 20.1674 80.3127 20.423 80.313H65.879C66.1341 80.312 66.3784 80.2101 66.5588 80.0298C66.7392 79.8494 66.8409 79.6051 66.842 79.35V78.15H24.811C24.0452 78.1471 23.3116 77.8414 22.7703 77.2996C22.2291 76.7578 21.9241 76.0238 21.922 75.258V73.405H21.919ZM69.69 21.017L57.6 10.126V20.051C57.6016 20.3062 57.7034 20.5505 57.8836 20.7313C58.0638 20.912 58.3078 21.0146 58.563 21.017H69.69Z" fill="white"/>
</g>
</g>
</svg>
