<svg width="90" height="90" viewBox="0 0 90 90" fill="none" xmlns="http://www.w3.org/2000/svg">
<mask id="mask0_1_54" style="mask-type:luminance" maskUnits="userSpaceOnUse" x="5" y="7" width="81" height="77">
<path d="M85.003 7H5V83.855H85.003V7Z" fill="white"/>
</mask>
<g mask="url(#mask0_1_54)">
<mask id="mask1_1_54" style="mask-type:luminance" maskUnits="userSpaceOnUse" x="5" y="7" width="81" height="77">
<path d="M85.003 7H5V83.855H85.003V7Z" fill="white"/>
</mask>
<g mask="url(#mask1_1_54)">
<path fill-rule="evenodd" clip-rule="evenodd" d="M13.063 69.027H67.71V24.288H21.124V62.964C21.124 63.2292 21.0187 63.4836 20.8311 63.6711C20.6436 63.8586 20.3892 63.964 20.124 63.964C19.8588 63.964 19.6044 63.8586 19.4169 63.6711C19.2294 63.4836 19.124 63.2292 19.124 62.964C19.123 61.9675 18.8764 60.9866 18.4059 60.1082C17.9355 59.2297 17.2557 58.4808 16.4269 57.9277C15.598 57.3745 14.6455 57.0343 13.6538 56.937C12.662 56.8397 11.6616 56.9884 10.741 57.37C9.82048 57.7515 9.00817 58.3541 8.376 59.1244C7.74384 59.8947 7.31131 60.809 7.11672 61.7863C6.92213 62.7636 6.97146 63.7738 7.26035 64.7275C7.54925 65.6812 8.0688 66.549 8.77301 67.254L8.81901 67.3C9.95139 68.4103 11.4751 69.0307 13.061 69.027H13.063ZM74.21 16.374L81.585 9H42.179V16.374H44.679V13.859C44.679 13.5938 44.7844 13.3394 44.9719 13.1519C45.1594 12.9644 45.4138 12.859 45.679 12.859C45.9442 12.859 46.1986 12.9644 46.3861 13.1519C46.5737 13.3394 46.679 13.5938 46.679 13.859V16.374H48.73V12.214C48.73 11.9488 48.8354 11.6944 49.0229 11.5069C49.2104 11.3194 49.4648 11.214 49.73 11.214C49.9952 11.214 50.2496 11.3194 50.4371 11.5069C50.6247 11.6944 50.73 11.9488 50.73 12.214V16.374H52.785V13.859C52.785 13.5938 52.8904 13.3394 53.0779 13.1519C53.2654 12.9644 53.5198 12.859 53.785 12.859C54.0502 12.859 54.3046 12.9644 54.4921 13.1519C54.6797 13.3394 54.785 13.5938 54.785 13.859V16.374H56.839V12.214C56.839 11.9488 56.9444 11.6944 57.1319 11.5069C57.3194 11.3194 57.5738 11.214 57.839 11.214C58.1042 11.214 58.3586 11.3194 58.5461 11.5069C58.7337 11.6944 58.839 11.9488 58.839 12.214V16.374H60.894V13.859C60.894 13.5938 60.9994 13.3394 61.1869 13.1519C61.3744 12.9644 61.6288 12.859 61.894 12.859C62.1592 12.859 62.4136 12.9644 62.6011 13.1519C62.7887 13.3394 62.894 13.5938 62.894 13.859V16.374H64.949V12.214C64.949 11.9488 65.0544 11.6944 65.2419 11.5069C65.4294 11.3194 65.6838 11.214 65.949 11.214C66.2142 11.214 66.4686 11.3194 66.6561 11.5069C66.8437 11.6944 66.949 11.9488 66.949 12.214V16.374H69V13.859C69 13.5938 69.1054 13.3394 69.2929 13.1519C69.4804 12.9644 69.7348 12.859 70 12.859C70.2652 12.859 70.5196 12.9644 70.7071 13.1519C70.8947 13.3394 71 13.5938 71 13.859V16.374H74.21ZM83 10.414V49.82H75.624V47.327H78.14C78.4052 47.327 78.6596 47.2216 78.8471 47.0341C79.0347 46.8466 79.14 46.5922 79.14 46.327C79.14 46.0618 79.0347 45.8074 78.8471 45.6199C78.6596 45.4324 78.4052 45.327 78.14 45.327H75.624V43.269H79.785C80.0502 43.269 80.3046 43.1636 80.4921 42.9761C80.6796 42.7886 80.785 42.5342 80.785 42.269C80.785 42.0038 80.6796 41.7494 80.4921 41.5619C80.3046 41.3744 80.0502 41.269 79.785 41.269H75.624V39.214H78.14C78.4052 39.214 78.6596 39.1086 78.8471 38.9211C79.0347 38.7336 79.14 38.4792 79.14 38.214C79.14 37.9488 79.0347 37.6944 78.8471 37.5069C78.6596 37.3194 78.4052 37.214 78.14 37.214H75.624V35.159H79.785C80.0502 35.159 80.3046 35.0536 80.4921 34.8661C80.6796 34.6786 80.785 34.4242 80.785 34.159C80.785 33.8938 80.6796 33.6394 80.4921 33.4519C80.3046 33.2644 80.0502 33.159 79.785 33.159H75.624V31.1H78.14C78.4052 31.1 78.6596 30.9946 78.8471 30.8071C79.0347 30.6196 79.14 30.3652 79.14 30.1C79.14 29.8348 79.0347 29.5804 78.8471 29.3929C78.6596 29.2054 78.4052 29.1 78.14 29.1H75.624V27.05H79.785C80.0502 27.05 80.3046 26.9446 80.4921 26.7571C80.6796 26.5696 80.785 26.3152 80.785 26.05C80.785 25.7848 80.6796 25.5304 80.4921 25.3429C80.3046 25.1554 80.0502 25.05 79.785 25.05H75.624V22.991H78.14C78.4052 22.991 78.6596 22.8856 78.8471 22.6981C79.0347 22.5106 79.14 22.2562 79.14 21.991C79.14 21.7258 79.0347 21.4714 78.8471 21.2839C78.6596 21.0964 78.4052 20.991 78.14 20.991H75.624V17.791L83 10.414ZM85 8V50.82C85 51.0852 84.8947 51.3396 84.7071 51.5271C84.5196 51.7146 84.2652 51.82 84 51.82H74.624C74.3588 51.82 74.1044 51.7146 73.9169 51.5271C73.7294 51.3396 73.624 51.0852 73.624 50.82V18.378H41.183C40.9178 18.378 40.6634 18.2726 40.4759 18.0851C40.2884 17.8976 40.183 17.6432 40.183 17.378V8C40.183 7.73478 40.2884 7.48043 40.4759 7.29289C40.6634 7.10536 40.9178 7 41.183 7H84H84.07C84.1666 7.00636 84.2617 7.02726 84.352 7.062L84.363 7.07H84.371L84.418 7.089L84.429 7.1L84.46 7.116L84.53 7.163L84.538 7.17L84.55 7.178L84.558 7.186L84.569 7.194L84.577 7.2L84.589 7.208L84.6 7.218L84.611 7.226L84.619 7.234L84.631 7.242L84.647 7.253L84.666 7.269L84.683 7.285L84.717 7.316L84.732 7.332L84.748 7.351L84.76 7.367L84.772 7.382L84.8 7.421L84.808 7.433L84.813 7.441L84.819 7.453L84.843 7.476L84.851 7.488L84.866 7.5L84.874 7.512L84.882 7.52L84.89 7.532L84.913 7.579L84.933 7.625L84.938 7.633V7.645C84.9705 7.73668 84.9914 7.8321 85 7.929V7.957V8ZM28.632 79.542L33.332 81.628V77.456L28.632 79.542ZM33.1 83.714L26.976 81C26.6936 80.8772 26.4541 80.6733 26.288 80.414C26.1212 80.1551 26.0321 79.8539 26.031 79.546C26.0297 79.2393 26.1191 78.939 26.288 78.683C26.4367 78.4556 26.6412 78.27 26.882 78.144L26.976 78.097L33.1 75.374C33.3395 75.2652 33.6029 75.2198 33.865 75.242C33.9346 75.2478 34.0038 75.2582 34.072 75.273C34.1548 75.2506 34.2403 75.2402 34.326 75.242H64.39C64.422 75.242 64.453 75.242 64.484 75.242H66.168C66.7393 75.2333 67.3067 75.3383 67.837 75.5509C68.3674 75.7635 68.8502 76.0795 69.2573 76.4805C69.6644 76.8814 69.9877 77.3593 70.2083 77.8864C70.429 78.4134 70.5426 78.9791 70.5426 79.5505C70.5426 80.1219 70.429 80.6876 70.2083 81.2146C69.9877 81.7417 69.6644 82.2196 69.2573 82.6205C68.8502 83.0215 68.3674 83.3375 67.837 83.5501C67.3067 83.7627 66.7393 83.8677 66.168 83.859H64.457H34.332C34.2435 83.8592 34.1554 83.8474 34.07 83.824C34.0039 83.8378 33.9372 83.8481 33.87 83.855C33.6057 83.8713 33.3414 83.8229 33.1 83.714ZM67.8 81.175C68.1227 80.852 68.3424 80.4406 68.4314 79.9928C68.5203 79.545 68.4745 79.0809 68.2997 78.6591C68.1249 78.2373 67.8291 77.8768 67.4495 77.6232C67.0698 77.3695 66.6236 77.2341 66.167 77.234H65.483V81.851H66.167C66.7792 81.8499 67.3662 81.607 67.8 81.175ZM35.331 81.847H63.483V77.23H35.331V81.847ZM33.612 48.011C33.8772 48.011 34.1316 48.1164 34.3191 48.3039C34.5067 48.4914 34.612 48.7458 34.612 49.011C34.612 49.2762 34.5067 49.5306 34.3191 49.7181C34.1316 49.9056 33.8772 50.011 33.612 50.011H30.917V60.245H41.147V50.011H38.447C38.1818 50.011 37.9274 49.9056 37.7399 49.7181C37.5524 49.5306 37.447 49.2762 37.447 49.011C37.447 48.7458 37.5524 48.4914 37.7399 48.3039C37.9274 48.1164 38.1818 48.011 38.447 48.011H42.147C42.4122 48.011 42.6666 48.1164 42.8541 48.3039C43.0417 48.4914 43.147 48.7458 43.147 49.011V60.245H46.389C46.6542 60.245 46.9086 60.3504 47.0961 60.5379C47.2837 60.7254 47.389 60.9798 47.389 61.245C47.389 61.5102 47.2837 61.7646 47.0961 61.9521C46.9086 62.1396 46.6542 62.245 46.389 62.245H29.912C29.6468 62.245 29.3924 62.1396 29.2049 61.9521C29.0174 61.7646 28.912 61.5102 28.912 61.245V32.069C28.912 31.8038 29.0174 31.5494 29.2049 31.3619C29.3924 31.1744 29.6468 31.069 29.912 31.069H60.346C60.6112 31.069 60.8656 31.1744 61.0531 31.3619C61.2407 31.5494 61.346 31.8038 61.346 32.069V43.233C61.346 43.4982 61.2407 43.7526 61.0531 43.9401C60.8656 44.1276 60.6112 44.233 60.346 44.233H57.076V61.249C57.076 61.5142 56.9707 61.7686 56.7831 61.9561C56.5956 62.1436 56.3412 62.249 56.076 62.249H51.221C50.9558 62.249 50.7014 62.1436 50.5139 61.9561C50.3264 61.7686 50.221 61.5142 50.221 61.249C50.221 60.9838 50.3264 60.7294 50.5139 60.5419C50.7014 60.3544 50.9558 60.249 51.221 60.249H55.076V44.229H46.408C46.1428 44.229 45.8884 44.1236 45.7009 43.9361C45.5134 43.7486 45.408 43.4942 45.408 43.229V40.065C45.408 39.7998 45.5134 39.5454 45.7009 39.3579C45.8884 39.1704 46.1428 39.065 46.408 39.065C46.6732 39.065 46.9276 39.1704 47.1151 39.3579C47.3027 39.5454 47.408 39.7998 47.408 40.065V42.229H59.346V33.065H47.408V35.229C47.408 35.4942 47.3027 35.7486 47.1151 35.9361C46.9276 36.1236 46.6732 36.229 46.408 36.229C46.1428 36.229 45.8884 36.1236 45.7009 35.9361C45.5134 35.7486 45.408 35.4942 45.408 35.229V33.065H30.908V48.014L33.612 48.011ZM21.124 22.288H68.71C68.8413 22.288 68.9714 22.3139 69.0927 22.3641C69.214 22.4144 69.3243 22.488 69.4171 22.5809C69.51 22.6738 69.5836 22.784 69.6339 22.9053C69.6841 23.0266 69.71 23.1567 69.71 23.288V70.026C69.71 70.1573 69.6841 70.2874 69.6339 70.4087C69.5836 70.53 69.51 70.6402 69.4171 70.7331C69.3243 70.826 69.214 70.8996 69.0927 70.9499C68.9714 71.0001 68.8413 71.026 68.71 71.026H13.063C10.9513 71.0266 8.92393 70.1974 7.41801 68.717L7.35901 68.663C6.60991 67.915 6.0159 67.0264 5.61108 66.0482C5.20626 65.0701 4.9986 64.0216 5.00001 62.963V19.753C4.9983 18.6944 5.20573 17.6459 5.61039 16.6678C6.01505 15.6896 6.60896 14.801 7.35801 14.053L7.36601 14.045C8.87724 12.5346 10.9264 11.6861 13.063 11.6861C15.1996 11.6861 17.2488 12.5346 18.76 14.045C19.5089 14.7932 20.1028 15.6818 20.5078 16.6599C20.9128 17.638 21.1208 18.6864 21.12 19.745L21.124 22.288ZM7.00001 57.651V19.751C7.00001 18.1433 7.63868 16.6014 8.77553 15.4645C9.91237 14.3277 11.4543 13.689 13.062 13.689C14.6698 13.689 16.2116 14.3277 17.3485 15.4645C18.4853 16.6014 19.124 18.1433 19.124 19.751V57.659C19.007 57.526 18.886 57.397 18.765 57.276C18.0165 56.5273 17.1279 55.9335 16.1499 55.5283C15.1719 55.1231 14.1236 54.9146 13.065 54.9146C12.0064 54.9146 10.9581 55.1231 9.98011 55.5283C9.0021 55.9335 8.11348 56.5273 7.36501 57.276H7.35401C7.23701 57.393 7.11601 57.518 7.00001 57.651Z" fill="white"/>
</g>
</g>
</svg>
