<svg width="90" height="90" viewBox="0 0 90 90" fill="none" xmlns="http://www.w3.org/2000/svg">
<mask id="mask0_1_74" style="mask-type:luminance" maskUnits="userSpaceOnUse" x="1" y="9" width="89" height="72">
<path d="M90 9H1V80.4H90V9Z" fill="white"/>
</mask>
<g mask="url(#mask0_1_74)">
<mask id="mask1_1_74" style="mask-type:luminance" maskUnits="userSpaceOnUse" x="1" y="9" width="89" height="72">
<path d="M90 9H1V80.4H90V9Z" fill="white"/>
</mask>
<g mask="url(#mask1_1_74)">
<path d="M31.414 68.382H41.979C42.2442 68.382 42.4986 68.2766 42.6861 68.0891C42.8736 67.9016 42.979 67.6472 42.979 67.382V57.232C42.979 56.9668 42.8736 56.7124 42.6861 56.5249C42.4986 56.3374 42.2442 56.232 41.979 56.232H31.414C31.1488 56.232 30.8944 56.3374 30.7069 56.5249C30.5194 56.7124 30.414 56.9668 30.414 57.232V67.382C30.414 67.6472 30.5194 67.9016 30.7069 68.0891C30.8944 68.2766 31.1488 68.382 31.414 68.382ZM32.414 58.232H40.979V66.382H32.414V58.232Z" fill="white"/>
<path d="M2 80.4H89C89.2652 80.4 89.5196 80.2946 89.7071 80.1071C89.8946 79.9196 90 79.6652 90 79.4C90 79.1348 89.8946 78.8804 89.7071 78.6929C89.5196 78.5054 89.2652 78.4 89 78.4H82.75V55.785C82.75 55.5198 82.6446 55.2654 82.4571 55.0779C82.2696 54.8904 82.0152 54.785 81.75 54.785H76.536V34.67C76.536 34.4048 76.4306 34.1504 76.2431 33.9629C76.0556 33.7754 75.8012 33.67 75.536 33.67H64.971C64.7058 33.67 64.4514 33.7754 64.2639 33.9629C64.0764 34.1504 63.971 34.4048 63.971 34.67V44.632H56.65V23.261C56.65 22.9958 56.5446 22.7414 56.3571 22.5539C56.1696 22.3664 55.9152 22.261 55.65 22.261H48.986V11H63.764V28.557C63.764 28.8222 63.8694 29.0766 64.0569 29.2641C64.2444 29.4516 64.4988 29.557 64.764 29.557C65.0292 29.557 65.2836 29.4516 65.4711 29.2641C65.6586 29.0766 65.764 28.8222 65.764 28.557V10C65.764 9.73478 65.6586 9.48043 65.4711 9.29289C65.2836 9.10536 65.0292 9 64.764 9H47.986C47.7208 9 47.4664 9.10536 47.2789 9.29289C47.0914 9.48043 46.986 9.73478 46.986 10V22.261H39.079C38.8138 22.261 38.5594 22.3664 38.3719 22.5539C38.1844 22.7414 38.079 22.9958 38.079 23.261V31.546C38.079 31.8112 38.1844 32.0656 38.3719 32.2531C38.5594 32.4406 38.8138 32.546 39.079 32.546C39.3442 32.546 39.5986 32.4406 39.7861 32.2531C39.9736 32.0656 40.079 31.8112 40.079 31.546V24.261H54.65V45.632C54.65 45.8972 54.7554 46.1516 54.9429 46.3391C55.1304 46.5266 55.3848 46.632 55.65 46.632H64.971C65.1023 46.632 65.2324 46.6061 65.3537 46.5559C65.475 46.5056 65.5852 46.432 65.6781 46.3391C65.771 46.2462 65.8446 46.136 65.8949 46.0147C65.9451 45.8934 65.971 45.7633 65.971 45.632V35.67H74.536V55.785C74.536 56.0502 74.6414 56.3046 74.8289 56.4921C75.0164 56.6796 75.2708 56.785 75.536 56.785H80.75V78.4H46.707V52.018H50.679C50.9442 52.018 51.1986 51.9126 51.3861 51.7251C51.5736 51.5376 51.679 51.2832 51.679 51.018V46.875C51.679 46.7308 51.6478 46.5883 51.5876 46.4573C51.5273 46.3263 51.4395 46.2099 51.33 46.116L28.129 26.23C28.095 26.2071 28.0592 26.187 28.022 26.17C27.9673 26.1307 27.9086 26.0972 27.847 26.07C27.7278 26.0272 27.6026 26.0036 27.476 26C27.4154 26.0009 27.3551 26.008 27.296 26.021C27.2309 26.0313 27.1672 26.0487 27.106 26.073C27.0468 26.0988 26.9902 26.1303 26.937 26.167C26.8993 26.1851 26.8628 26.2058 26.828 26.229L17.707 34.047V24.711C17.707 24.4458 17.6016 24.1914 17.4141 24.0039C17.2266 23.8164 16.9722 23.711 16.707 23.711H8.836C8.57078 23.711 8.31643 23.8164 8.12889 24.0039C7.94136 24.1914 7.836 24.4458 7.836 24.711V42.511L3.628 46.111C3.51855 46.2049 3.43069 46.3213 3.37045 46.4523C3.31021 46.5833 3.27901 46.7258 3.279 46.87V51.013C3.279 51.2782 3.38436 51.5326 3.57189 51.7201C3.75943 51.9076 4.01378 52.013 4.279 52.013H8.25V78.4H2C1.73478 78.4 1.48043 78.5054 1.29289 78.6929C1.10536 78.8804 1 79.1348 1 79.4C1 79.6652 1.10536 79.9196 1.29289 80.1071C1.48043 80.2946 1.73478 80.4 2 80.4ZM17.707 61.857H25.339V78.4H17.707V61.857ZM9.836 25.711H15.707V35.762L9.836 40.794V25.711ZM5.279 47.335L27.479 28.306L49.679 47.335V50.018H5.279V47.335ZM27.479 52.018H44.707V78.4H27.339V60.857C27.339 60.5918 27.2336 60.3374 27.0461 60.1499C26.8586 59.9624 26.6042 59.857 26.339 59.857H16.707C16.4418 59.857 16.1874 59.9624 15.9999 60.1499C15.8124 60.3374 15.707 60.5918 15.707 60.857V78.4H10.25V52.018H27.479Z" fill="white"/>
</g>
</g>
</svg>
