<svg width="90" height="90" viewBox="0 0 90 90" fill="none" xmlns="http://www.w3.org/2000/svg">
<mask id="mask0_1_64" style="mask-type:luminance" maskUnits="userSpaceOnUse" x="9" y="11" width="73" height="69">
<path d="M81.003 11H9V79.827H81.003V11Z" fill="white"/>
</mask>
<g mask="url(#mask0_1_64)">
<mask id="mask1_1_64" style="mask-type:luminance" maskUnits="userSpaceOnUse" x="9" y="11" width="73" height="69">
<path d="M81.003 11H9V79.827H81.003V11Z" fill="white"/>
</mask>
<g mask="url(#mask1_1_64)">
<path fill-rule="evenodd" clip-rule="evenodd" d="M27.515 67.528L12.429 62.128L18.483 71.554L33.628 76.906L27.515 67.528ZM57.8 74.5L42.316 68.165L36.98 79.235C36.8776 79.4635 36.6931 79.6452 36.4632 79.7443C36.2332 79.8433 35.9744 79.8525 35.738 79.77L17.5 73.324C17.2903 73.252 17.1112 73.111 16.992 72.924L9.19103 60.785C9.0957 60.6536 9.03378 60.5011 9.01061 60.3404C8.98744 60.1798 9.00371 60.0159 9.05803 59.863C9.07357 59.8169 9.09332 59.7724 9.11703 59.73L34.738 11.531C34.8457 11.328 35.02 11.1682 35.2316 11.0786C35.4433 10.989 35.6793 10.975 35.9 11.039L53.117 14.6H53.128H53.136H53.152H53.16H53.179L53.199 14.608L53.292 14.639L53.331 14.655L53.351 14.663L53.37 14.671L53.386 14.679L53.401 14.687L53.417 14.695L53.432 14.703L53.448 14.714L53.467 14.73L53.483 14.742L53.491 14.757C53.5099 14.7717 53.5279 14.7874 53.545 14.804L53.561 14.816L53.596 14.851C53.6127 14.8685 53.6284 14.8868 53.643 14.906L53.674 14.945L53.721 15.007L61.526 26.987C61.6296 27.1333 61.6922 27.3047 61.7073 27.4833C61.7224 27.6619 61.6895 27.8413 61.612 28.003L55.371 41.082L80.219 48.422C80.4411 48.4718 80.6395 48.5959 80.7814 48.7737C80.9234 48.9515 81.0005 49.1725 81 49.4V66.742C81.0002 66.9612 80.9284 67.1743 80.7956 67.3487C80.6628 67.523 80.4764 67.6489 80.265 67.707L58.565 74.566C58.3126 74.6456 58.039 74.6218 57.804 74.5H57.8ZM43.183 66.368L57.269 72.129V56.929L49.369 53.529L43.183 66.368ZM59.269 57V72.246L79 66.012V50.762L59.269 57ZM47.964 51.848L35.937 76.8L29.308 66.629L53.058 17.606L59.616 27.672L48.016 51.746C48.001 51.777 47.985 51.805 47.973 51.836L47.964 51.848ZM50.237 51.727L58.319 55.2L76.585 49.43L54.487 42.9L50.237 51.727ZM11.428 59.649L36.158 13.129L51.47 16.3L27.658 65.453L11.428 59.649Z" fill="white"/>
</g>
</g>
</svg>
