<svg width="90" height="90" viewBox="0 0 90 90" fill="none" xmlns="http://www.w3.org/2000/svg">
<mask id="mask0_1_2" style="mask-type:luminance" maskUnits="userSpaceOnUse" x="9" y="0" width="73" height="90">
<path d="M81.098 0H9V90H81.098V0Z" fill="white"/>
</mask>
<g mask="url(#mask0_1_2)">
<mask id="mask1_1_2" style="mask-type:luminance" maskUnits="userSpaceOnUse" x="9" y="0" width="73" height="90">
<path d="M81.098 0H9V90H81.098V0Z" fill="white"/>
</mask>
<g mask="url(#mask1_1_2)">
<path d="M49.817 28.909L46.574 20.742C46.4367 20.397 46.199 20.1012 45.8918 19.8928C45.5845 19.6844 45.2218 19.573 44.8505 19.573C44.4792 19.573 44.1165 19.6844 43.8092 19.8928C43.502 20.1012 43.2643 20.397 43.127 20.742L39.884 28.909L31.114 29.47C30.7436 29.4938 30.3888 29.6282 30.0956 29.856C29.8024 30.0837 29.5844 30.3941 29.4696 30.7472C29.3549 31.1002 29.3488 31.4795 29.4521 31.8361C29.5554 32.1926 29.7633 32.51 30.049 32.747L36.813 38.356L34.638 46.87C34.5448 47.2301 34.5621 47.6098 34.6876 47.9599C34.8131 48.31 35.0409 48.6143 35.3416 48.8332C35.6422 49.0521 36.0018 49.1756 36.3735 49.1875C36.7452 49.1994 37.1119 49.0992 37.426 48.9L44.849 44.2L52.273 48.9C52.5868 49.0987 52.9529 49.1986 53.3241 49.1867C53.6953 49.1748 54.0544 49.0518 54.3548 48.8335C54.6552 48.6151 54.8831 48.3116 55.0091 47.9623C55.135 47.6129 55.1531 47.2338 55.061 46.874L52.884 38.361L59.649 32.747C59.9347 32.51 60.1426 32.1926 60.2459 31.8361C60.3492 31.4795 60.3431 31.1002 60.2284 30.7472C60.1136 30.3941 59.8956 30.0837 59.6024 29.856C59.3092 29.6282 58.9544 29.4938 58.584 29.47L49.817 28.909ZM49.617 36.251C49.346 36.4746 49.1442 36.7706 49.0349 37.1045C48.9257 37.4384 48.9136 37.7965 49 38.137L50.311 43.265L45.839 40.434C45.5423 40.2464 45.1985 40.1468 44.8475 40.1468C44.4965 40.1468 44.1527 40.2464 43.856 40.434L39.384 43.265L40.694 38.137C40.7814 37.797 40.7702 37.4391 40.6618 37.1051C40.5535 36.7712 40.3524 36.475 40.082 36.251L36.007 32.872L41.289 32.534C41.6385 32.5109 41.9744 32.3892 42.2576 32.183C42.5408 31.9768 42.7597 31.6946 42.889 31.369L44.843 26.449L46.796 31.369C46.9253 31.6946 47.1442 31.9768 47.4274 32.183C47.7106 32.3892 48.0465 32.5109 48.396 32.534L53.678 32.872L49.617 36.251ZM78.805 30.106C78.1654 29.1991 77.6508 28.2102 77.275 27.166C77.0618 26.0617 77.0063 24.9328 77.11 23.813C77.181 21.887 77.261 19.704 76.175 17.852C75.089 16 73.149 15.01 71.442 14.141C70.4432 13.703 69.5129 13.123 68.68 12.419C67.9753 11.586 67.3949 10.6554 66.957 9.656C66.088 7.948 65.103 6.012 63.246 4.924C61.389 3.836 59.212 3.924 57.285 3.989C56.1655 4.09279 55.0369 4.03723 53.933 3.824C52.8884 3.44906 51.8994 2.93439 50.993 2.294C49.282 1.219 47.349 0 45.049 0C42.749 0 40.815 1.219 39.1 2.3C38.1933 2.93968 37.2044 3.45399 36.16 3.829C35.0561 4.04207 33.9276 4.09796 32.808 3.995C30.882 3.924 28.699 3.844 26.847 4.929C24.995 6.014 24.01 7.953 23.141 9.661C22.7023 10.66 22.122 11.5905 21.418 12.424C20.5847 13.1281 19.6541 13.708 18.655 14.146C16.947 15.016 15.011 16.001 13.923 17.857C12.835 19.713 12.923 21.893 12.989 23.819C13.092 24.9386 13.0361 26.0671 12.823 27.171C12.448 28.2154 11.9337 29.2043 11.294 30.111C10.218 31.821 9 33.76 9 36.055C9 38.35 10.219 40.289 11.294 42C11.9336 42.9069 12.4482 43.8958 12.824 44.94C13.0372 46.0439 13.0928 47.1725 12.989 48.292C12.918 50.218 12.838 52.401 13.924 54.253C15.01 56.105 16.947 57.095 18.656 57.964C19.655 58.402 20.5853 58.9824 21.418 59.687C21.7989 60.094 22.1262 60.548 22.392 61.038L14.174 81.215C14.0283 81.5718 13.9975 81.9651 14.0858 82.3403C14.1742 82.7154 14.3773 83.0537 14.6669 83.308C14.9565 83.5622 15.3182 83.7199 15.7016 83.759C16.085 83.7981 16.471 83.7166 16.806 83.526L26.365 78.1L29.416 88.66C29.5224 89.0308 29.7418 89.3592 30.0437 89.5993C30.3455 89.8395 30.7148 89.9796 31.1 90H31.2C31.5684 89.9999 31.9285 89.89 32.2342 89.6842C32.5398 89.4785 32.7772 89.1863 32.916 88.845L40.357 70.571C41.7554 71.4927 43.3761 72.0208 45.049 72.1C46.7226 72.022 48.3442 71.4941 49.743 70.572L57.184 88.846C57.3229 89.1871 57.5604 89.4791 57.866 89.6846C58.1717 89.8902 58.5317 90 58.9 90H59C59.3849 89.9799 59.7539 89.8404 60.0558 89.6007C60.3576 89.3611 60.5772 89.0333 60.684 88.663L63.734 78.103L73.294 83.529C73.6291 83.7192 74.0151 83.8002 74.3984 83.7608C74.7816 83.7215 75.1431 83.5637 75.4326 83.3095C75.7221 83.0552 75.9251 82.717 76.0135 82.342C76.102 81.967 76.0714 81.5738 75.926 81.217L67.706 61.033C67.9712 60.5421 68.2986 60.0873 68.68 59.68C69.5133 58.9759 70.4439 58.396 71.443 57.958C73.151 57.089 75.087 56.104 76.175 54.247C77.263 52.39 77.175 50.212 77.109 48.286C77.006 47.1664 77.0619 46.0379 77.275 44.934C77.6496 43.8895 78.1639 42.9005 78.804 41.994C79.88 40.283 81.098 38.344 81.098 36.05C81.098 33.756 79.88 31.816 78.805 30.106ZM31.5 82.5L29.281 74.816C29.2138 74.5819 29.1011 74.3633 28.9493 74.1727C28.7976 73.9822 28.6098 73.8234 28.3967 73.7054C28.1835 73.5875 27.9492 73.5127 27.7072 73.4853C27.4651 73.458 27.2201 73.4786 26.986 73.546C26.8446 73.5861 26.7086 73.6432 26.581 73.716L19.62 77.665L24.71 65.165C25.2751 65.977 26.0037 66.662 26.849 67.176C28.701 68.261 30.884 68.176 32.81 68.11C33.9295 68.0067 35.058 68.0623 36.162 68.275C36.4949 68.3719 36.8183 68.4991 37.128 68.655L31.5 82.5ZM63.523 73.718C63.3113 73.5975 63.0778 73.5199 62.8361 73.4896C62.5943 73.4593 62.349 73.4769 62.114 73.5414C61.8791 73.606 61.6592 73.7161 61.4668 73.8657C61.2745 74.0152 61.1135 74.2012 60.993 74.413C60.9214 74.5395 60.8643 74.6737 60.823 74.813L58.6 82.5L52.966 68.655C53.2761 68.4991 53.5998 68.3719 53.933 68.275C55.0373 68.0618 56.1662 68.0063 57.286 68.11C59.212 68.181 61.394 68.261 63.246 67.175C64.0917 66.661 64.8201 65.9752 65.384 65.162L70.475 77.662L63.523 73.718ZM75.67 40.018C74.825 41.2255 74.1613 42.5502 73.7 43.95C73.3721 45.4162 73.2709 46.9241 73.4 48.421C73.457 49.98 73.511 51.452 72.972 52.373C72.433 53.294 71.133 53.953 69.757 54.653C68.4046 55.2551 67.1559 56.0671 66.057 57.059C65.235 57.9391 64.5518 58.9392 64.031 60.025L64.015 60.056C63.892 60.291 63.771 60.527 63.652 60.762C62.952 62.138 62.29 63.438 61.371 63.976C60.452 64.514 58.978 64.461 57.42 64.405C55.9231 64.2759 54.4152 64.3771 52.949 64.705C51.5501 65.1652 50.2261 65.8275 49.019 66.671C47.607 67.558 46.274 68.396 45.048 68.396C43.822 68.396 42.489 67.558 41.078 66.671C39.8714 65.826 38.5478 65.1619 37.149 64.7C36.1917 64.458 35.2062 64.346 34.219 64.367C33.702 64.367 33.186 64.386 32.677 64.405C31.119 64.462 29.647 64.516 28.726 63.976C27.805 63.436 27.146 62.138 26.446 60.762C26.326 60.527 26.204 60.29 26.081 60.054L26.066 60.025C25.5452 58.9392 24.862 57.9391 24.04 57.059C22.9409 56.069 21.6921 55.259 20.34 54.659C18.964 53.959 17.664 53.297 17.126 52.378C16.588 51.459 16.64 49.985 16.7 48.427C16.8292 46.9298 16.728 45.4216 16.4 43.955C15.9397 42.5565 15.2774 41.2328 14.434 40.026C13.547 38.614 12.708 37.281 12.708 36.055C12.708 34.829 13.546 33.496 14.434 32.084C15.2775 30.8769 15.9398 29.5529 16.4 28.154C16.7279 26.6878 16.8291 25.1799 16.7 23.683C16.643 22.125 16.589 20.653 17.128 19.732C17.667 18.811 18.967 18.151 20.343 17.451C21.6951 16.8489 22.9438 16.0372 24.043 15.046C25.0324 13.9464 25.8424 12.6978 26.443 11.346C27.143 9.969 27.805 8.67 28.724 8.131C29.643 7.592 31.117 7.646 32.675 7.703C34.1722 7.83257 35.6805 7.73139 37.147 7.403C38.5455 6.94303 39.8691 6.28102 41.076 5.438C42.488 4.546 43.821 3.708 45.047 3.708C46.273 3.708 47.606 4.546 49.017 5.433C50.2245 6.27728 51.5493 6.94 52.949 7.4C54.4155 7.72839 55.9238 7.82957 57.421 7.7C58.979 7.642 60.451 7.589 61.372 8.128C62.293 8.667 62.949 9.961 63.649 11.338C64.2511 12.6901 65.0628 13.9388 66.054 15.038C67.1532 16.0292 68.4019 16.8409 69.754 17.443C71.13 18.143 72.43 18.804 72.968 19.723C73.506 20.642 73.454 22.116 73.397 23.674C73.2679 25.1712 73.3691 26.6794 73.697 28.146C74.1572 29.5449 74.8195 30.8689 75.663 32.076C76.551 33.487 77.389 34.821 77.389 36.047C77.389 37.273 76.549 38.609 75.665 40.02M45.049 11.876C40.2678 11.876 35.594 13.2938 31.6186 15.9501C27.6433 18.6063 24.5448 22.3818 22.7151 26.799C20.8855 31.2162 20.4067 36.0768 21.3395 40.7661C22.2723 45.4554 24.5746 49.7628 27.9554 53.1436C31.3362 56.5244 35.6436 58.8267 40.3329 59.7595C45.0222 60.6923 49.8828 60.2135 54.3 58.3839C58.7172 56.5542 62.4927 53.4557 65.1489 49.4804C67.8052 45.505 69.223 40.8312 69.223 36.05C69.223 29.6387 66.6761 23.4899 62.1426 18.9564C57.6091 14.4229 51.4603 11.876 45.049 11.876ZM45.049 56.516C41.0012 56.516 37.0443 55.3157 33.6787 53.0669C30.3131 50.818 27.6899 47.6217 26.1409 43.882C24.5919 40.1423 24.1866 36.0273 24.9762 32.0573C25.7659 28.0873 27.7151 24.4406 30.5774 21.5784C33.4396 18.7161 37.0863 16.7669 41.0563 15.9772C45.0263 15.1876 49.1413 15.5929 52.881 17.1419C56.6207 18.6909 59.817 21.3141 62.0659 24.6797C64.3147 28.0453 65.515 32.0022 65.515 36.05C65.515 38.7376 64.9856 41.399 63.9571 43.882C62.9286 46.365 61.4211 48.6212 59.5206 50.5216C57.6202 52.4221 55.364 53.9296 52.881 54.9581C50.398 55.9866 47.7366 56.516 45.049 56.516Z" fill="white"/>
<path d="M75.67 40.018C74.825 41.2255 74.1613 42.5502 73.7 43.95C73.3721 45.4162 73.2709 46.9241 73.4 48.421C73.457 49.98 73.511 51.452 72.972 52.373C72.433 53.294 71.133 53.953 69.757 54.653C68.4046 55.2551 67.1559 56.0671 66.057 57.059C65.235 57.9391 64.5518 58.9392 64.031 60.025L64.015 60.056C63.892 60.291 63.771 60.527 63.652 60.762C62.952 62.138 62.29 63.438 61.371 63.976C60.452 64.514 58.978 64.461 57.42 64.405C55.9231 64.2759 54.4152 64.3771 52.949 64.705C51.5501 65.1652 50.2261 65.8275 49.019 66.671C47.607 67.558 46.274 68.396 45.048 68.396C43.822 68.396 42.489 67.558 41.078 66.671C39.8714 65.826 38.5478 65.1619 37.149 64.7C36.1917 64.458 35.2062 64.346 34.219 64.367C33.702 64.367 33.186 64.386 32.677 64.405C31.119 64.462 29.647 64.516 28.726 63.976C27.805 63.436 27.146 62.138 26.446 60.762C26.326 60.527 26.204 60.29 26.081 60.054L26.066 60.025C25.5452 58.9392 24.862 57.9391 24.04 57.059C22.9409 56.069 21.6921 55.259 20.34 54.659C18.964 53.959 17.664 53.297 17.126 52.378C16.588 51.459 16.64 49.985 16.7 48.427C16.8292 46.9298 16.728 45.4216 16.4 43.955C15.9397 42.5565 15.2774 41.2328 14.434 40.026C13.547 38.614 12.708 37.281 12.708 36.055C12.708 34.829 13.546 33.496 14.434 32.084C15.2775 30.8769 15.9398 29.5529 16.4 28.154C16.7279 26.6878 16.8291 25.1799 16.7 23.683C16.643 22.125 16.589 20.653 17.128 19.732C17.667 18.811 18.967 18.151 20.343 17.451C21.6951 16.8489 22.9438 16.0372 24.043 15.046C25.0324 13.9464 25.8424 12.6978 26.443 11.346C27.143 9.969 27.805 8.67 28.724 8.131C29.643 7.592 31.117 7.646 32.675 7.703C34.1722 7.83257 35.6805 7.73139 37.147 7.403C38.5455 6.94303 39.8691 6.28102 41.076 5.438C42.488 4.546 43.821 3.708 45.047 3.708C46.273 3.708 47.606 4.546 49.017 5.433C50.2245 6.27728 51.5493 6.94 52.949 7.4C54.4155 7.72839 55.9238 7.82957 57.421 7.7C58.979 7.642 60.451 7.589 61.372 8.128C62.293 8.667 62.949 9.961 63.649 11.338C64.2511 12.6901 65.0628 13.9388 66.054 15.038C67.1532 16.0292 68.4019 16.8409 69.754 17.443C71.13 18.143 72.43 18.804 72.968 19.723C73.506 20.642 73.454 22.116 73.397 23.674C73.2679 25.1712 73.3691 26.6794 73.697 28.146C74.1572 29.5449 74.8195 30.8689 75.663 32.076C76.551 33.487 77.389 34.821 77.389 36.047C77.389 37.273 76.549 38.609 75.665 40.02M49.817 28.909L46.574 20.742C46.4367 20.397 46.199 20.1012 45.8918 19.8928C45.5845 19.6844 45.2218 19.573 44.8505 19.573C44.4792 19.573 44.1165 19.6844 43.8092 19.8928C43.502 20.1012 43.2643 20.397 43.127 20.742L39.884 28.909L31.114 29.47C30.7436 29.4938 30.3888 29.6282 30.0956 29.856C29.8024 30.0837 29.5844 30.3941 29.4696 30.7472C29.3549 31.1002 29.3488 31.4795 29.4521 31.8361C29.5554 32.1926 29.7633 32.51 30.049 32.747L36.813 38.356L34.638 46.87C34.5448 47.2301 34.5621 47.6098 34.6876 47.9599C34.8131 48.31 35.0409 48.6143 35.3416 48.8332C35.6422 49.0521 36.0018 49.1756 36.3735 49.1875C36.7452 49.1994 37.1119 49.0992 37.426 48.9L44.849 44.2L52.273 48.9C52.5868 49.0987 52.9529 49.1986 53.3241 49.1867C53.6953 49.1748 54.0544 49.0518 54.3548 48.8335C54.6552 48.6151 54.8831 48.3116 55.0091 47.9623C55.135 47.6129 55.1531 47.2338 55.061 46.874L52.884 38.361L59.649 32.747C59.9347 32.51 60.1426 32.1926 60.2459 31.8361C60.3492 31.4795 60.3431 31.1002 60.2284 30.7472C60.1136 30.3941 59.8956 30.0837 59.6024 29.856C59.3092 29.6282 58.9544 29.4938 58.584 29.47L49.817 28.909ZM49.617 36.251C49.346 36.4746 49.1442 36.7706 49.0349 37.1045C48.9257 37.4384 48.9136 37.7965 49 38.137L50.311 43.265L45.839 40.434C45.5423 40.2464 45.1985 40.1468 44.8475 40.1468C44.4965 40.1468 44.1527 40.2464 43.856 40.434L39.384 43.265L40.694 38.137C40.7814 37.797 40.7702 37.4391 40.6618 37.1051C40.5535 36.7712 40.3524 36.475 40.082 36.251L36.007 32.872L41.289 32.534C41.6385 32.5109 41.9744 32.3892 42.2576 32.183C42.5408 31.9768 42.7597 31.6946 42.889 31.369L44.843 26.449L46.796 31.369C46.9253 31.6946 47.1442 31.9768 47.4274 32.183C47.7106 32.3892 48.0465 32.5109 48.396 32.534L53.678 32.872L49.617 36.251ZM78.805 30.106C78.1654 29.1991 77.6508 28.2102 77.275 27.166C77.0618 26.0617 77.0063 24.9328 77.11 23.813C77.181 21.887 77.261 19.704 76.175 17.852C75.089 16 73.149 15.01 71.442 14.141C70.4432 13.703 69.5129 13.123 68.68 12.419C67.9753 11.586 67.3949 10.6554 66.957 9.656C66.088 7.948 65.103 6.012 63.246 4.924C61.389 3.836 59.212 3.924 57.285 3.989C56.1655 4.09279 55.0369 4.03723 53.933 3.824C52.8884 3.44906 51.8994 2.93439 50.993 2.294C49.282 1.219 47.349 0 45.049 0C42.749 0 40.815 1.219 39.1 2.3C38.1933 2.93968 37.2044 3.45399 36.16 3.829C35.0561 4.04207 33.9276 4.09796 32.808 3.995C30.882 3.924 28.699 3.844 26.847 4.929C24.995 6.014 24.01 7.953 23.141 9.661C22.7023 10.66 22.122 11.5905 21.418 12.424C20.5847 13.1281 19.6541 13.708 18.655 14.146C16.947 15.016 15.011 16.001 13.923 17.857C12.835 19.713 12.923 21.893 12.989 23.819C13.092 24.9386 13.0361 26.0671 12.823 27.171C12.448 28.2154 11.9337 29.2043 11.294 30.111C10.218 31.821 9 33.76 9 36.055C9 38.35 10.219 40.289 11.294 42C11.9336 42.9069 12.4482 43.8958 12.824 44.94C13.0372 46.0439 13.0928 47.1725 12.989 48.292C12.918 50.218 12.838 52.401 13.924 54.253C15.01 56.105 16.947 57.095 18.656 57.964C19.655 58.402 20.5853 58.9824 21.418 59.687C21.7989 60.094 22.1262 60.548 22.392 61.038L14.174 81.215C14.0283 81.5718 13.9975 81.9651 14.0858 82.3403C14.1742 82.7154 14.3773 83.0537 14.6669 83.308C14.9565 83.5622 15.3182 83.7199 15.7016 83.759C16.085 83.7981 16.471 83.7166 16.806 83.526L26.365 78.1L29.416 88.66C29.5224 89.0308 29.7418 89.3592 30.0437 89.5993C30.3455 89.8395 30.7148 89.9796 31.1 90H31.2C31.5684 89.9999 31.9285 89.89 32.2342 89.6842C32.5398 89.4785 32.7772 89.1863 32.916 88.845L40.357 70.571C41.7554 71.4927 43.3761 72.0208 45.049 72.1C46.7226 72.022 48.3442 71.4941 49.743 70.572L57.184 88.846C57.3229 89.1871 57.5604 89.4791 57.866 89.6846C58.1717 89.8902 58.5317 90 58.9 90H59C59.3849 89.9799 59.7539 89.8404 60.0558 89.6007C60.3576 89.3611 60.5772 89.0333 60.684 88.663L63.734 78.103L73.294 83.529C73.6291 83.7192 74.0151 83.8002 74.3984 83.7608C74.7816 83.7215 75.1431 83.5637 75.4326 83.3095C75.7221 83.0552 75.9251 82.717 76.0135 82.342C76.102 81.967 76.0714 81.5738 75.926 81.217L67.706 61.033C67.9712 60.5421 68.2986 60.0873 68.68 59.68C69.5133 58.9759 70.4439 58.396 71.443 57.958C73.151 57.089 75.087 56.104 76.175 54.247C77.263 52.39 77.175 50.212 77.109 48.286C77.006 47.1664 77.0619 46.0379 77.275 44.934C77.6496 43.8895 78.1639 42.9005 78.804 41.994C79.88 40.283 81.098 38.344 81.098 36.05C81.098 33.756 79.88 31.816 78.805 30.106ZM31.5 82.5L29.281 74.816C29.2138 74.5819 29.1011 74.3633 28.9493 74.1727C28.7976 73.9822 28.6098 73.8234 28.3967 73.7054C28.1835 73.5875 27.9492 73.5127 27.7072 73.4853C27.4651 73.458 27.2201 73.4786 26.986 73.546C26.8446 73.5861 26.7086 73.6432 26.581 73.716L19.62 77.665L24.71 65.165C25.2751 65.977 26.0037 66.662 26.849 67.176C28.701 68.261 30.884 68.176 32.81 68.11C33.9295 68.0067 35.058 68.0623 36.162 68.275C36.4949 68.3719 36.8183 68.4991 37.128 68.655L31.5 82.5ZM63.523 73.718C63.3113 73.5975 63.0778 73.5199 62.8361 73.4896C62.5943 73.4593 62.349 73.4769 62.114 73.5414C61.8791 73.606 61.6592 73.7161 61.4668 73.8657C61.2745 74.0152 61.1135 74.2012 60.993 74.413C60.9214 74.5395 60.8643 74.6737 60.823 74.813L58.6 82.5L52.966 68.655C53.2761 68.4991 53.5998 68.3719 53.933 68.275C55.0373 68.0618 56.1662 68.0063 57.286 68.11C59.212 68.181 61.394 68.261 63.246 67.175C64.0917 66.661 64.8201 65.9752 65.384 65.162L70.475 77.662L63.523 73.718ZM45.049 11.876C40.2678 11.876 35.594 13.2938 31.6186 15.9501C27.6433 18.6063 24.5448 22.3818 22.7151 26.799C20.8855 31.2162 20.4067 36.0768 21.3395 40.7661C22.2723 45.4554 24.5746 49.7628 27.9554 53.1436C31.3362 56.5244 35.6436 58.8267 40.3329 59.7595C45.0222 60.6923 49.8828 60.2135 54.3 58.3839C58.7172 56.5542 62.4927 53.4557 65.1489 49.4804C67.8052 45.505 69.223 40.8312 69.223 36.05C69.223 29.6387 66.6761 23.4899 62.1426 18.9564C57.6091 14.4229 51.4603 11.876 45.049 11.876ZM45.049 56.516C41.0012 56.516 37.0443 55.3157 33.6787 53.0669C30.3131 50.818 27.6899 47.6217 26.1409 43.882C24.5919 40.1423 24.1866 36.0273 24.9762 32.0573C25.7659 28.0873 27.7151 24.4406 30.5774 21.5784C33.4396 18.7161 37.0863 16.7669 41.0563 15.9772C45.0263 15.1876 49.1413 15.5929 52.881 17.1419C56.6207 18.6909 59.817 21.3141 62.0659 24.6797C64.3147 28.0453 65.515 32.0022 65.515 36.05C65.515 38.7376 64.9856 41.399 63.9571 43.882C62.9286 46.365 61.4211 48.6212 59.5206 50.5216C57.6202 52.4221 55.364 53.9296 52.881 54.9581C50.398 55.9866 47.7366 56.516 45.049 56.516Z" stroke="#BC2D33" stroke-width="1.5"/>
</g>
</g>
</svg>
