<svg width="90" height="90" viewBox="0 0 90 90" fill="none" xmlns="http://www.w3.org/2000/svg">
<mask id="mask0_1_44" style="mask-type:luminance" maskUnits="userSpaceOnUse" x="0" y="16" width="90" height="58">
<path d="M89.999 16H0V73.93H89.999V16Z" fill="white"/>
</mask>
<g mask="url(#mask0_1_44)">
<mask id="mask1_1_44" style="mask-type:luminance" maskUnits="userSpaceOnUse" x="0" y="16" width="90" height="58">
<path d="M89.999 16H0V73.93H89.999V16Z" fill="white"/>
</mask>
<g mask="url(#mask1_1_44)">
<path d="M89.856 41.923L75.2 16.538C75.0572 16.291 74.8221 16.1108 74.5465 16.0369C74.2709 15.963 73.9773 16.0015 73.73 16.144L64.678 21.371C64.5557 21.4416 64.4486 21.5357 64.3626 21.6477C64.2767 21.7598 64.2137 21.8877 64.1772 22.0241C64.1407 22.1605 64.1314 22.3028 64.1499 22.4428C64.1684 22.5828 64.2143 22.7177 64.285 22.84L65.092 24.24L60.682 26.768C57.904 27.775 55.813 27.344 52.663 26.696C51.155 26.386 49.445 26.034 47.356 25.779C45.8784 25.59 44.3774 25.721 42.9548 26.163C41.5322 26.6051 40.2213 27.3479 39.111 28.341L31.284 27.156C29.6178 26.924 28.032 26.2939 26.661 25.319L26.22 25.014L27.186 23.614C27.2671 23.4978 27.3244 23.3668 27.3546 23.2284C27.3849 23.0901 27.3875 22.9471 27.3623 22.8077C27.3371 22.6683 27.2847 22.5352 27.2079 22.4162C27.1311 22.2971 27.0316 22.1944 26.915 22.114H26.909L18.3 16.192C18.184 16.1107 18.0531 16.0532 17.9148 16.0227C17.7764 15.9922 17.6335 15.9894 17.494 16.0144C17.3546 16.0394 17.2215 16.0917 17.1024 16.1684C16.9833 16.245 16.8805 16.3445 16.8 16.461V16.468L0.191014 40.62C0.110357 40.7364 0.0534575 40.8676 0.0235736 41.0061C-0.00631037 41.1445 -0.00859202 41.2875 0.0168593 41.4268C0.0423106 41.5662 0.094995 41.6991 0.171896 41.8181C0.248797 41.937 0.348404 42.0396 0.465014 42.12L9.07901 48.042C9.31301 48.2043 9.60186 48.2672 9.88216 48.2168C10.1625 48.1663 10.4113 48.0067 10.574 47.773L10.579 47.765L11.361 46.628C12.769 47.676 14.056 48.668 15.261 49.634L14.261 51.049C13.7741 51.7364 13.4852 52.5444 13.426 53.3847C13.3668 54.225 13.5395 55.0655 13.9252 55.8144C14.311 56.5633 14.895 57.1919 15.6135 57.6316C16.3321 58.0714 17.1576 58.3053 18 58.308C18.0668 58.3093 18.1336 58.3066 18.2 58.3C18.0466 59.0193 18.0684 59.7649 18.2637 60.474C18.459 61.1831 18.822 61.8348 19.3221 62.3741C19.8222 62.9134 20.4446 63.3245 21.137 63.5726C21.8293 63.8208 22.5712 63.8988 23.3 63.8C23.2144 64.7229 23.4095 65.6502 23.8599 66.4603C24.3103 67.2704 24.9949 67.9255 25.824 68.3399C26.6531 68.7542 27.5881 68.9084 28.5063 68.7823C29.4246 68.6562 30.2833 68.2556 30.97 67.633C31.2553 68.3567 31.7195 68.9962 32.3192 69.4918C32.9188 69.9873 33.6343 70.3227 34.3988 70.4665C35.1633 70.6104 35.9518 70.558 36.6906 70.3143C37.4293 70.0706 38.0942 69.6435 38.623 69.073L43.923 72.839C44.8907 73.5357 46.0507 73.9151 47.243 73.925C47.9654 73.943 48.6816 73.7867 49.3308 73.4694C49.9801 73.152 50.5433 72.683 50.973 72.102C51.5818 71.231 51.8481 70.1661 51.721 69.111C52.2127 69.2541 52.7219 69.3278 53.234 69.33C53.9564 69.3484 54.6725 69.1923 55.3216 68.8749C55.9708 68.5576 56.5339 68.0883 56.963 67.507C57.5891 66.6167 57.8542 65.5221 57.705 64.444C58.148 64.5582 58.6035 64.6167 59.061 64.618C59.7829 64.637 60.4988 64.4816 61.1479 64.1652C61.797 63.8487 62.3603 63.3804 62.79 62.8C63.3499 62.0231 63.6512 61.0897 63.651 60.132C64.2917 60.3827 64.9731 60.5132 65.661 60.517C65.9435 60.5172 66.2255 60.4938 66.504 60.447C67.0613 60.368 67.5975 60.18 68.0821 59.8935C68.5666 59.6071 68.9899 59.2279 69.3277 58.7777C69.6655 58.3275 69.9112 57.8151 70.0508 57.2699C70.1903 56.7246 70.221 56.1571 70.141 55.6C70.129 55.516 70.115 55.432 70.098 55.349C69.9009 54.2814 69.3893 53.297 68.629 52.522C69.313 52.097 69.918 51.669 70.509 51.25C71.4332 50.5492 72.4231 49.9396 73.465 49.43C73.494 49.417 73.524 49.402 73.552 49.386L78.1 46.772L78.939 48.225C79.0815 48.4719 79.3162 48.6521 79.5914 48.7259C79.8667 48.7998 80.1601 48.7614 80.407 48.619L89.46 43.392C89.7068 43.2492 89.8868 43.0143 89.9606 42.7389C90.0345 42.4636 89.9961 42.1701 89.854 41.923M9.41501 45.656L2.57401 40.956L17.962 18.572L24.803 23.272L9.41501 45.656ZM16.589 55.7C16.0622 55.3224 15.706 54.7519 15.598 54.1128C15.4899 53.4737 15.6387 52.8178 16.012 52.288L19.828 46.917C20.1298 46.4934 20.5587 46.1771 21.0525 46.0139C21.5463 45.8507 22.0793 45.8491 22.574 46.0095C23.0688 46.1698 23.4996 46.4836 23.8038 46.9054C24.1081 47.3272 24.27 47.8349 24.266 48.355C24.263 48.8566 24.1063 49.3452 23.817 49.755L20 55.126C19.6222 55.6528 19.0515 56.0091 18.4123 56.1171C17.7731 56.2252 17.117 56.0764 16.587 55.703L16.589 55.7ZM21.257 61.241C20.736 60.8754 20.3816 60.3178 20.2717 59.6909C20.1618 59.0639 20.3054 58.419 20.671 57.898L20.689 57.873L26.989 49.142C27.3736 48.6114 27.9511 48.253 28.5973 48.144C29.2435 48.0349 29.9066 48.184 30.444 48.559C30.931 48.9011 31.2735 49.4119 31.4051 49.9923C31.5367 50.5728 31.4479 51.1814 31.156 51.7L29.544 53.959L24.712 60.659C24.3273 61.1895 23.7497 61.5476 23.1035 61.6565C22.4574 61.7653 21.7943 61.6161 21.257 61.241ZM26.45 66.219C25.924 65.8436 25.5681 65.2751 25.4601 64.6379C25.3522 64.0007 25.501 63.3467 25.874 62.819L31.28 55.233L32.756 53.187C32.83 53.087 32.899 52.978 32.964 52.871L33.416 52.236C33.7901 51.7056 34.3596 51.3455 34.9992 51.2349C35.6388 51.1244 36.2961 51.2724 36.8265 51.6465C37.3569 52.0206 37.717 52.5901 37.8276 53.2297C37.9382 53.8693 37.7901 54.5266 37.416 55.057L35.787 57.342C35.6121 57.5193 35.4516 57.7102 35.307 57.913L31.491 63.284C31.3612 63.4666 31.2449 63.6584 31.143 63.858L29.873 65.64C29.4949 66.1688 28.9229 66.5265 28.2819 66.6349C27.6409 66.7434 26.9831 66.5939 26.452 66.219M33.823 67.942C33.3641 67.6156 33.0318 67.1411 32.8819 66.5983C32.732 66.0555 32.7737 65.4776 33 64.962L37.415 58.762C37.76 58.4509 38.1868 58.2451 38.645 58.169C38.7831 58.1459 38.923 58.1341 39.063 58.134C39.5674 58.1331 40.0594 58.2901 40.47 58.583C40.9985 58.9593 41.3561 59.5299 41.4645 60.1695C41.5728 60.8091 41.423 61.4656 41.048 61.995L37.515 66.969L37.235 67.363C36.8593 67.8929 36.2884 68.252 35.648 68.3611C35.0076 68.4702 34.3501 68.3206 33.82 67.945M67.629 57.439C67.4517 57.6771 67.2289 57.8776 66.9734 58.0288C66.718 58.18 66.435 58.279 66.141 58.32C65.2357 58.4482 64.3164 58.2147 63.582 57.67L61.442 56.138L54.242 50.981C54.0101 50.815 53.7217 50.7479 53.4403 50.7945C53.1589 50.8411 52.9075 50.9976 52.7415 51.2295C52.5755 51.4614 52.5084 51.7498 52.555 52.0312C52.6016 52.3126 52.7581 52.564 52.99 52.73L60.2 57.893C60.8361 58.3072 61.2859 58.9528 61.454 59.693C61.514 60.0139 61.5076 60.3437 61.4352 60.6621C61.3628 60.9804 61.2259 61.2806 61.033 61.544C60.233 62.663 58.382 62.768 56.982 61.773L50.662 57.289C50.5468 57.2073 50.4167 57.149 50.279 57.1175C50.1413 57.0861 49.9988 57.0821 49.8596 57.1057C49.7203 57.1293 49.5871 57.1802 49.4675 57.2553C49.3479 57.3304 49.2443 57.4283 49.1625 57.5435C49.0808 57.6587 49.0225 57.7888 48.9911 57.9265C48.9596 58.0642 48.9556 58.2067 48.9792 58.346C49.0028 58.4852 49.0537 58.6184 49.1288 58.738C49.2039 58.8576 49.3018 58.9613 49.417 59.043L54.085 62.362C54.7751 62.8373 55.2747 63.5416 55.495 64.35C55.5895 64.6707 55.6122 65.0082 55.5615 65.3386C55.5109 65.6691 55.3882 65.9843 55.202 66.262C54.402 67.381 52.552 67.486 51.152 66.491L49.342 65.205L46.925 63.488C46.6922 63.3299 46.4067 63.2693 46.1297 63.3192C45.8527 63.3692 45.6064 63.5256 45.4434 63.755C45.2804 63.9845 45.2138 64.2686 45.2578 64.5466C45.3019 64.8246 45.4531 65.0742 45.679 65.242L48.1 66.959C49.5 67.959 50.012 69.74 49.217 70.859C48.422 71.978 46.567 72.083 45.167 71.088L39.897 67.344L42.809 63.244C43.2818 62.5779 43.5684 61.7978 43.6394 60.9841C43.7104 60.1703 43.5632 59.3524 43.213 58.6144C42.8628 57.8765 42.3222 57.2452 41.6469 56.7857C40.9716 56.3262 40.186 56.055 39.371 56C39.8723 55.1569 40.0905 54.1755 39.9938 53.1994C39.8971 52.2233 39.4905 51.3038 38.8336 50.5754C38.1766 49.847 37.3038 49.3481 36.3428 49.1515C35.3819 48.9549 34.3832 49.0711 33.493 49.483C33.2405 48.395 32.5939 47.4392 31.678 46.8C30.8686 46.2375 29.902 45.9456 28.9165 45.9661C27.931 45.9865 26.9773 46.3184 26.192 46.914C25.929 46.1037 25.4458 45.3825 24.7966 44.831C24.1473 44.2794 23.3575 43.9192 22.5154 43.7906C21.6733 43.662 20.812 43.77 20.0277 44.1026C19.2434 44.4351 18.567 44.9792 18.074 45.674L16.511 47.874C15.293 46.9 13.995 45.9 12.58 44.85L25 26.786L25.434 27.086C27.0765 28.2461 28.9706 29 30.961 29.286L37.168 30.226C35.8731 31.7169 34.6661 33.2819 33.553 34.913C32.3597 36.6999 31.0251 38.3883 29.562 39.962C28.662 40.871 28.824 42.334 29.975 43.603C30.4978 44.2722 31.155 44.8244 31.9042 45.2241C32.6534 45.6239 33.4781 45.8623 34.325 45.924H34.4C37.042 45.924 39.174 43.706 41.237 41.561C42.885 39.847 44.591 38.075 45.989 38.211C46.8862 38.6288 47.6922 39.2194 48.361 39.949C49.4707 41.0619 50.7605 41.9792 52.176 42.662L66.484 53.519L66.522 53.547C67.2739 54.0506 67.7951 54.8322 67.971 55.72C68.031 56.0149 68.0317 56.3188 67.9729 56.6139C67.9142 56.909 67.7973 57.1895 67.629 57.439ZM72.515 47.494C71.3673 48.0551 70.276 48.7248 69.256 49.494C68.4762 50.0659 67.6664 50.5957 66.83 51.081L58.157 44.5C59.6114 44.7396 61.1002 44.6663 62.524 44.285C62.7952 44.1967 63.0202 44.0043 63.1495 43.75C63.2788 43.4958 63.3018 43.2007 63.2135 42.9295C63.1252 42.6583 62.9328 42.4333 62.6786 42.304C62.4244 42.1747 62.1292 42.1517 61.858 42.24C59.9 42.878 56.271 42.277 53.252 40.793C53.215 40.773 53.178 40.755 53.14 40.739C51.9424 40.1619 50.8499 39.3882 49.908 38.45C49.886 38.428 47.744 36.213 46.202 36.062C43.757 35.823 41.685 37.977 39.681 40.062C37.93 41.883 36.121 43.762 34.392 43.762H34.358C33.8069 43.6995 33.2747 43.5238 32.7948 43.2459C32.3148 42.968 31.8975 42.5939 31.569 42.147C31.368 41.9422 31.2203 41.6912 31.139 41.416C32.6638 39.7722 34.0571 38.0111 35.306 36.149C36.6921 34.0313 38.3039 32.0701 40.113 30.3L40.123 30.291C41.0314 29.3962 42.13 28.7179 43.337 28.3066C44.544 27.8954 45.8282 27.7619 47.094 27.916C49.094 28.161 50.76 28.503 52.229 28.805C55.516 29.482 58.113 30.016 61.511 28.757C61.5665 28.7361 61.6203 28.711 61.672 28.682L66.166 26.1L77.025 44.909L72.515 47.494ZM80.265 46.218L66.685 22.7L73.874 18.549L87.455 42.067L80.265 46.218Z" fill="white"/>
</g>
</g>
</svg>
