<svg width="125" height="116" viewBox="0 0 125 116" fill="none" xmlns="http://www.w3.org/2000/svg">
<g clip-path="url(#clip0_3_25)">
<mask id="mask0_3_25" style="mask-type:luminance" maskUnits="userSpaceOnUse" x="0" y="0" width="125" height="116">
<path d="M125 0H0V116H125V0Z" fill="white"/>
</mask>
<g mask="url(#mask0_3_25)">
<path fill-rule="evenodd" clip-rule="evenodd" d="M124.998 115.938V11.4373H16.0231V97.2788C16.0231 97.6556 15.8728 98.017 15.6053 98.2835C15.3378 98.55 14.975 98.6997 14.5967 98.6997H10.022C4.36717 98.6997 0 103.354 0 107.35C0 111.347 4.37224 116 10.022 116L124.998 115.938ZM117.418 109.807H23.6054C23.4172 109.81 23.2304 109.775 23.056 109.704C22.8816 109.634 22.7231 109.529 22.59 109.397C22.4569 109.264 22.3519 109.106 22.2811 108.932C22.2104 108.759 22.1753 108.573 22.178 108.385V18.9544C22.1755 18.767 22.2106 18.581 22.2814 18.4074C22.3523 18.2338 22.4573 18.076 22.5904 17.9436C22.7235 17.8111 22.8819 17.7065 23.0562 17.6361C23.2306 17.5657 23.4173 17.5308 23.6054 17.5335H117.418C117.796 17.5335 118.159 17.6832 118.427 17.9496C118.694 18.2161 118.845 18.5775 118.845 18.9544V108.35C118.851 108.54 118.819 108.729 118.749 108.906C118.68 109.083 118.576 109.245 118.443 109.381C118.309 109.517 118.15 109.624 117.974 109.697C117.798 109.771 117.608 109.809 117.418 109.807Z" fill="#A5170E"/>
<path fill-rule="evenodd" clip-rule="evenodd" d="M92.7685 75.417V63.8033C92.7659 63.6159 92.801 63.4299 92.8719 63.2563C92.9427 63.0827 93.0478 62.9249 93.1808 62.7925C93.3139 62.66 93.4723 62.5554 93.6466 62.485C93.821 62.4146 94.0077 62.3797 94.1958 62.3824H115.992V53.4069H79.6558V68.8992C79.6555 69.2761 79.505 69.6375 79.2374 69.904C78.9697 70.1704 78.6068 70.3201 78.2284 70.3201C78.0403 70.323 77.8535 70.2882 77.6791 70.2178C77.5047 70.1474 77.3462 70.0428 77.2131 69.9103C77.08 69.7778 76.9749 69.6201 76.9042 69.4464C76.8334 69.2727 76.7983 69.0866 76.801 68.8992V51.987C76.7983 51.7995 76.8334 51.6134 76.9041 51.4397C76.9749 51.2659 77.0799 51.1081 77.213 50.9755C77.3461 50.8429 77.5046 50.7383 77.679 50.6678C77.8534 50.5973 78.0402 50.5623 78.2284 50.5651H115.988V20.4116H93.9903V38.5713C93.9846 38.9466 93.8324 39.305 93.5659 39.5704C93.2995 39.8358 92.9397 39.9875 92.563 39.9932H70.0519C69.8638 39.9958 69.677 39.9608 69.5027 39.8902C69.3284 39.8196 69.1701 39.715 69.0371 39.5824C68.9042 39.4498 68.7992 39.2921 68.7285 39.1184C68.6578 38.9447 68.6228 38.7587 68.6255 38.5713V20.4116H25.0337V26.9576H44.8956C45.0837 26.9549 45.2705 26.9898 45.4449 27.0604C45.6192 27.1309 45.7776 27.2355 45.9106 27.3681C46.0436 27.5007 46.1486 27.6586 46.2192 27.8323C46.2899 28.0061 46.3248 28.1922 46.3219 28.3796V50.3886C46.3219 50.7654 46.1717 51.1269 45.9042 51.3933C45.6367 51.6598 45.2739 51.8095 44.8956 51.8095H25.0337V58.3566H55.5422V41.0289C55.5371 40.8391 55.5703 40.6501 55.6397 40.4732C55.7091 40.2964 55.8134 40.1351 55.9464 39.9991C56.0794 39.863 56.2384 39.7548 56.4141 39.681C56.5897 39.6071 56.7784 39.5691 56.9691 39.5691C57.1597 39.5691 57.3484 39.6071 57.5241 39.681C57.6997 39.7548 57.8587 39.863 57.9917 39.9991C58.1247 40.1351 58.229 40.2964 58.2984 40.4732C58.3679 40.6501 58.401 40.8391 58.3959 41.0289V59.7775C58.3987 59.965 58.3636 60.1511 58.2929 60.3249C58.2221 60.4986 58.117 60.6564 57.984 60.789C57.8509 60.9216 57.6924 61.0262 57.518 61.0967C57.3436 61.1672 57.1568 61.2022 56.9686 61.1994H25.0327V77.1072H56.9686C57.347 77.1074 57.71 77.2573 57.9776 77.5239C58.2452 77.7905 58.3957 78.1521 58.3959 78.5291V106.968H66.4854V86.8833C66.4827 86.6958 66.5178 86.5097 66.5885 86.336C66.6593 86.1622 66.7643 86.0044 66.8974 85.8718C67.0305 85.7392 67.189 85.6346 67.3634 85.5641C67.5378 85.4936 67.7246 85.4587 67.9128 85.4614H96.8785C97.0667 85.4587 97.2535 85.4936 97.4278 85.5641C97.6022 85.6346 97.7605 85.7393 97.8936 85.8719C98.0266 86.0045 98.1315 86.1623 98.2022 86.336C98.2728 86.5098 98.3077 86.6959 98.3049 86.8833V106.965H115.995V76.8409H94.1948C93.818 76.8357 93.4581 76.6842 93.1917 76.4186C92.9253 76.153 92.7734 75.7944 92.7685 75.419V75.417Z" fill="#A5170E"/>
<path d="M95.4442 88.3042H69.3384V106.963H95.4442V88.3042Z" fill="#A5170E"/>
<path fill-rule="evenodd" clip-rule="evenodd" d="M25.0327 106.963H31.0672V86.255C31.0645 86.0676 31.0995 85.8815 31.1702 85.7079C31.2409 85.5342 31.3458 85.3764 31.4788 85.2438C31.6118 85.1112 31.7701 85.0066 31.9444 84.936C32.1187 84.8655 32.3054 84.8304 32.4936 84.833H48.0449C48.4234 84.8333 48.7863 84.9832 49.0539 85.2498C49.3216 85.5164 49.472 85.8779 49.4723 86.255V106.963H55.5068V79.9258H25.0358L25.0327 106.963Z" fill="#A5170E"/>
<path d="M46.6197 87.679H33.9221V106.964H46.6197V87.679Z" fill="#A5170E"/>
<path d="M43.4662 29.7732H25.0327V48.9383H43.4662V29.7732Z" fill="#A5170E"/>
<path d="M91.1346 20.4116H71.4792V37.1483H91.1346V20.4116Z" fill="#A5170E"/>
<path d="M116.021 65.197H95.6506V73.9657H116.021V65.197Z" fill="#A5170E"/>
<path fill-rule="evenodd" clip-rule="evenodd" d="M10.022 95.8557H13.1704V-0.000976562H10.022C7.36402 -0.000976562 4.81488 1.0509 2.93538 2.92324C1.05589 4.79559 0 7.33504 0 9.98294L0 100.382C1.26319 98.9751 2.80679 97.8461 4.53235 97.0669C6.2579 96.2876 8.12754 95.8751 10.022 95.8557Z" fill="#A5170E"/>
</g>
</g>
<defs>
<clipPath id="clip0_3_25">
<rect width="125" height="116" fill="white"/>
</clipPath>
</defs>
</svg>
