<svg xmlns="http://www.w3.org/2000/svg" xmlns:xlink="http://www.w3.org/1999/xlink" width="283.268" height="68.274" viewBox="0 0 283.268 68.274">
  <defs>
    <clipPath id="clip-path">
      <path id="Path_141" data-name="Path 141" d="M0,40.087H283.268V-28.187H0Z" transform="translate(0 28.187)" fill="none"/>
    </clipPath>
  </defs>
  <g id="Group_249" data-name="Group 249" transform="translate(0 28.187)">
    <path id="Path_135" data-name="Path 135" d="M7.179,6.489H18.231V-4.563H7.179Z" transform="translate(10.21 33.597)" fill="#9a8b7c"/>
    <g id="Group_243" data-name="Group 243" transform="translate(22.918 6.945)">
      <path id="Path_136" data-name="Path 136" d="M0,0,22.911,33.143H48.7l-3.5-5.055L25.75,0Z" fill="#a5170d"/>
    </g>
    <g id="Group_244" data-name="Group 244" transform="translate(48.667 -26.35)">
      <path id="Path_137" data-name="Path 137" d="M0,0V33.293L23.061,0Z" fill="#a5170d"/>
    </g>
    <g id="Group_245" data-name="Group 245" transform="translate(0 -26.35)">
      <path id="Path_138" data-name="Path 138" d="M0,0V66.435L22.916,33.3V0Z" fill="#a5170d"/>
    </g>
    <g id="Group_248" data-name="Group 248" transform="translate(0 -28.187)" clip-path="url(#clip-path)">
      <g id="Group_246" data-name="Group 246" transform="translate(87.731 0.001)">
        <path id="Path_139" data-name="Path 139" d="M0,21.311a3.67,3.67,0,0,0,1.141,2.681,3.664,3.664,0,0,0,2.684,1.143,3.737,3.737,0,0,0,2.739-1.143L19.8,10.581,33.5,23.993a3.644,3.644,0,0,0,2.684,1.085,3.794,3.794,0,0,0,2.681-6.506L25.224,5.1,38.636-8.421a3.584,3.584,0,0,0,1.085-2.626,3.787,3.787,0,0,0-1.114-2.739,3.641,3.641,0,0,0-2.71-1.141,3.736,3.736,0,0,0-2.739,1.141L7.647,12.01V-11.16a3.688,3.688,0,0,0-1.112-2.71,3.689,3.689,0,0,0-2.71-1.114,3.69,3.69,0,0,0-2.713,1.114A3.688,3.688,0,0,0,0-11.16ZM58.982-13.844a13.908,13.908,0,0,0-4.423,2.967,13.956,13.956,0,0,0-2.97,4.423A13.762,13.762,0,0,0,50.507-1V11.153A13.75,13.75,0,0,0,51.59,16.6a13.793,13.793,0,0,0,7.392,7.39,13.7,13.7,0,0,0,5.45,1.085H82.237a13.3,13.3,0,0,0,5.392-1.112,14.145,14.145,0,0,0,7.419-7.419,13.263,13.263,0,0,0,1.114-5.394V-1A13.263,13.263,0,0,0,95.048-6.4a14.26,14.26,0,0,0-3-4.423,14.3,14.3,0,0,0-4.423-3,13.3,13.3,0,0,0-5.392-1.112H64.432a13.741,13.741,0,0,0-5.45,1.083m3,30.762a6.638,6.638,0,0,1-2-1.371,6.2,6.2,0,0,1-1.342-2,6.087,6.087,0,0,1-.484-2.4V-1a6.241,6.241,0,0,1,.484-2.456,6.2,6.2,0,0,1,1.342-2,6.226,6.226,0,0,1,2-1.342,6.22,6.22,0,0,1,2.454-.484H82.237a6.238,6.238,0,0,1,2.454.484,6.279,6.279,0,0,1,2,1.342,6.235,6.235,0,0,1,1.339,2A6.241,6.241,0,0,1,88.513-1V11.153a6.087,6.087,0,0,1-.484,2.4,6.235,6.235,0,0,1-1.339,2,6.7,6.7,0,0,1-2,1.371,5.932,5.932,0,0,1-2.454.514H64.432a5.916,5.916,0,0,1-2.454-.514m58.21-30.275A20.742,20.742,0,0,0,113.8-9.106a19.583,19.583,0,0,0-4.309,6.334,19.6,19.6,0,0,0-1.57,7.819,19.442,19.442,0,0,0,1.57,7.761,20.742,20.742,0,0,0,4.251,6.392,19.512,19.512,0,0,0,6.365,4.309,19.783,19.783,0,0,0,7.845,1.57h13.639a3.833,3.833,0,0,0,2.71-6.535,3.688,3.688,0,0,0-2.71-1.112H127.949a12.22,12.22,0,0,1-4.849-.971,12.328,12.328,0,0,1-7.535-11.413,12.074,12.074,0,0,1,.971-4.823,12.5,12.5,0,0,1,2.655-3.938,12.1,12.1,0,0,1,3.936-2.623,12.352,12.352,0,0,1,4.823-.942h13.639a3.681,3.681,0,0,0,2.71-1.114,3.681,3.681,0,0,0,1.114-2.71,3.685,3.685,0,0,0-1.114-2.71,3.688,3.688,0,0,0-2.71-1.112H127.949a19.442,19.442,0,0,0-7.761,1.57m38.663-.514a3.688,3.688,0,0,0-1.112,2.71V21.2a3.823,3.823,0,1,0,7.647,0V8.927h21.23V21.2a3.688,3.688,0,0,0,1.112,2.71A3.762,3.762,0,0,0,190.5,25.02a3.593,3.593,0,0,0,2.681-1.112,3.731,3.731,0,0,0,1.085-2.71V-11.16a3.731,3.731,0,0,0-1.085-2.71,3.586,3.586,0,0,0-2.681-1.114,3.754,3.754,0,0,0-2.769,1.114,3.688,3.688,0,0,0-1.112,2.71V1.28h-21.23V-11.16a3.688,3.688,0,0,0-1.112-2.71,3.689,3.689,0,0,0-2.71-1.114,3.69,3.69,0,0,0-2.713,1.114" transform="translate(0 14.985)" fill="#3e363d"/>
      </g>
      <g id="Group_247" data-name="Group 247" transform="translate(87.415 49.972)">
        <path id="Path_140" data-name="Path 140" d="M0,0V17.3H5.7c4.319,0,6.661-1.795,6.661-5.179a4.007,4.007,0,0,0-3.28-4.137,4.013,4.013,0,0,0,2.4-3.643C11.476.884,8.795,0,5.854,0ZM3.175,9.42H5.75C7.807,9.42,9,10.357,9,12.1c0,1.587-.833,2.756-3.384,2.756H3.175Zm0-7.027H5.283c1.691,0,2.967.417,2.967,2.291C8.25,6.063,7.339,7.1,5.1,7.1H3.175ZM21.838,17.3l1.536-4.58h6.089l1.562,4.58h3.381L28.293,0H24.755L18.769,17.3Zm4.58-14.39H26.5l2.342,7.417H24ZM41.206,0V11.813c0,4.086,2.187,5.8,6.455,5.8,3.875,0,6.53-1.976,6.53-5.387V0H51.018V11.789a2.935,2.935,0,0,1-3.253,3.173c-1.979,0-3.41-.753-3.41-3.3V0ZM66.065,11.241h2.211c3.931,0,6.741-1.976,6.741-5.932C75.017,1.821,72.675,0,68.85,0H62.892V17.3h3.173Zm0-2.524V2.524h1.589c2.548,0,4.084.417,4.084,3.1,0,2.318-1.536,3.1-3.8,3.1ZM82.6,17.3l1.536-4.58h6.089l1.56,4.58h3.384L89.049,0H85.51L79.527,17.3Zm4.58-14.39h.077L89.6,10.331h-4.84Zm18.484,7.572h2.575c.911,0,1.354.547,1.717,1.354l2.5,5.464h3.381l-2.863-6.349a2.442,2.442,0,0,0-1.429-1.587,4.7,4.7,0,0,0,2.991-4.58c0-3.539-2.42-4.789-6.244-4.789h-5.8V17.3h3.175Zm0-2.471V2.524h1.821c2.471,0,3.825.286,3.825,2.5a2.742,2.742,0,0,1-3.045,2.994ZM120.992,0V2.759h4.919V17.3h3.149V2.759h5.048V0Zm31.1,0V12.021h-.051L144.758,0h-3.2V17.3h3.125V5.1h.051L152.2,17.3h3.045V0Zm11.978,17.3h10.616V14.545h-7.441V9.863h6.218V7.1h-6.218V2.759h7.259V0H164.073Zm21.606-6.818h2.577c.911,0,1.352.547,1.717,1.354l2.5,5.464h3.381l-2.861-6.349a2.445,2.445,0,0,0-1.432-1.587,4.7,4.7,0,0,0,2.991-4.58c0-3.539-2.42-4.789-6.244-4.789h-5.8V17.3h3.175Zm0-2.471V2.524H187.5c2.473,0,3.825.286,3.825,2.5a2.741,2.741,0,0,1-3.045,2.994Z" fill="#9a8b7c"/>
      </g>
    </g>
  </g>
</svg>
