<svg width="125" height="102" viewBox="0 0 125 102" fill="none" xmlns="http://www.w3.org/2000/svg">
<g clip-path="url(#clip0_3_42)">
<path d="M5.49985 0L0 27.6696H13.3753L25.8751 11.2922L39.2497 27.6696H50.1246L62.4997 11.2922L74.9994 27.6703H87.4992L99.3745 11.2922L111.625 27.6703H125L118.25 0H5.49985Z" fill="#A5170E"/>
<path d="M18.2499 70.1101H33.3748V89.3447H18.2499V70.1101ZM91.5018 70.1101H106.625V89.3447H91.499L91.5018 70.1101ZM18.2499 37.5973H33.3748V56.7067H18.2499V37.5973ZM54.8751 37.5973H69.9987V56.7067H54.8751V37.5973ZM91.499 37.5973H106.625V56.7067H91.499V37.5973ZM51.3752 29.904H37.9999L25.8751 15.1382L14.6216 29.904H5.99963V101.998H46.4992V70.1101H61.6248V102H63.2497V70.1101H78.3753V102H118.876V29.904H110.375L99.3737 15.262L88.7498 29.904H73.7489L62.4982 15.1382L51.3752 29.904Z" fill="#A5170E"/>
</g>
<defs>
<clipPath id="clip0_3_42">
<rect width="125" height="102" fill="white"/>
</clipPath>
</defs>
</svg>
