<svg width="125" height="125" viewBox="0 0 125 125" fill="none" xmlns="http://www.w3.org/2000/svg">
<g clip-path="url(#clip0_3_68)">
<mask id="mask0_3_68" style="mask-type:luminance" maskUnits="userSpaceOnUse" x="0" y="0" width="125" height="125">
<path d="M125 0H0V125H125V0Z" fill="white"/>
</mask>
<g mask="url(#mask0_3_68)">
<path fill-rule="evenodd" clip-rule="evenodd" d="M32.895 32.4174L63.246 60.6034C63.4075 60.7536 63.52 60.9489 63.569 61.1639C63.618 61.379 63.6011 61.6038 63.5206 61.8091C63.44 62.0144 63.2996 62.1907 63.1175 62.3151C62.9354 62.4395 62.7201 62.5062 62.4996 62.5066H59.3866L32.5428 37.5769C32.3402 37.3887 32.0739 37.2841 31.7974 37.2841C31.5209 37.2841 31.2546 37.3887 31.052 37.5769L4.21029 62.5066H1.09586C0.875333 62.5062 0.660022 62.4395 0.477934 62.3151C0.295846 62.1907 0.155407 62.0144 0.0748847 61.8091C-0.00563745 61.6038 -0.0225164 61.379 0.0264434 61.1639C0.0754032 60.9489 0.187936 60.7536 0.349404 60.6034L30.7018 32.4174V25.6586L1.08118 25.2253C0.793301 25.2204 0.518828 25.1028 0.316678 24.8977C0.114527 24.6927 0.000811456 24.4166 -6.08284e-05 24.1287V20.8388C0.000862409 20.5482 0.116813 20.2697 0.322441 20.0644C0.528068 19.859 0.806643 19.7434 1.09726 19.7428H70.1724C70.1721 19.9603 70.1941 20.1771 70.2381 20.3901L71.4102 26.2611L32.8908 25.6971V32.4188L32.895 32.4174ZM78.9468 62.3403V33.9914C78.9477 33.701 79.0635 33.4228 79.2688 33.2174C79.4741 33.0121 79.7523 32.8964 80.0427 32.8954H93.2008C93.4911 32.8965 93.7692 33.0124 93.9745 33.2177C94.1798 33.4229 94.2956 33.7011 94.2967 33.9914V59.2265C93.9346 59.2153 93.5684 59.2097 93.2008 59.2097C92.8331 59.2097 92.4655 59.2153 92.1048 59.2265V58.262L90.8712 59.2866C89.5108 59.3794 88.1571 59.5533 86.8174 59.8073L91.4828 55.9212L86.6154 51.8604L81.7481 55.9142L86.4889 59.8667C85.5906 60.048 84.7053 60.2619 83.833 60.5083L81.1296 58.2557V61.4079C80.384 61.6926 79.6532 61.9994 78.937 62.3284L78.9468 62.3403ZM81.1393 47.2956V53.5791L84.9136 50.4381L81.1393 47.2956ZM90.1751 35.0859H83.0747L86.6266 38.0459L90.1786 35.0859H90.1751ZM92.1048 42.6128V36.3321L88.3306 39.4731L92.1048 42.6128ZM91.4898 44.9535L86.621 40.8997L81.7523 44.9535L86.621 49.0108L91.4898 44.9535ZM92.1048 53.5784V47.2963L88.3306 50.4416L92.1048 53.5784ZM81.1393 36.3321V42.6142L84.9136 39.4731L81.1393 36.3321ZM83.3333 16.4474V1.0952C83.334 0.804526 83.4499 0.525989 83.6556 0.320582C83.8612 0.115175 84.1399 -0.000363546 84.4306 -0.000732422L88.8164 -0.000732422C89.1067 0.000189121 89.385 0.115949 89.5903 0.321277C89.7956 0.526605 89.9114 0.804825 89.9123 1.0952V16.4474H83.3333ZM98.5 18.6399H108.555C108.845 18.6412 109.124 18.7573 109.329 18.9628C109.534 19.1684 109.65 19.4467 109.651 19.7372V23.0223C109.652 23.8867 109.483 24.7429 109.153 25.5418C108.822 26.3406 108.338 27.0665 107.726 27.6777C107.115 28.289 106.389 28.7736 105.591 29.1038C104.792 29.434 103.935 29.6033 103.071 29.602H98.6887V19.7372C98.6887 19.3633 98.6254 18.992 98.5014 18.6392L98.5 18.6399ZM108.555 28.7745V31.7946C108.554 32.6669 108.207 33.5033 107.59 34.1201C106.974 34.7369 106.137 35.0838 105.265 35.0845H103.071C102.199 35.0828 101.364 34.7355 100.748 34.1188C100.132 33.502 99.7864 32.6662 99.7861 31.7946V30.7015H103.071C105.063 30.7009 106.996 30.0223 108.552 28.7773L108.555 28.7745ZM6.57966 73.4652V70.1725C6.58058 69.8822 6.69634 69.6039 6.90166 69.3986C7.10699 69.1933 7.38521 69.0775 7.67558 69.0766H55.9213C56.2116 69.0775 56.4899 69.1933 56.6952 69.3986C56.9005 69.6039 57.0163 69.8822 57.0172 70.1725V73.4624L6.57966 73.4652ZM57.0186 75.6592V105.263C57.0177 105.554 56.9018 105.833 56.6962 106.038C56.4906 106.244 56.212 106.36 55.9213 106.361H41.6673V83.3342C41.6666 83.0438 41.5509 82.7655 41.3455 82.5601C41.1401 82.3547 40.8618 82.239 40.5714 82.2383H23.0283C22.7378 82.239 22.4595 82.3547 22.2541 82.5601C22.0488 82.7655 21.9331 83.0438 21.9323 83.3342V106.36H7.67418C7.38357 106.359 7.10514 106.243 6.89978 106.038C6.69441 105.832 6.57881 105.553 6.57826 105.263V75.6585L57.0186 75.6592ZM39.4755 106.361H24.1235V88.8181H39.4748L39.4755 106.361ZM39.4755 86.6248H24.1235V84.4309H39.4748L39.4755 86.6248ZM56.1694 62.501H7.43585L31.8012 39.8743L56.1736 62.501H56.1694ZM31.8012 46.0529C30.7169 46.0529 29.6569 46.3745 28.7554 46.9769C27.8538 47.5793 27.1511 48.4356 26.7361 49.4373C26.3212 50.4391 26.2126 51.5415 26.4242 52.605C26.6357 53.6685 27.1578 54.6453 27.9246 55.4121C28.6913 56.1788 29.6682 56.701 30.7317 56.9125C31.7951 57.124 32.8975 57.0155 33.8992 56.6005C34.901 56.1856 35.7573 55.4829 36.3597 54.5813C36.9621 53.6797 37.2836 52.6197 37.2836 51.5354C37.2836 50.0814 36.706 48.6869 35.6779 47.6587C34.6497 46.6305 33.2552 46.0529 31.8012 46.0529ZM31.8012 48.2455C32.4519 48.2455 33.088 48.4384 33.629 48.7999C34.17 49.1614 34.5917 49.6753 34.8407 50.2764C35.0897 50.8776 35.1548 51.539 35.0279 52.1772C34.9009 52.8154 34.5876 53.4016 34.1275 53.8617C33.6674 54.3218 33.0812 54.6351 32.443 54.7621C31.8049 54.889 31.1434 54.8239 30.5422 54.5749C29.9411 54.3259 29.4273 53.9042 29.0658 53.3632C28.7043 52.8221 28.5114 52.1861 28.5114 51.5354C28.5114 50.6629 28.858 49.8261 29.4749 49.2091C30.0919 48.5921 30.9287 48.2455 31.8012 48.2455ZM95.3968 31.7974H79.2585C77.9906 31.7978 76.7618 31.3587 75.7812 30.555C74.8006 29.7513 74.1288 28.6325 73.8803 27.3892L72.3936 19.9504C72.3622 19.7914 72.3665 19.6274 72.4063 19.4702C72.4461 19.3131 72.5203 19.1667 72.6236 19.0418C72.7272 18.9167 72.8572 18.816 73.0042 18.7469C73.1513 18.6778 73.3117 18.642 73.4742 18.642H95.4038C95.6941 18.6431 95.9722 18.7589 96.1775 18.9642C96.3828 19.1695 96.4986 19.4476 96.4997 19.7379V30.7015C96.4986 30.9918 96.3828 31.2699 96.1775 31.4752C95.9722 31.6805 95.6941 31.7963 95.4038 31.7974H95.3968ZM93.2022 61.403C99.492 61.4023 105.641 63.2668 110.871 66.7608C116.101 70.2548 120.178 75.2213 122.585 81.0322C124.993 86.8432 125.623 93.2375 124.396 99.4067C123.17 105.576 120.141 111.243 115.694 115.691C111.246 120.138 105.58 123.168 99.4111 124.395C93.2421 125.622 86.8478 124.993 81.0366 122.586C75.2255 120.179 70.2586 116.103 66.7641 110.873C63.2696 105.643 61.4044 99.4945 61.4044 93.2046C61.4044 84.7709 64.7544 76.6826 70.7175 70.7187C76.6807 64.7548 84.7685 61.4039 93.2022 61.403ZM79.0691 97.587L75.6094 98.9191C75.3682 99.0123 75.1676 99.1878 75.0433 99.4146C74.919 99.6414 74.8789 99.9048 74.93 100.158C75.2151 101.576 75.664 102.957 76.2678 104.271C76.3753 104.506 76.5625 104.695 76.7962 104.805C77.0299 104.915 77.2951 104.939 77.5447 104.873L81.5286 103.805C81.8626 104.341 82.2345 104.852 82.6413 105.335L80.3929 108.799C80.2529 109.016 80.1937 109.276 80.2258 109.532C80.2579 109.789 80.3791 110.026 80.5683 110.202C81.631 111.183 82.8054 112.035 84.0671 112.741C84.2924 112.868 84.555 112.911 84.8087 112.862C85.0624 112.814 85.2909 112.677 85.4538 112.477L88.0531 109.27C88.638 109.507 89.2387 109.703 89.8508 109.857L90.0696 113.981C90.0829 114.238 90.1871 114.483 90.3636 114.672C90.5401 114.86 90.7776 114.98 91.0341 115.011C92.471 115.181 93.9229 115.181 95.3597 115.011C95.6166 114.981 95.8547 114.861 96.0316 114.673C96.2084 114.484 96.3126 114.239 96.3257 113.981L96.5444 109.857C97.1564 109.705 97.757 109.511 98.3421 109.276L100.941 112.483C101.104 112.684 101.332 112.821 101.586 112.87C101.84 112.918 102.103 112.875 102.328 112.747C103.587 112.039 104.76 111.187 105.823 110.208C106.014 110.033 106.136 109.795 106.168 109.538C106.201 109.281 106.14 109.021 105.998 108.804L103.751 105.339C104.156 104.855 104.528 104.344 104.864 103.81L108.848 104.878C109.097 104.946 109.363 104.922 109.597 104.812C109.83 104.702 110.018 104.512 110.125 104.276C110.728 102.962 111.177 101.582 111.462 100.164C111.514 99.9104 111.473 99.647 111.349 99.4202C111.225 99.1934 111.024 99.0179 110.783 98.9247L107.323 97.5925H112.92C113.083 97.5921 113.244 97.5555 113.391 97.4854C113.538 97.4152 113.668 97.3132 113.771 97.1868C113.874 97.0604 113.947 96.9127 113.986 96.7544C114.025 96.5961 114.028 96.4312 113.995 96.2716L113.447 93.6289C113.293 92.8895 112.889 92.2255 112.304 91.7484C111.718 91.2713 110.987 91.0101 110.232 91.0086H110.205L108.963 83.5411C108.595 81.3362 107.623 79.2766 106.153 77.5922C104.683 75.9077 102.775 74.6646 100.64 74.0013C100.508 73.2361 100.11 72.5422 99.5165 72.0417C98.9228 71.5412 98.1715 71.2664 97.395 71.2657H88.9862C88.2097 71.2664 87.4584 71.5412 86.8648 72.0417C86.2711 72.5422 85.8731 73.2361 85.7411 74.0013C83.6069 74.6655 81.6989 75.9089 80.2294 77.5932C78.76 79.2775 77.7868 81.3365 77.4182 83.5411L76.1734 91.0093H76.1469C75.3914 91.0097 74.6591 91.2705 74.0735 91.7478C73.4879 92.2251 73.0847 92.8897 72.9318 93.6296L72.3832 96.2723C72.3504 96.4319 72.3536 96.5968 72.3924 96.7551C72.4312 96.9134 72.5047 97.0611 72.6076 97.1875C72.7104 97.3139 72.8401 97.4159 72.9872 97.4861C73.1343 97.5562 73.2951 97.5928 73.4581 97.5932H79.0607L79.0691 97.587ZM104.732 97.587C104.716 97.7267 104.706 97.8721 104.683 98.0147C104.651 98.2597 104.702 98.5085 104.829 98.7206C104.956 98.9327 105.151 99.0956 105.382 99.1826L109.127 100.624C108.96 101.264 108.755 101.895 108.514 102.511L104.637 101.475C104.4 101.412 104.148 101.43 103.922 101.528C103.696 101.625 103.51 101.795 103.393 102.011C102.906 102.909 102.304 103.738 101.6 104.478C101.431 104.657 101.326 104.888 101.303 105.134C101.28 105.38 101.34 105.626 101.474 105.833L103.657 109.198C103.148 109.62 102.613 110.008 102.055 110.362L99.5275 107.242C99.372 107.05 99.1562 106.916 98.9151 106.863C98.674 106.809 98.4218 106.838 98.1995 106.946C97.2778 107.384 96.303 107.701 95.2996 107.889C95.0575 107.933 94.8374 108.057 94.6751 108.242C94.5128 108.427 94.4178 108.662 94.4057 108.908L94.196 112.916C93.5366 112.954 92.8754 112.954 92.216 112.916L92.0063 108.908C91.9932 108.662 91.8979 108.428 91.7358 108.243C91.5736 108.058 91.3541 107.934 91.1124 107.889C90.1083 107.704 89.1331 107.387 88.2125 106.946C87.9898 106.84 87.7381 106.811 87.4975 106.865C87.2568 106.919 87.041 107.051 86.8845 107.242L84.3565 110.362C83.8002 110.006 83.2655 109.618 82.7553 109.198L84.938 105.833C85.0718 105.626 85.132 105.38 85.109 105.134C85.0861 104.888 84.9813 104.657 84.8115 104.478C84.1084 103.738 83.5059 102.909 83.0195 102.011C82.9022 101.795 82.7157 101.625 82.4899 101.528C82.2642 101.43 82.0122 101.412 81.7747 101.475L77.8984 102.511C77.6577 101.894 77.4528 101.264 77.2847 100.624L81.0296 99.1826C81.2603 99.0946 81.4546 98.9316 81.5814 98.7197C81.7081 98.5079 81.76 98.2596 81.7285 98.0147C81.7062 97.8749 81.695 97.7295 81.6796 97.587H84.5019C84.7697 99.7071 85.8019 101.657 87.4049 103.07C89.0079 104.483 91.0715 105.263 93.2084 105.263C95.3454 105.263 97.409 104.483 99.012 103.07C100.615 101.657 101.647 99.7071 101.915 97.587H104.732ZM89.2162 91.0086L87.9064 74.6492C87.8924 74.498 87.9106 74.3455 87.9598 74.2018C88.0089 74.0581 88.0879 73.9264 88.1915 73.8154C88.2944 73.7046 88.4191 73.6164 88.5578 73.5562C88.6966 73.4961 88.8462 73.4653 88.9974 73.4659H97.4069C97.5581 73.4653 97.7078 73.4961 97.8465 73.5562C97.9852 73.6164 98.1099 73.7046 98.2128 73.8154C98.3164 73.9264 98.3954 74.0581 98.4445 74.2018C98.4937 74.3455 98.5119 74.498 98.4979 74.6492L97.1881 91.0086H89.2162ZM99.3919 91.0086L100.571 76.2938C102.186 76.9055 103.611 77.93 104.706 79.2652C105.801 80.6003 106.526 82.1993 106.81 83.9025L107.994 91.0086H99.3919ZM99.6938 97.587C99.4349 99.1198 98.6414 100.511 97.4541 101.515C96.2669 102.518 94.7626 103.069 93.2081 103.069C91.6536 103.069 90.1493 102.518 88.9621 101.515C87.7748 100.511 86.9813 99.1198 86.7224 97.587H99.6938ZM78.4198 91.0093L79.6045 83.9032C79.8887 82.2002 80.6143 80.6014 81.7089 79.2661C82.8035 77.9309 84.229 76.9059 85.8431 76.2931L87.0166 91.0079L78.4198 91.0093ZM110.246 93.2018C110.498 93.201 110.742 93.2874 110.938 93.4462C111.134 93.605 111.269 93.8265 111.32 94.0734L111.594 95.3944H74.8147L75.0887 94.0734C75.1398 93.8264 75.2748 93.6047 75.4707 93.4458C75.6666 93.287 75.9114 93.2008 76.1637 93.2018H110.246Z" fill="#A5170E"/>
</g>
</g>
<defs>
<clipPath id="clip0_3_68">
<rect width="125" height="125" fill="white"/>
</clipPath>
</defs>
</svg>
