<svg width="125" height="126" viewBox="0 0 125 126" fill="none" xmlns="http://www.w3.org/2000/svg">
<g clip-path="url(#clip0_3_52)">
<mask id="mask0_3_52" style="mask-type:luminance" maskUnits="userSpaceOnUse" x="0" y="0" width="125" height="126">
<path d="M125 0H0V126H125V0Z" fill="white"/>
</mask>
<g mask="url(#mask0_3_52)">
<path d="M3.82438 115.37H121.176C121.706 115.37 122.214 115.579 122.588 115.953C122.963 116.326 123.173 116.832 123.173 117.36V124.01C123.173 124.538 122.963 125.044 122.588 125.417C122.214 125.79 121.706 126 121.176 126H3.82438C3.29459 126 2.78649 125.79 2.41187 125.417C2.03724 125.044 1.82678 124.538 1.82678 124.01V117.36C1.82678 116.832 2.03724 116.326 2.41187 115.953C2.78649 115.579 3.29459 115.37 3.82438 115.37Z" fill="#A5170E"/>
<path d="M124.879 55.0895L119.891 64.3422C119.823 64.4726 119.726 64.586 119.608 64.6743C119.49 64.7625 119.353 64.8232 119.209 64.852C119.142 64.8638 119.075 64.8706 119.008 64.8724C118.779 64.871 118.556 64.7935 118.376 64.6522L62.5014 19.8693L40.0077 37.9203C39.8704 38.0282 39.7083 38.1004 39.5359 38.1303L36.3041 38.8604C36.1748 38.8914 36.0405 38.8958 35.9094 38.8734C35.7783 38.8509 35.6532 38.8021 35.5417 38.7299C35.3177 38.5851 35.1592 38.3591 35.0996 38.0998L32.9516 28.0597C32.9128 27.88 32.9252 27.6931 32.9872 27.52C33.0492 27.3469 33.1584 27.1945 33.3026 27.0799L61.868 3.85568C62.0443 3.70554 62.2685 3.62305 62.5004 3.62305C62.7323 3.62305 62.9566 3.70554 63.1329 3.85568L124.63 53.8441C124.811 53.9889 124.935 54.1923 124.981 54.4189C125.027 54.6455 124.991 54.8809 124.88 55.084" fill="#A5170E"/>
<path d="M106.463 1.01039L106.414 36.4703L83.0857 17.5023L83.1043 1.00021C83.1043 0.868786 83.1303 0.738646 83.1808 0.617235C83.2313 0.495823 83.3053 0.385519 83.3986 0.292629C83.492 0.199738 83.6027 0.126082 83.7246 0.0758714C83.8465 0.0256604 83.9772 -0.000121152 84.1091 4.28007e-07L105.458 0.0101784C105.724 0.0122774 105.979 0.115937 106.17 0.299787C106.353 0.491318 106.458 0.74476 106.462 1.00947" fill="#A5170E"/>
<path d="M62.5004 40.5073C60.694 40.5073 58.9281 41.041 57.4261 42.041C55.9241 43.0409 54.7534 44.4621 54.0621 46.1249C53.3708 47.7877 53.1899 49.6174 53.5423 51.3826C53.8947 53.1479 54.7646 54.7693 56.042 56.042C57.3194 57.3146 58.9468 58.1813 60.7186 58.5325C62.4903 58.8836 64.3268 58.7034 65.9957 58.0146C67.6647 57.3259 69.0911 56.1595 70.0948 54.663C71.0984 53.1665 71.6341 51.4071 71.6341 49.6073C71.6341 47.1938 70.6718 44.8792 68.9589 43.1727C67.246 41.4661 64.9228 40.5073 62.5004 40.5073Z" fill="#A5170E"/>
<path d="M82.8999 77.6074H68.3474V86.3826H82.8999V77.6074Z" fill="#A5170E"/>
<path d="M49.1609 80.4798H24.7708C24.76 80.4801 24.7494 80.4824 24.7395 80.4868C24.7296 80.4912 24.7207 80.4975 24.7132 80.5053C24.7058 80.5131 24.7 80.5224 24.6962 80.5324C24.6924 80.5425 24.6906 80.5533 24.691 80.564V113.37H49.2519V80.5696C49.2519 80.545 49.2421 80.5215 49.2247 80.5042C49.2073 80.4868 49.1836 80.4771 49.159 80.4771M45.8668 100.093C45.8668 100.358 45.7611 100.612 45.5728 100.8C45.3845 100.988 45.1292 101.093 44.8629 101.093C44.5967 101.093 44.3413 100.988 44.1531 100.8C43.9648 100.612 43.859 100.358 43.859 100.093V95.6514C43.859 95.3861 43.9648 95.1317 44.1531 94.9442C44.3413 94.7566 44.5967 94.6512 44.8629 94.6512C45.1292 94.6512 45.3845 94.7566 45.5728 94.9442C45.7611 95.1317 45.8668 95.3861 45.8668 95.6514V100.093Z" fill="#A5170E"/>
<path d="M99.4584 77.6074H84.9069V86.3826H99.4584V77.6074Z" fill="#A5170E"/>
<path d="M82.8999 88.3833H68.3474V97.1585H82.8999V88.3833Z" fill="#A5170E"/>
<path d="M99.4584 88.3833H84.9069V97.1585H99.4584V88.3833Z" fill="#A5170E"/>
<path d="M62.5014 22.4395L43.5906 37.6138L39.536 62.6238L39.3456 47.0238C39.3297 46.8584 39.2714 46.6999 39.1765 46.5633C39.0815 46.4268 38.953 46.3167 38.8032 46.2438C38.6543 46.1705 38.4899 46.1341 38.3238 46.1377C38.1578 46.1412 37.9951 46.1846 37.8495 46.2641L30.5723 50.4537L30.0402 48.4839L10.6195 64.0496V113.366H22.684V80.5693C22.6818 80.0175 22.8996 79.4874 23.2895 79.0954C23.6794 78.7035 24.2095 78.4818 24.7634 78.4791H49.1608C49.4363 78.4789 49.709 78.5327 49.9635 78.6376C50.2181 78.7424 50.4493 78.8962 50.6442 79.0901C50.839 79.2841 50.9936 79.5144 51.099 79.7679C51.2045 80.0213 51.2587 80.2931 51.2587 80.5675V113.369H114.381V64.0191L62.5014 22.4395ZM51.3572 49.609C51.3546 47.4129 52.0058 45.2653 53.2283 43.4379C54.4508 41.6105 56.1898 40.1854 58.2253 39.3427C60.2608 38.5 62.5014 38.2777 64.6638 38.7039C66.8261 39.13 68.8131 40.1854 70.3733 41.7367C71.9336 43.288 72.9971 45.2654 73.4293 47.4189C73.8615 49.5724 73.643 51.8052 72.8015 53.835C71.9599 55.8648 70.5332 57.6003 68.7016 58.8221C66.87 60.044 64.7158 60.6972 62.5116 60.6992H62.5014C59.5488 60.6965 56.7178 59.5276 54.6288 57.4488C52.5398 55.3699 51.3633 52.5507 51.3572 49.609ZM101.463 98.1595C101.463 98.2909 101.437 98.421 101.387 98.5423C101.337 98.6637 101.263 98.7739 101.169 98.8668C101.076 98.9597 100.965 99.0334 100.844 99.0836C100.722 99.1339 100.591 99.1598 100.46 99.1598H67.3482C67.2164 99.1598 67.0858 99.1339 66.964 99.0836C66.8422 99.0334 66.7315 98.9597 66.6383 98.8668C66.5451 98.7739 66.4712 98.6637 66.4207 98.5423C66.3703 98.421 66.3443 98.2909 66.3443 98.1595V76.6092C66.3438 76.4775 66.3694 76.347 66.4196 76.2253C66.4699 76.1035 66.5437 75.9928 66.637 75.8995C66.7303 75.8062 66.8411 75.7322 66.9632 75.6817C67.0852 75.6312 67.216 75.6053 67.3482 75.6053H100.46C100.726 75.6053 100.981 75.7106 101.169 75.8982C101.358 76.0858 101.463 76.3402 101.463 76.6055V98.1595Z" fill="#A5170E"/>
<path d="M28.9564 46.7798L6.41353 64.8595C6.23314 65.0009 6.01061 65.0783 5.7811 65.0797C5.71105 65.0778 5.64123 65.071 5.57214 65.0593C5.4257 65.0277 5.2883 64.9636 5.17013 64.8718C5.05195 64.7801 4.95606 64.6629 4.88956 64.5291L0.11055 55.0702C0.00583072 54.868 -0.0253962 54.636 0.0221776 54.4135C0.0697514 54.191 0.19319 53.9918 0.371511 53.8497L24.6613 34.1101C24.7894 34.0013 24.9437 33.9274 25.1091 33.8958C25.2745 33.8642 25.4453 33.8758 25.6048 33.9297C25.7642 33.9805 25.9083 34.0703 26.024 34.1909C26.1396 34.3115 26.2232 34.459 26.2669 34.6199L29.2991 45.7416C29.3486 45.9294 29.3427 46.1275 29.2819 46.312C29.2211 46.4965 29.1081 46.6596 28.9564 46.7816" fill="#A5170E"/>
</g>
</g>
<defs>
<clipPath id="clip0_3_52">
<rect width="125" height="126" fill="white"/>
</clipPath>
</defs>
</svg>
