<svg width="125" height="125" viewBox="0 0 125 125" fill="none" xmlns="http://www.w3.org/2000/svg">
<g clip-path="url(#clip0_3_74)">
<path d="M50 54.1665H37.5V62.4998H50V54.1665Z" fill="#A5170E"/>
<path d="M87.5 54.1665H75V62.4998H87.5V54.1665Z" fill="#A5170E"/>
<mask id="mask0_3_74" style="mask-type:luminance" maskUnits="userSpaceOnUse" x="0" y="0" width="125" height="125">
<path d="M125 0H0V125H125V0Z" fill="white"/>
</mask>
<g mask="url(#mask0_3_74)">
<path fill-rule="evenodd" clip-rule="evenodd" d="M120.903 120.831H4.16668V116.664H120.9L120.903 120.831ZM72.9583 66.6332C72.6848 66.6332 72.4139 66.5793 72.1611 66.4746C71.9083 66.3699 71.6787 66.2165 71.4852 66.023C71.2918 65.8296 71.1383 65.5999 71.0336 65.3472C70.9289 65.0944 70.875 64.8235 70.875 64.5499V52.0416C70.875 51.489 71.0945 50.9591 71.4852 50.5684C71.8759 50.1777 72.4058 49.9582 72.9583 49.9582H89.6342C90.1867 49.9582 90.7166 50.1777 91.1073 50.5684C91.498 50.9591 91.7175 51.489 91.7175 52.0416V64.5491C91.7175 65.1016 91.498 65.6315 91.1073 66.0222C90.7166 66.4129 90.1867 66.6324 89.6342 66.6324L72.9583 66.6332ZM33.3525 64.5499V52.0416C33.3525 51.489 33.572 50.9591 33.9627 50.5684C34.3534 50.1777 34.8833 49.9582 35.4358 49.9582H52.1133C52.6659 49.9582 53.1958 50.1777 53.5865 50.5684C53.9772 50.9591 54.1967 51.489 54.1967 52.0416V64.5491C54.1967 65.1016 53.9772 65.6315 53.5865 66.0222C53.1958 66.4129 52.6659 66.6324 52.1133 66.6324H35.4375C34.885 66.6324 34.3551 66.4129 33.9644 66.0222C33.5737 65.6315 33.3542 65.1016 33.3542 64.5491M83.3825 112.493V74.9716H64.6208V93.7324H68.7875C69.34 93.7324 69.87 93.9519 70.2607 94.3426C70.6514 94.7333 70.8708 95.2632 70.8708 95.8157C70.8708 96.3683 70.6514 96.8982 70.2607 97.2889C69.87 97.6796 69.34 97.8991 68.7875 97.8991H64.6208V112.491H60.4542V97.8991H56.2875C55.735 97.8991 55.2051 97.6796 54.8144 97.2889C54.4237 96.8982 54.2042 96.3683 54.2042 95.8157C54.2042 95.2632 54.4237 94.7333 54.8144 94.3426C55.2051 93.9519 55.735 93.7324 56.2875 93.7324H60.4542V74.9716H41.6908V112.493H37.5242V72.8866C37.5242 72.334 37.7437 71.8041 38.1344 71.4134C38.5251 71.0227 39.055 70.8032 39.6075 70.8032H85.4675C86.02 70.8032 86.5499 71.0227 86.9407 71.4134C87.3314 71.8041 87.5508 72.334 87.5508 72.8866V112.492L83.3825 112.493ZM7.25001 58.2949L26.8217 39.3924L32.7167 33.7016L62.5358 4.90989L117.826 58.2949H109.232L63.9742 15.0949C63.5866 14.7251 63.0715 14.5187 62.5358 14.5187C62.0002 14.5187 61.485 14.7251 61.0975 15.0949L15.8408 58.2949H7.25001ZM16.6767 4.09489H33.3525V8.26156H16.6767V4.09489ZM122.988 112.493H112.565V62.4641H122.988C123.403 62.4646 123.809 62.3408 124.154 62.1087C124.499 61.8766 124.766 61.5467 124.922 61.1614C125.077 60.7762 125.114 60.3532 125.028 59.9467C124.941 59.5403 124.735 59.1691 124.436 58.8807L63.985 0.511561C63.5963 0.134326 63.0759 -0.0766602 62.5342 -0.0766602C61.9925 -0.0766602 61.4721 0.134326 61.0833 0.511561L33.3525 27.2916V12.4357H35.4358C35.9884 12.4357 36.5183 12.2162 36.909 11.8255C37.2997 11.4348 37.5192 10.9049 37.5192 10.3524V2.01156C37.5192 1.45903 37.2997 0.929123 36.909 0.538422C36.5183 0.147721 35.9884 -0.0717723 35.4358 -0.0717723H14.5917C14.0391 -0.0717723 13.5092 0.147721 13.1185 0.538422C12.7278 0.929123 12.5083 1.45903 12.5083 2.01156V10.3507C12.5083 10.9033 12.7278 11.4332 13.1185 11.8239C13.5092 12.2146 14.0391 12.4341 14.5917 12.4341H16.675V43.3924L0.635847 58.8807C0.336667 59.1691 0.130553 59.5403 0.0439942 59.9467C-0.0425645 60.3532 -0.00561323 60.7762 0.150099 61.1614C0.305812 61.5467 0.573171 61.8766 0.917818 62.1087C1.26247 62.3408 1.66865 62.4646 2.08418 62.4641H12.5075V112.492H2.08335C1.53081 112.492 1.00091 112.712 0.610208 113.103C0.219508 113.493 1.41486e-05 114.023 1.41486e-05 114.576V122.914C1.41486e-05 123.467 0.219508 123.996 0.610208 124.387C1.00091 124.778 1.53081 124.997 2.08335 124.997H122.988C123.54 124.997 124.07 124.778 124.461 124.387C124.851 123.996 125.071 123.467 125.071 122.914V114.581C125.071 114.028 124.851 113.498 124.461 113.108C124.07 112.717 123.54 112.497 122.988 112.497" fill="#A5170E"/>
</g>
</g>
<defs>
<clipPath id="clip0_3_74">
<rect width="125" height="125" fill="white"/>
</clipPath>
</defs>
</svg>
