<svg width="125" height="94" viewBox="0 0 125 94" fill="none" xmlns="http://www.w3.org/2000/svg">
<g clip-path="url(#clip0_3_19)">
<mask id="mask0_3_19" style="mask-type:luminance" maskUnits="userSpaceOnUse" x="0" y="0" width="125" height="94">
<path d="M125 0H0V94H125V0Z" fill="white"/>
</mask>
<g mask="url(#mask0_3_19)">
<path fill-rule="evenodd" clip-rule="evenodd" d="M10.7273 31.6781C10.7657 31.6519 10.8056 31.6279 10.8468 31.6064L49.8056 8.03624C50.2024 7.78941 50.6604 7.6586 51.1276 7.6586C51.5949 7.6586 52.0528 7.78941 52.4497 8.03624L86.3314 28.5342H98.2838L51.1296 0.0012207L0.517937 30.6215L3.50603 36.0415L10.7273 31.6781ZM11.5998 87.801H0V93.9932H64.6418V87.801H11.5998ZM45.5519 52.5668H23.7348V84.3985H45.5439L45.5519 52.5668ZM53.0699 24.4818C59.076 24.4818 58.0786 23.4557 58.0786 29.7317C58.0824 29.9573 57.9973 30.1754 57.8418 30.3388C57.6862 30.5022 57.4727 30.5978 57.2473 30.6049C51.2412 30.6049 52.2386 31.6296 52.2386 25.355C52.2344 25.1292 52.3194 24.9109 52.475 24.7475C52.6307 24.584 52.8444 24.4885 53.0699 24.4818ZM45.0087 32.9335C51.0134 32.9335 50.0174 31.9061 50.0174 38.178C50.0215 38.404 49.9364 38.6225 49.7805 38.786C49.6245 38.9495 49.4105 39.0448 49.1847 39.0513C43.18 39.0513 44.1773 40.0773 44.1773 33.8067C44.1722 33.5806 44.2568 33.3617 44.4126 33.1981C44.5685 33.0344 44.7828 32.9392 45.0087 32.9335ZM53.0699 32.9335C59.0746 32.9335 58.0786 31.9061 58.0786 38.178C58.0827 38.4038 57.9978 38.6221 57.8421 38.7855C57.6865 38.949 57.4728 39.0445 57.2473 39.0513C51.2412 39.0513 52.2386 40.0773 52.2386 33.8067C52.2344 33.5809 52.3194 33.3626 52.475 33.1992C52.6307 33.0357 52.8444 32.9402 53.0699 32.9335ZM45.0087 24.4818C51.0134 24.4818 50.0174 23.4557 50.0174 29.7317C50.0212 29.9575 49.9359 30.1758 49.7801 30.3392C49.6242 30.5027 49.4103 30.5981 49.1847 30.6049C43.18 30.6049 44.1773 31.6296 44.1773 25.355C44.1722 25.1289 44.2568 24.9101 44.4126 24.7464C44.5685 24.5827 44.7828 24.4875 45.0087 24.4818ZM70.187 93.9992H67.7209L67.7149 31.6057H125.001V93.9939L122.534 93.9999V51.029C122.534 50.621 122.372 50.2297 122.084 49.9412C121.795 49.6527 121.404 49.4906 120.997 49.4906H71.7183C71.3105 49.4906 70.9193 49.6526 70.6308 49.9411C70.3423 50.2296 70.1801 50.6209 70.1797 51.029L70.187 93.9992ZM119.457 52.5668H73.2555V93.9966H119.457V52.5668ZM81.4555 74.8164H111.263V71.7456H81.4542L81.4555 74.8164ZM81.4555 84.7481H111.263V81.6739H81.4542L81.4555 84.7481ZM81.4555 64.8835H111.263V61.8133H81.4542L81.4555 64.8835ZM51.1296 10.8207L80.3997 28.5328H66.179C65.7713 28.5332 65.3804 28.6953 65.092 28.9837C64.8035 29.2721 64.6412 29.6632 64.6405 30.0713V84.7308H48.6196V51.0304C48.6196 50.828 48.5798 50.6276 48.5023 50.4407C48.4249 50.2537 48.3114 50.0839 48.1683 49.9409C48.0252 49.7979 47.8554 49.6845 47.6685 49.6072C47.4816 49.53 47.2813 49.4903 47.0791 49.4906H22.2016C21.7936 49.491 21.4025 49.6533 21.114 49.942C20.8256 50.2307 20.6634 50.6221 20.663 51.0304V84.7308H13.1138V33.8266L51.1296 10.8207Z" fill="#A5170E"/>
</g>
</g>
<defs>
<clipPath id="clip0_3_19">
<rect width="125" height="94" fill="white"/>
</clipPath>
</defs>
</svg>
