<svg width="132" height="132" viewBox="0 0 132 132" fill="none" xmlns="http://www.w3.org/2000/svg">
<g clip-path="url(#clip0_1_428)">
<mask id="mask0_1_428" style="mask-type:luminance" maskUnits="userSpaceOnUse" x="4" y="19" width="125" height="113">
<path d="M129 19H4V132H129V19Z" fill="white"/>
</mask>
<g mask="url(#mask0_1_428)">
<path d="M30.3708 98.7558H38.2373V106.567H30.3708V98.7558ZM41.1791 98.7558H49.0519V106.567H41.1791V98.7558ZM83.9473 98.7558H91.8193V106.567H83.9473V98.7558ZM94.7611 98.7558H102.628V106.567H94.7611V98.7558ZM30.3708 88.0552H38.2373V95.8664H30.3708V88.0552ZM41.1791 88.0552H49.0519V95.8664H41.1791V88.0552ZM83.9473 88.0552H91.8193V95.8664H83.9473V88.0552ZM94.7611 88.0552H102.628V95.8664H94.7611V88.0552ZM55.863 83.0529H77.1377V129.116H55.863V83.0529ZM23.4849 74.2587V132H109.514V74.046L66.6114 36.0996L23.4849 74.2587Z" fill="#A5170E"/>
<path d="M66.5 19L4 74.2974H19.1403L19.4519 74.0213L66.4953 32.399L112.395 73.0089L113.936 74.2974H129L104.006 52.1846V33.3997H93.0157V42.46L66.5 19Z" fill="#A5170E"/>
</g>
</g>
<defs>
<clipPath id="clip0_1_428">
<rect width="125" height="113" fill="white" transform="translate(4 19)"/>
</clipPath>
</defs>
</svg>
