<svg width="132" height="132" viewBox="0 0 132 132" fill="none" xmlns="http://www.w3.org/2000/svg">
<g clip-path="url(#clip0_1_455)">
<mask id="mask0_1_455" style="mask-type:luminance" maskUnits="userSpaceOnUse" x="4" y="30" width="125" height="102">
<path d="M129 30H4V132H129V30Z" fill="white"/>
</mask>
<g mask="url(#mask0_1_455)">
<path d="M9.49985 30L4 57.6696H17.3753L29.8751 41.2922L43.2497 57.6696H54.1246L66.4997 41.2922L78.9994 57.6703H91.4992L103.374 41.2922L115.625 57.6703H129L122.25 30H9.49985Z" fill="#A5170E"/>
<path d="M22.2499 100.11H37.3748V119.345H22.2499V100.11ZM95.5018 100.11H110.625V119.345H95.499L95.5018 100.11ZM22.2499 67.5973H37.3748V86.7067H22.2499V67.5973ZM58.8751 67.5973H73.9987V86.7067H58.8751V67.5973ZM95.499 67.5973H110.625V86.7067H95.499V67.5973ZM55.3752 59.904H41.9999L29.8751 45.1382L18.6216 59.904H9.99963V131.998H50.4992V100.11H65.6248V132H67.2497V100.11H82.3753V132H122.876V59.904H114.375L103.374 45.262L92.7498 59.904H77.7489L66.4982 45.1382L55.3752 59.904Z" fill="#A5170E"/>
</g>
</g>
<defs>
<clipPath id="clip0_1_455">
<rect width="125" height="102" fill="white" transform="translate(4 30)"/>
</clipPath>
</defs>
</svg>
