<svg width="132" height="132" viewBox="0 0 132 132" fill="none" xmlns="http://www.w3.org/2000/svg">
<g clip-path="url(#clip0_1_446)">
<mask id="mask0_1_446" style="mask-type:luminance" maskUnits="userSpaceOnUse" x="3" y="6" width="125" height="126">
<path d="M128 6H3V132H128V6Z" fill="white"/>
</mask>
<g mask="url(#mask0_1_446)">
<path d="M81.1271 103.128H66.8036V131.989H81.1271V103.128Z" fill="#A5170E"/>
<path d="M61.5952 103.128H47.2717V131.989H61.5952V103.128Z" fill="#A5170E"/>
<path d="M108.66 6H21.4904V16.6444H108.66V6Z" fill="#A5170E"/>
<path d="M26.4328 71.6362H42.0554V87.3744H26.4328V71.6362ZM47.2636 71.6362H62.8914V87.3744H47.2636V71.6362ZM68.0975 71.6362H83.7252V87.3744H68.0975V71.6362ZM88.9313 71.6362H104.559V87.3744H88.9313V71.6362ZM26.4328 50.6481H42.0554V66.3864H26.4328V50.6481ZM47.2636 50.6481H62.8914V66.3864H47.2636V50.6481ZM68.0975 50.6481H83.7252V66.3864H68.0975V50.6481ZM88.9313 50.6481H104.559V66.3864H88.9313V50.6481ZM26.4328 29.66H42.0554V45.4035H26.4328V29.66ZM47.2636 29.66H62.8914V45.4035H47.2636V29.66ZM68.0975 29.66H83.7252V45.4035H68.0975V29.66ZM88.9313 29.66H104.559V45.4035H88.9313V29.66ZM21.2297 21.8025V126.753H3V132H23.8338V131.99H42.0635V97.8838H86.3353V131.99H107.166V132H128V126.753H109.773V21.8025H21.2297Z" fill="#A5170E"/>
<path d="M125.83 29.9495H115.264V121.756H125.83V29.9495Z" fill="#A5170E"/>
<path d="M16.2073 29.9495H5.64111V121.756H16.2073V29.9495Z" fill="#A5170E"/>
</g>
</g>
<defs>
<clipPath id="clip0_1_446">
<rect width="125" height="126" fill="white" transform="translate(3 6)"/>
</clipPath>
</defs>
</svg>
