<svg width="132" height="132" viewBox="0 0 132 132" fill="none" xmlns="http://www.w3.org/2000/svg">
<g clip-path="url(#clip0_1_447)">
<mask id="mask0_1_447" style="mask-type:luminance" maskUnits="userSpaceOnUse" x="4" y="16" width="125" height="116">
<path d="M129 16H4V132H129V16Z" fill="white"/>
</mask>
<g mask="url(#mask0_1_447)">
<mask id="mask1_1_447" style="mask-type:luminance" maskUnits="userSpaceOnUse" x="4" y="16" width="125" height="116">
<path d="M129 16H4V132H129V16Z" fill="white"/>
</mask>
<g mask="url(#mask1_1_447)">
<path fill-rule="evenodd" clip-rule="evenodd" d="M128.998 131.938V27.4373H20.0231V113.279C20.0231 113.656 19.8728 114.017 19.6053 114.284C19.3378 114.55 18.975 114.7 18.5967 114.7H14.022C8.36717 114.7 4 119.354 4 123.35C4 127.347 8.37224 132 14.022 132L128.998 131.938ZM121.418 125.807H27.6054C27.4172 125.81 27.2304 125.775 27.056 125.704C26.8816 125.634 26.7231 125.529 26.59 125.397C26.4569 125.264 26.3519 125.106 26.2811 124.932C26.2104 124.759 26.1753 124.573 26.178 124.385V34.9544C26.1755 34.767 26.2106 34.581 26.2814 34.4074C26.3523 34.2338 26.4573 34.076 26.5904 33.9436C26.7235 33.8111 26.8819 33.7065 27.0562 33.6361C27.2306 33.5657 27.4173 33.5308 27.6054 33.5335H121.418C121.796 33.5335 122.159 33.6832 122.427 33.9496C122.694 34.2161 122.845 34.5775 122.845 34.9544V124.35C122.851 124.54 122.819 124.729 122.749 124.906C122.68 125.083 122.576 125.245 122.443 125.381C122.309 125.517 122.15 125.624 121.974 125.697C121.798 125.771 121.608 125.809 121.418 125.807Z" fill="#A5170E"/>
<path fill-rule="evenodd" clip-rule="evenodd" d="M96.7685 91.417V79.8033C96.7659 79.6159 96.801 79.4299 96.8719 79.2563C96.9427 79.0827 97.0478 78.9249 97.1808 78.7925C97.3139 78.66 97.4723 78.5554 97.6466 78.485C97.821 78.4146 98.0077 78.3797 98.1958 78.3824H119.992V69.4069H83.6558V84.8992C83.6555 85.2761 83.505 85.6375 83.2374 85.904C82.9697 86.1704 82.6068 86.3201 82.2284 86.3201C82.0403 86.323 81.8535 86.2882 81.6791 86.2178C81.5047 86.1474 81.3462 86.0428 81.2131 85.9103C81.08 85.7778 80.9749 85.6201 80.9042 85.4464C80.8334 85.2727 80.7983 85.0866 80.801 84.8992V67.987C80.7983 67.7995 80.8334 67.6134 80.9041 67.4397C80.9749 67.2659 81.0799 67.1081 81.213 66.9755C81.3461 66.8429 81.5046 66.7383 81.679 66.6678C81.8534 66.5973 82.0402 66.5623 82.2284 66.5651H119.988V36.4116H97.9903V54.5713C97.9846 54.9466 97.8324 55.305 97.5659 55.5704C97.2995 55.8358 96.9397 55.9875 96.563 55.9932H74.0519C73.8638 55.9958 73.677 55.9608 73.5027 55.8902C73.3284 55.8196 73.1701 55.715 73.0371 55.5824C72.9042 55.4498 72.7992 55.2921 72.7285 55.1184C72.6578 54.9447 72.6228 54.7587 72.6255 54.5713V36.4116H29.0337V42.9576H48.8956C49.0837 42.9549 49.2705 42.9898 49.4449 43.0604C49.6192 43.1309 49.7776 43.2355 49.9106 43.3681C50.0436 43.5007 50.1486 43.6586 50.2192 43.8323C50.2899 44.0061 50.3248 44.1922 50.3219 44.3796V66.3886C50.3219 66.7654 50.1717 67.1269 49.9042 67.3933C49.6367 67.6598 49.2739 67.8095 48.8956 67.8095H29.0337V74.3566H59.5422V57.0289C59.5371 56.8391 59.5703 56.6501 59.6397 56.4732C59.7091 56.2964 59.8134 56.1351 59.9464 55.9991C60.0794 55.863 60.2384 55.7548 60.4141 55.681C60.5897 55.6071 60.7784 55.5691 60.9691 55.5691C61.1597 55.5691 61.3484 55.6071 61.5241 55.681C61.6997 55.7548 61.8587 55.863 61.9917 55.9991C62.1247 56.1351 62.229 56.2964 62.2984 56.4732C62.3679 56.6501 62.401 56.8391 62.3959 57.0289V75.7775C62.3987 75.965 62.3636 76.1511 62.2929 76.3249C62.2221 76.4986 62.117 76.6564 61.984 76.789C61.8509 76.9216 61.6924 77.0262 61.518 77.0967C61.3436 77.1672 61.1568 77.2022 60.9686 77.1994H29.0327V93.1072H60.9686C61.347 93.1074 61.71 93.2573 61.9776 93.5239C62.2452 93.7905 62.3957 94.1521 62.3959 94.5291V122.968H70.4854V102.883C70.4827 102.696 70.5178 102.51 70.5885 102.336C70.6593 102.162 70.7643 102.004 70.8974 101.872C71.0305 101.739 71.189 101.635 71.3634 101.564C71.5378 101.494 71.7246 101.459 71.9128 101.461H100.879C101.067 101.459 101.254 101.494 101.428 101.564C101.602 101.635 101.761 101.739 101.894 101.872C102.027 102.005 102.132 102.162 102.202 102.336C102.273 102.51 102.308 102.696 102.305 102.883V122.965H119.995V92.8409H98.1948C97.818 92.8357 97.4581 92.6842 97.1917 92.4186C96.9253 92.153 96.7734 91.7944 96.7685 91.419V91.417Z" fill="#A5170E"/>
<path d="M99.4442 104.304H73.3384V122.963H99.4442V104.304Z" fill="#A5170E"/>
<path fill-rule="evenodd" clip-rule="evenodd" d="M29.0327 122.963H35.0672V102.255C35.0645 102.068 35.0995 101.882 35.1702 101.708C35.2409 101.534 35.3458 101.376 35.4788 101.244C35.6118 101.111 35.7701 101.007 35.9444 100.936C36.1187 100.865 36.3054 100.83 36.4936 100.833H52.0449C52.4234 100.833 52.7863 100.983 53.0539 101.25C53.3216 101.516 53.472 101.878 53.4723 102.255V122.963H59.5068V95.9258H29.0358L29.0327 122.963Z" fill="#A5170E"/>
<path d="M50.6197 103.679H37.9221V122.964H50.6197V103.679Z" fill="#A5170E"/>
<path d="M47.4662 45.7732H29.0327V64.9383H47.4662V45.7732Z" fill="#A5170E"/>
<path d="M95.1346 36.4116H75.4792V53.1483H95.1346V36.4116Z" fill="#A5170E"/>
<path d="M120.021 81.197H99.6506V89.9657H120.021V81.197Z" fill="#A5170E"/>
<path fill-rule="evenodd" clip-rule="evenodd" d="M14.022 111.856H17.1704V15.999H14.022C11.364 15.999 8.81488 17.0509 6.93538 18.9232C5.05589 20.7956 4 23.335 4 25.9829V116.382C5.26319 114.975 6.80679 113.846 8.53235 113.067C10.2579 112.288 12.1275 111.875 14.022 111.856Z" fill="#A5170E"/>
</g>
</g>
</g>
<defs>
<clipPath id="clip0_1_447">
<rect width="125" height="116" fill="white" transform="translate(4 16)"/>
</clipPath>
</defs>
</svg>
