<svg width="132" height="132" viewBox="0 0 132 132" fill="none" xmlns="http://www.w3.org/2000/svg">
<g clip-path="url(#clip0_1_426)">
<mask id="mask0_1_426" style="mask-type:luminance" maskUnits="userSpaceOnUse" x="4" y="16" width="125" height="116">
<path d="M129 16H4V132H129V16Z" fill="white"/>
</mask>
<g mask="url(#mask0_1_426)">
<mask id="mask1_1_426" style="mask-type:luminance" maskUnits="userSpaceOnUse" x="4" y="16" width="125" height="116">
<path d="M129 16H4V132H129V16Z" fill="white"/>
</mask>
<g mask="url(#mask1_1_426)">
<path fill-rule="evenodd" clip-rule="evenodd" d="M40.8838 16H40.3727C39.8655 16.0021 39.3797 16.2033 39.0211 16.5596C38.6625 16.916 38.46 17.3987 38.4579 17.9027V26.5744C38.46 27.0784 38.6625 27.5611 39.0211 27.9175C39.3797 28.2739 39.8655 28.475 40.3727 28.4771H40.8838C41.3909 28.475 41.8767 28.2739 42.2354 27.9175C42.594 27.5611 42.7964 27.0784 42.7985 26.5744V17.9027C42.7964 17.3987 42.594 16.916 42.2354 16.5596C41.8767 16.2033 41.3909 16.0021 40.8838 16ZM95.0764 16H94.5704C94.0631 16.0019 93.577 16.2029 93.2182 16.5593C92.8593 16.9157 92.6568 17.3986 92.6546 17.9027V26.5744C92.6568 27.0784 92.8592 27.5611 93.2178 27.9175C93.5764 28.2739 94.0622 28.475 94.5694 28.4771H95.0835C95.5909 28.4753 96.0769 28.2743 96.4358 27.9179C96.7946 27.5615 96.9972 27.0786 96.9993 26.5744V17.9027C96.9972 17.3973 96.7936 16.9134 96.4333 16.5568C96.0729 16.2002 95.585 16 95.0764 16ZM62.0394 23.7435V26.5714C62.0416 28.0019 62.6145 29.3731 63.6325 30.3845C64.6505 31.3959 66.0305 31.9649 67.47 31.9667H67.9761C69.4153 31.9638 70.7947 31.3945 71.8125 30.3833C72.8302 29.3722 73.4035 28.0015 73.4067 26.5714V23.7435H89.1388V26.5714C89.142 28.0015 89.7152 29.3722 90.733 30.3833C91.7508 31.3945 93.1302 31.9638 94.5694 31.9667H95.0835C96.5227 31.9641 97.9022 31.3948 98.9199 30.3836C99.9375 29.3723 100.51 28.0015 100.513 26.5714V23.7435H113.717C114.472 23.7462 115.195 24.0453 115.729 24.5756C116.262 25.1059 116.563 25.8244 116.566 26.5744V42.323H18.8901V26.5775C18.892 25.8269 19.1927 25.1077 19.7264 24.5767C20.2602 24.0457 20.9837 23.7462 21.739 23.7435H34.9431V26.5714C34.945 28.0021 35.5175 29.3736 36.5353 30.3855C37.553 31.3974 38.933 31.9671 40.3727 31.9698H40.8787C42.3179 31.9671 43.6974 31.3978 44.7151 30.3866C45.7327 29.3753 46.3056 28.0045 46.3083 26.5744V23.7435H62.0394ZM65.5532 21.9937V26.5744C65.5554 27.0788 65.7581 27.5618 66.1171 27.9182C66.4762 28.2746 66.9625 28.4755 67.47 28.4771H67.9761C68.4836 28.4755 68.9699 28.2746 69.329 27.9182C69.688 27.5618 69.8907 27.0788 69.8929 26.5744V17.9027C69.8907 17.3989 69.6884 16.9163 69.33 16.56C68.9716 16.2036 68.4861 16.0024 67.9791 16H67.4731C66.9655 16.0016 66.4792 16.2025 66.1202 16.5589C65.7611 16.9153 65.5584 17.3984 65.5563 17.9027V21.9937H65.5532ZM40.317 63.5794H32.0183V71.8258H40.317V63.5794ZM30.2614 60.0868H42.0668C42.2976 60.0867 42.5261 60.1317 42.7393 60.2194C42.9526 60.3071 43.1463 60.4357 43.3095 60.5978C43.4726 60.76 43.602 60.9525 43.6903 61.1644C43.7785 61.3762 43.8239 61.6033 43.8237 61.8326V73.5716C43.8239 73.8009 43.7785 74.028 43.6903 74.2398C43.602 74.4517 43.4726 74.6442 43.3095 74.8064C43.1463 74.9685 42.9526 75.0971 42.7393 75.1848C42.5261 75.2725 42.2976 75.3175 42.0668 75.3174H30.2614C30.0306 75.3175 29.8021 75.2725 29.5889 75.1848C29.3757 75.0971 29.182 74.9685 29.0188 74.8064C28.8556 74.6442 28.7262 74.4517 28.638 74.2398C28.5497 74.028 28.5044 73.8009 28.5045 73.5716V61.8326C28.5044 61.6033 28.5497 61.3762 28.638 61.1644C28.7262 60.9525 28.8556 60.76 29.0188 60.5978C29.182 60.4357 29.3757 60.3071 29.5889 60.2194C29.8021 60.1317 30.0306 60.0867 30.2614 60.0868ZM61.3614 63.5794H53.0556V71.8258H61.3614V63.5794ZM51.3057 60.0868H63.1112C63.3419 60.0867 63.5705 60.1317 63.7837 60.2194C63.9969 60.3071 64.1906 60.4357 64.3538 60.5978C64.517 60.76 64.6464 60.9525 64.7346 61.1644C64.8229 61.3762 64.8682 61.6033 64.8681 61.8326V73.5716C64.8682 73.8009 64.8229 74.028 64.7346 74.2398C64.6464 74.4517 64.517 74.6442 64.3538 74.8064C64.1906 74.9685 63.9969 75.0971 63.7837 75.1848C63.5705 75.2725 63.3419 75.3175 63.1112 75.3174H51.2987C50.833 75.3166 50.3865 75.1324 50.0572 74.8052C49.7279 74.478 49.5426 74.0344 49.5418 73.5716V61.8326C49.5426 61.3698 49.7279 60.9262 50.0572 60.599C50.3865 60.2718 50.833 60.0876 51.2987 60.0868H51.3057ZM103.426 63.5794H95.127V71.8258H103.426V63.5794ZM93.3701 60.0868H105.188C105.418 60.0867 105.647 60.1317 105.86 60.2194C106.073 60.3071 106.267 60.4357 106.43 60.5978C106.594 60.76 106.723 60.9525 106.811 61.1644C106.899 61.3762 106.945 61.6033 106.945 61.8326V73.5716C106.945 73.8009 106.899 74.028 106.811 74.2398C106.723 74.4517 106.594 74.6442 106.43 74.8064C106.267 74.9685 106.073 75.0971 105.86 75.1848C105.647 75.2725 105.418 75.3175 105.188 75.3174H93.3752C93.1444 75.3175 92.9159 75.2725 92.7027 75.1848C92.4895 75.0971 92.2958 74.9685 92.1326 74.8064C91.9694 74.6442 91.84 74.4517 91.7518 74.2398C91.6635 74.028 91.6182 73.8009 91.6183 73.5716V61.8326C91.6182 61.6033 91.6635 61.3762 91.7518 61.1644C91.84 60.9525 91.9694 60.76 92.1326 60.5978C92.2958 60.4357 92.4895 60.3071 92.7027 60.2194C92.9159 60.1317 93.1444 60.0867 93.3752 60.0868M82.3936 63.5794H74.0948V71.8258H82.3936V63.5794ZM72.3339 60.0868H84.1393C84.605 60.0876 85.0515 60.2718 85.3808 60.599C85.7101 60.9262 85.8954 61.3698 85.8962 61.8326V73.5716C85.8954 74.0344 85.7101 74.478 85.3808 74.8052C85.0515 75.1324 84.605 75.3166 84.1393 75.3174H72.3339C72.1031 75.3175 71.8746 75.2725 71.6614 75.1848C71.4482 75.0971 71.2545 74.9685 71.0913 74.8064C70.9281 74.6442 70.7987 74.4517 70.7105 74.2398C70.6222 74.028 70.5769 73.8009 70.577 73.5716V61.8326C70.5769 61.6033 70.6222 61.3762 70.7105 61.1644C70.7987 60.9525 70.9281 60.76 71.0913 60.5978C71.2545 60.4357 71.4482 60.3071 71.6614 60.2194C71.8746 60.1317 72.1031 60.0867 72.3339 60.0868ZM82.3895 83.6965H74.0908V91.9428H82.3895V83.6965ZM72.3339 80.2079H84.1393C84.3701 80.2078 84.5986 80.2528 84.8118 80.3405C85.025 80.4282 85.2188 80.5568 85.382 80.7189C85.5451 80.8811 85.6745 81.0736 85.7628 81.2854C85.851 81.4973 85.8964 81.7244 85.8962 81.9537V93.6917C85.8964 93.921 85.851 94.1481 85.7628 94.3599C85.6745 94.5718 85.5451 94.7643 85.382 94.9265C85.2188 95.0886 85.025 95.2172 84.8118 95.3049C84.5986 95.3926 84.3701 95.4376 84.1393 95.4375H72.3339C72.1031 95.4376 71.8746 95.3926 71.6614 95.3049C71.4482 95.2172 71.2545 95.0886 71.0913 94.9265C70.9281 94.7643 70.7987 94.5718 70.7105 94.3599C70.6222 94.1481 70.5769 93.921 70.577 93.6917V81.9507C70.5778 81.4882 70.7633 81.0449 71.0927 80.7182C71.4221 80.3914 71.8685 80.2079 72.3339 80.2079ZM53.0556 90.3408C53.7748 90.8443 54.4694 91.3783 55.1394 91.9428H61.3614V83.6965H53.0556V90.3408ZM67.0774 119.404H5.16789C4.85898 119.406 4.5633 119.529 4.34477 119.746C4.12623 119.963 4.00239 120.257 4 120.564V124.923C4.00212 125.23 4.12585 125.524 4.34441 125.742C4.56298 125.959 4.8588 126.082 5.16789 126.084H67.0774C67.3863 126.081 67.6818 125.958 67.9002 125.741C68.1185 125.524 68.2421 125.23 68.2442 124.923V120.564C68.2421 120.257 68.1185 119.963 67.9002 119.746C67.6818 119.529 67.3863 119.407 67.0774 119.404ZM31.6489 98.2523V82.9664C31.6826 82.9634 31.7164 82.9634 31.7501 82.9664H40.5002C40.5339 82.9634 40.5677 82.9634 40.6014 82.9664V98.2523C40.6014 98.7153 40.7865 99.1594 41.116 99.4868C41.4455 99.8142 41.8924 99.9981 42.3583 99.9981C42.8243 99.9981 43.2711 99.8142 43.6006 99.4868C43.9301 99.1594 44.1152 98.7153 44.1152 98.2523V89.7304C46.2775 90.4319 48.3377 91.4124 50.2431 92.6468C50.3054 92.6938 50.3706 92.7368 50.4384 92.7755C51.4233 93.4259 52.363 94.1415 53.2509 94.9176C53.3029 94.9687 53.3576 95.0171 53.4148 95.0624C54.5229 96.0456 55.545 97.1205 56.4702 98.2754C59.243 101.728 61.0742 105.832 61.7874 110.192L61.7955 110.24C62.011 111.585 62.1192 112.946 62.1194 114.309V115.918H10.135V114.309C10.1321 108.484 12.1236 102.831 15.7822 98.2795C18.9688 94.2898 23.2641 91.3176 28.1351 89.7314V98.2493C28.1351 98.7123 28.3202 99.1564 28.6497 99.4838C28.9792 99.8112 29.4261 99.9951 29.892 99.9951C30.358 99.9951 30.8048 99.8112 31.1343 99.4838C31.4638 99.1564 31.6489 98.7123 31.6489 98.2493M108.463 88.1153H105.375L104.49 88.9943V91.8926C104.49 92.2876 104.355 92.6708 104.107 92.9793C103.858 93.2878 103.512 93.5032 103.124 93.5901C102.198 93.8012 101.291 94.0885 100.413 94.4489C99.5776 94.7926 98.7714 95.2026 98.0023 95.6748C97.6639 95.922 97.2476 96.0407 96.8288 96.0094C96.41 95.978 96.0164 95.7987 95.7191 95.5039L93.6525 93.4543H92.4057L90.2257 95.6266V96.8685L92.2883 98.9181C92.5689 99.1972 92.7458 99.5628 92.7899 99.9549C92.834 100.347 92.7428 100.742 92.5312 101.076C91.5392 102.639 90.8159 104.355 90.3907 106.154C90.3282 106.567 90.1184 106.945 89.7996 107.218C89.4807 107.491 89.0739 107.641 88.653 107.641H85.7353L84.8498 108.52V111.588L85.7343 112.467H88.651C89.0488 112.467 89.4348 112.602 89.7453 112.849C90.0558 113.096 90.2724 113.441 90.3593 113.827C90.7717 115.626 91.4802 117.346 92.4563 118.915C92.7048 119.252 92.8239 119.666 92.792 120.082C92.76 120.498 92.5792 120.889 92.2822 121.184L90.2257 123.24V124.482L92.4148 126.657H93.6535L95.7231 124.6C96.0054 124.324 96.3738 124.15 96.7682 124.108C97.1626 124.067 97.5595 124.159 97.894 124.371C99.4651 125.354 101.189 126.071 102.997 126.494C103.413 126.557 103.793 126.765 104.067 127.082C104.342 127.399 104.493 127.804 104.493 128.222V131.12L105.378 131.999H108.466L109.35 131.12V128.222C109.35 127.827 109.486 127.444 109.734 127.135C109.982 126.827 110.329 126.611 110.716 126.524C112.527 126.114 114.258 125.41 115.838 124.441C116.177 124.194 116.593 124.075 117.012 124.107C117.431 124.139 117.825 124.318 118.122 124.613L120.183 126.662H121.433L123.615 124.494V123.252L121.567 121.198C121.286 120.919 121.109 120.553 121.065 120.16C121.021 119.768 121.112 119.372 121.324 119.038C122.313 117.477 123.035 115.764 123.46 113.969C123.522 113.555 123.732 113.177 124.051 112.903C124.37 112.63 124.778 112.48 125.199 112.479H128.115L129.004 111.59V108.52L128.12 107.641H125.203C124.805 107.641 124.42 107.507 124.109 107.26C123.799 107.013 123.582 106.669 123.495 106.284C123.082 104.485 122.373 102.766 121.397 101.197C121.147 100.861 121.028 100.447 121.06 100.03C121.092 99.614 121.273 99.2228 121.571 98.9281L123.632 96.8786V95.6356L121.44 93.4564H120.201L119.575 94.0789L119.55 94.105L118.133 95.5129C117.852 95.7916 117.484 95.9672 117.089 96.0111C116.695 96.0549 116.297 95.9644 115.961 95.7543C114.389 94.7727 112.665 94.0554 110.858 93.6313C110.442 93.5694 110.062 93.3611 109.787 93.0442C109.512 92.7273 109.361 92.3229 109.361 91.9046V89.0104L108.477 88.1314L108.463 88.1153ZM114.904 101.711L114.959 101.767C117.153 103.871 118.424 106.748 118.497 109.777C118.57 112.805 117.439 115.74 115.35 117.946L115.313 117.984L115.257 118.039C113.14 120.218 110.244 121.482 107.196 121.554C104.148 121.627 101.195 120.503 98.9748 118.427L98.9364 118.391L98.8817 118.334C96.7522 116.207 95.5428 113.337 95.5112 110.337C95.4795 107.337 96.6281 104.443 98.7123 102.272C100.796 100.1 103.651 98.8237 106.669 98.7135C109.686 98.6033 112.628 99.6683 114.867 101.682L114.905 101.719L114.904 101.711ZM95.1321 90.1337V83.6975H103.431V85.1185L103.41 85.1396L101.5 87.0292C101.334 87.1913 101.202 87.3845 101.112 87.5977C101.021 87.811 100.975 88.0399 100.975 88.2712V90.5581C100.332 90.7512 99.6978 90.9761 99.073 91.2329C98.4496 91.4885 97.8396 91.7752 97.2452 92.0917L95.6351 90.4897C95.4889 90.3423 95.3176 90.2218 95.1291 90.1337M106.942 84.6247V81.9507C106.941 81.4882 106.755 81.0449 106.426 80.7182C106.097 80.3914 105.65 80.2079 105.185 80.2079H93.3752C93.1444 80.2078 92.9159 80.2528 92.7027 80.3405C92.4895 80.4282 92.2958 80.5568 92.1326 80.7189C91.9694 80.8811 91.84 81.0736 91.7518 81.2854C91.6635 81.4973 91.6182 81.7244 91.6183 81.9537V89.9718C91.1725 89.9854 90.7487 90.1674 90.4332 90.4806L87.2392 93.6635C87.0728 93.8253 86.9407 94.0186 86.8505 94.2318C86.7603 94.4451 86.7139 94.6742 86.714 94.9055V97.5966C86.7136 97.8258 86.7589 98.0528 86.8471 98.2646C86.9354 98.4763 87.0648 98.6687 87.2281 98.8306L88.8544 100.447C88.5355 101.038 88.2467 101.645 87.9891 102.266C87.7321 102.883 87.5061 103.511 87.3111 104.152H85.0026C84.7719 104.152 84.5434 104.197 84.3303 104.285C84.1172 104.373 83.9236 104.502 83.7608 104.664L81.8562 106.555C81.6901 106.717 81.5581 106.91 81.4679 107.123C81.3777 107.337 81.3312 107.566 81.3309 107.797V108.19H64.9723C64.0142 103.774 62.0397 99.6382 59.2037 96.1073C59.0202 95.8793 58.835 95.6544 58.6481 95.4325H63.1081C63.3389 95.4326 63.5674 95.3875 63.7806 95.2998C63.9939 95.2122 64.1876 95.0836 64.3508 94.9214C64.5139 94.7593 64.6433 94.5668 64.7316 94.3549C64.8198 94.143 64.8652 93.916 64.865 93.6867V81.9507C64.8642 81.4882 64.6788 81.0449 64.3494 80.7182C64.02 80.3914 63.5736 80.2079 63.1081 80.2079H51.2987C51.0679 80.2078 50.8394 80.2528 50.6262 80.3405C50.413 80.4282 50.2192 80.5568 50.0561 80.7189C49.8929 80.8811 49.7635 81.0736 49.6752 81.2854C49.587 81.4973 49.5416 81.7244 49.5418 81.9537V88.226C47.8071 87.3375 45.9875 86.6233 44.1101 86.094V82.6335C44.105 82.1679 43.9904 81.7099 43.7755 81.2961C43.5606 80.8823 43.2514 80.5241 42.8724 80.2501C42.1879 79.7406 41.3544 79.4676 40.4992 79.4728H31.7491C30.8939 79.4676 30.0604 79.7406 29.3759 80.2501C28.9969 80.5241 28.6877 80.8823 28.4728 81.2961C28.2579 81.7099 28.1433 82.1679 28.1381 82.6335V86.094C24.8164 87.0326 21.6865 88.544 18.8911 90.5591V45.8176H116.559V92.0776C115.973 91.7672 115.375 91.4866 114.766 91.2359C114.144 90.9796 113.51 90.7547 112.866 90.5621V88.2742C112.866 87.8115 112.681 87.3676 112.352 87.0403L110.447 85.1477C110.284 84.9826 110.09 84.8514 109.875 84.7618C109.661 84.6722 109.43 84.626 109.197 84.6257L106.942 84.6247Z" fill="#A5170E"/>
</g>
</g>
</g>
<defs>
<clipPath id="clip0_1_426">
<rect width="125" height="116" fill="white" transform="translate(4 16)"/>
</clipPath>
</defs>
</svg>
