<svg width="132" height="132" viewBox="0 0 132 132" fill="none" xmlns="http://www.w3.org/2000/svg">
<g clip-path="url(#clip0_1_427)">
<mask id="mask0_1_427" style="mask-type:luminance" maskUnits="userSpaceOnUse" x="4" y="12" width="125" height="120">
<path d="M129 12H4V132H129V12Z" fill="white"/>
</mask>
<g mask="url(#mask0_1_427)">
<mask id="mask1_1_427" style="mask-type:luminance" maskUnits="userSpaceOnUse" x="4" y="12" width="125" height="120">
<path d="M129 12H4V132H129V12Z" fill="white"/>
</mask>
<g mask="url(#mask1_1_427)">
<path d="M26.3828 117.243L26.4025 131.999H32.4758L32.4561 125.148C32.4548 124.935 32.4955 124.724 32.5757 124.527C32.656 124.33 32.7743 124.151 32.9239 123.999C33.0736 123.848 33.2515 123.728 33.4477 123.645C33.6439 123.562 33.8544 123.519 34.0673 123.518C34.2802 123.517 34.4912 123.557 34.6884 123.638C34.8856 123.718 35.065 123.836 35.2164 123.986C35.3679 124.135 35.4884 124.313 35.571 124.509C35.6537 124.705 35.6969 124.915 35.6982 125.128L35.7178 131.979H42.4368L42.4172 121.615C42.4167 121.402 42.4583 121.191 42.5396 120.995C42.6209 120.798 42.7403 120.619 42.8909 120.469C43.0416 120.318 43.2205 120.199 43.4173 120.117C43.6142 120.036 43.8252 119.995 44.0382 119.995C44.2521 119.991 44.4646 120.031 44.663 120.111C44.8614 120.191 45.0416 120.31 45.1928 120.461C45.3441 120.612 45.4634 120.793 45.5435 120.991C45.6237 121.189 45.663 121.401 45.6593 121.615L45.6789 131.96H52.4176V123.353C52.4148 122.923 52.5828 122.51 52.8848 122.204C53.1868 121.898 53.598 121.725 54.0279 121.722C54.4578 121.719 54.8713 121.887 55.1773 122.189C55.4833 122.491 55.6568 122.902 55.6597 123.331V131.92H62.4171L62.3974 126.825C62.3997 126.394 62.5708 125.982 62.8741 125.676C63.1773 125.37 63.5885 125.195 64.0194 125.188C64.2324 125.188 64.4434 125.229 64.6403 125.31C64.8372 125.392 65.016 125.511 65.1667 125.661C65.3173 125.812 65.4367 125.991 65.518 126.187C65.5993 126.384 65.6409 126.595 65.6404 126.808V131.921H72.3594L72.3398 121.557C72.3397 121.344 72.3815 121.134 72.463 120.937C72.5444 120.741 72.6639 120.562 72.8145 120.412C72.9651 120.262 73.1438 120.143 73.3405 120.062C73.5373 119.981 73.748 119.939 73.9608 119.94C74.389 119.945 74.7981 120.118 75.1009 120.42C75.4037 120.723 75.5763 121.132 75.5819 121.56L75.6015 131.924L82.3205 131.904L82.3009 125.053C82.3064 124.625 82.479 124.216 82.7818 123.914C83.0846 123.611 83.4937 123.439 83.9219 123.433C84.1352 123.431 84.3468 123.472 84.5442 123.552C84.7417 123.633 84.9211 123.752 85.0721 123.903C85.223 124.053 85.3425 124.233 85.4235 124.43C85.5045 124.627 85.5454 124.838 85.5438 125.051L85.5635 131.903L91.6368 131.883L91.5975 117.147L26.3828 117.243Z" fill="#A5170E"/>
<path d="M10.4646 24.9018H21.8707V12H10.4646C9.61776 11.9988 8.77913 12.1655 7.99725 12.4904C7.21537 12.8154 6.50578 13.2922 5.90959 13.8931C5.3014 14.4877 4.81897 15.1984 4.49095 15.983C4.16293 16.7676 3.996 17.61 4.00007 18.4603C4.00598 20.1701 4.68955 21.808 5.90113 23.0153C7.11272 24.2225 8.7536 24.9009 10.4646 24.9018Z" fill="#A5170E"/>
<path d="M38.1989 98.8773H52.5935V85.0776C52.5963 84.4932 52.8299 83.9336 53.2436 83.5206C53.6572 83.1075 54.2174 82.8745 54.8022 82.8721H63.1976C63.782 82.8749 64.3418 83.1082 64.755 83.5212C65.1683 83.9342 65.4017 84.4935 65.4045 85.0776V98.8773H79.8V72.9175H38.1989V98.8773Z" fill="#A5170E"/>
<path d="M34.2343 68.8573H83.7655L59.0195 44.479L34.2343 68.8573ZM63.9041 59.4301C63.9041 60.3952 63.6177 61.3386 63.0812 62.1411C62.5447 62.9435 61.7821 63.569 60.8899 63.9383C59.9977 64.3076 59.0159 64.4042 58.0688 64.216C57.1216 64.0277 56.2516 63.5629 55.5687 62.8805C54.8858 62.1981 54.4208 61.3286 54.2324 60.3821C54.044 59.4355 54.1407 58.4544 54.5103 57.5628C54.8798 56.6712 55.5057 55.9091 56.3086 55.3729C57.1116 54.8367 58.0556 54.5506 59.0213 54.5506C60.3163 54.5506 61.5583 55.0647 62.474 55.9798C63.3896 56.8949 63.9041 58.136 63.9041 59.4301Z" fill="#A5170E"/>
<path d="M128.98 41.0044C128.947 37.8091 127.655 34.7555 125.385 32.505C123.115 30.2546 120.049 28.9885 116.852 28.9809H10.4645C8.12459 28.9822 5.85061 28.2064 4 26.7754V101.473C4.00308 104.576 5.23932 107.551 7.43689 109.744C9.63446 111.937 12.6134 113.167 15.7188 113.165H107.378V47.3085C107.379 47.0191 107.441 46.7331 107.563 46.4703C107.684 46.2075 107.861 45.974 108.081 45.7858C108.292 45.5915 108.543 45.4455 108.816 45.3578C109.089 45.2701 109.378 45.2428 109.663 45.278C126.714 47.288 128.784 41.7649 128.979 41.0036M90.64 71.6681C90.4837 72.042 90.2208 72.3617 89.8839 72.5872C89.547 72.8128 89.1512 72.9342 88.7457 72.9364H83.9022V98.8962H86.871C87.4098 98.8962 87.9265 99.1101 88.3074 99.4908C88.6884 99.8716 88.9024 100.388 88.9024 100.926C88.9024 101.465 88.6884 101.981 88.3074 102.362C87.9265 102.743 87.4098 102.957 86.871 102.957H31.1289C30.5901 102.957 30.0734 102.743 29.6924 102.362C29.3115 101.981 29.0974 101.465 29.0974 100.926C29.0974 100.388 29.3115 99.8716 29.6924 99.4908C30.0734 99.1101 30.5901 98.8962 31.1289 98.8962H34.1173V72.9364H29.2756C28.8696 72.9386 28.4721 72.8194 28.1344 72.594C27.7967 72.3687 27.5341 72.0476 27.3805 71.672C27.2268 71.2964 27.1891 70.8834 27.2722 70.4862C27.3552 70.0889 27.5553 69.7256 27.8466 69.4429L57.5727 40.1672C57.7583 39.9772 57.9801 39.8262 58.225 39.7231C58.4698 39.62 58.7329 39.5669 58.9986 39.5669C59.2643 39.5669 59.5273 39.62 59.7722 39.7231C60.0171 39.8262 60.2389 39.9772 60.4245 40.1672L90.1506 69.4429C90.4496 69.7196 90.6568 70.0811 90.7441 70.4789C90.8314 70.8767 90.7957 71.2917 90.64 71.6681Z" fill="#A5170E"/>
<path d="M111.461 49.5541V130.434H117.457C120.516 130.429 123.448 129.212 125.611 127.051C127.774 124.89 128.993 121.96 129 118.904V47.0166C125.23 49.3979 119.354 50.2566 111.461 49.5541Z" fill="#A5170E"/>
</g>
</g>
</g>
<defs>
<clipPath id="clip0_1_427">
<rect width="125" height="120" fill="white" transform="translate(4 12)"/>
</clipPath>
</defs>
</svg>
