<svg width="132" height="132" viewBox="0 0 132 132" fill="none" xmlns="http://www.w3.org/2000/svg">
<g clip-path="url(#clip0_1_460)">
<mask id="mask0_1_460" style="mask-type:luminance" maskUnits="userSpaceOnUse" x="4" y="7" width="125" height="125">
<path d="M129 7H4V132H129V7Z" fill="white"/>
</mask>
<g mask="url(#mask0_1_460)">
<mask id="mask1_1_460" style="mask-type:luminance" maskUnits="userSpaceOnUse" x="4" y="7" width="125" height="125">
<path d="M129 7H4V132H129V7Z" fill="white"/>
</mask>
<g mask="url(#mask1_1_460)">
<path fill-rule="evenodd" clip-rule="evenodd" d="M36.895 39.4174L67.246 67.6034C67.4075 67.7536 67.52 67.9489 67.569 68.1639C67.618 68.379 67.6011 68.6038 67.5206 68.8091C67.44 69.0144 67.2996 69.1907 67.1175 69.3151C66.9354 69.4395 66.7201 69.5062 66.4996 69.5066H63.3866L36.5428 44.5769C36.3402 44.3887 36.0739 44.2841 35.7974 44.2841C35.5209 44.2841 35.2546 44.3887 35.052 44.5769L8.21029 69.5066H5.09586C4.87533 69.5062 4.66002 69.4395 4.47793 69.3151C4.29585 69.1907 4.15541 69.0144 4.07488 68.8091C3.99436 68.6038 3.97748 68.379 4.02644 68.1639C4.0754 67.9489 4.18794 67.7536 4.3494 67.6034L34.7018 39.4174V32.6586L5.08118 32.2253C4.7933 32.2204 4.51883 32.1028 4.31668 31.8977C4.11453 31.6927 4.00081 31.4166 3.99994 31.1287V27.8388C4.00086 27.5482 4.11681 27.2697 4.32244 27.0644C4.52807 26.859 4.80664 26.7434 5.09726 26.7428H74.1724C74.1721 26.9603 74.1941 27.1771 74.2381 27.3901L75.4102 33.2611L36.8908 32.6971V39.4188L36.895 39.4174ZM82.9468 69.3403V40.9914C82.9477 40.701 83.0635 40.4228 83.2688 40.2174C83.4741 40.0121 83.7523 39.8964 84.0427 39.8954H97.2008C97.4911 39.8965 97.7692 40.0124 97.9745 40.2177C98.1798 40.4229 98.2956 40.7011 98.2967 40.9914V66.2265C97.9346 66.2153 97.5684 66.2097 97.2008 66.2097C96.8331 66.2097 96.4655 66.2153 96.1048 66.2265V65.262L94.8712 66.2866C93.5108 66.3794 92.1571 66.5533 90.8174 66.8073L95.4828 62.9212L90.6154 58.8604L85.7481 62.9142L90.4889 66.8667C89.5906 67.048 88.7053 67.2619 87.833 67.5083L85.1296 65.2557V68.4079C84.384 68.6926 83.6532 68.9994 82.937 69.3284L82.9468 69.3403ZM85.1393 54.2956V60.5791L88.9136 57.4381L85.1393 54.2956ZM94.1751 42.0859H87.0747L90.6266 45.0459L94.1786 42.0859H94.1751ZM96.1048 49.6128V43.3321L92.3306 46.4731L96.1048 49.6128ZM95.4898 51.9535L90.621 47.8997L85.7523 51.9535L90.621 56.0108L95.4898 51.9535ZM96.1048 60.5784V54.2963L92.3306 57.4416L96.1048 60.5784ZM85.1393 43.3321V49.6142L88.9136 46.4731L85.1393 43.3321ZM87.3333 23.4474V8.0952C87.334 7.80453 87.4499 7.52599 87.6556 7.32058C87.8612 7.11518 88.1399 6.99964 88.4306 6.99927H92.8164C93.1067 7.00019 93.385 7.11595 93.5903 7.32128C93.7956 7.5266 93.9114 7.80482 93.9123 8.0952V23.4474H87.3333ZM102.5 25.6399H112.555C112.845 25.6412 113.124 25.7573 113.329 25.9628C113.534 26.1684 113.65 26.4467 113.651 26.7372V30.0223C113.652 30.8867 113.483 31.7429 113.153 32.5418C112.822 33.3406 112.338 34.0665 111.726 34.6777C111.115 35.289 110.389 35.7736 109.591 36.1038C108.792 36.434 107.935 36.6033 107.071 36.602H102.689V26.7372C102.689 26.3633 102.625 25.992 102.501 25.6392L102.5 25.6399ZM112.555 35.7745V38.7946C112.554 39.6669 112.207 40.5033 111.59 41.1201C110.974 41.7369 110.137 42.0838 109.265 42.0845H107.071C106.199 42.0828 105.364 41.7355 104.748 41.1188C104.132 40.502 103.786 39.6662 103.786 38.7946V37.7015H107.071C109.063 37.7009 110.996 37.0223 112.552 35.7773L112.555 35.7745ZM10.5797 80.4652V77.1725C10.5806 76.8822 10.6963 76.6039 10.9017 76.3986C11.107 76.1933 11.3852 76.0775 11.6756 76.0766H59.9213C60.2116 76.0775 60.4899 76.1933 60.6952 76.3986C60.9005 76.6039 61.0163 76.8822 61.0172 77.1725V80.4624L10.5797 80.4652ZM61.0186 82.6592V112.263C61.0177 112.554 60.9018 112.833 60.6962 113.038C60.4906 113.244 60.212 113.36 59.9213 113.361H45.6673V90.3342C45.6666 90.0438 45.5509 89.7655 45.3455 89.5601C45.1401 89.3547 44.8618 89.239 44.5714 89.2383H27.0283C26.7378 89.239 26.4595 89.3547 26.2541 89.5601C26.0488 89.7655 25.9331 90.0438 25.9323 90.3342V113.36H11.6742C11.3836 113.359 11.1051 113.243 10.8998 113.038C10.6944 112.832 10.5788 112.553 10.5783 112.263V82.6585L61.0186 82.6592ZM43.4755 113.361H28.1235V95.8181H43.4748L43.4755 113.361ZM43.4755 93.6248H28.1235V91.4309H43.4748L43.4755 93.6248ZM60.1694 69.501H11.4359L35.8012 46.8743L60.1736 69.501H60.1694ZM35.8012 53.0529C34.7169 53.0529 33.6569 53.3745 32.7554 53.9769C31.8538 54.5793 31.1511 55.4356 30.7361 56.4373C30.3212 57.4391 30.2126 58.5415 30.4242 59.605C30.6357 60.6685 31.1578 61.6453 31.9246 62.4121C32.6913 63.1788 33.6682 63.701 34.7317 63.9125C35.7951 64.124 36.8975 64.0155 37.8992 63.6005C38.901 63.1856 39.7573 62.4829 40.3597 61.5813C40.9621 60.6797 41.2836 59.6197 41.2836 58.5354C41.2836 57.0814 40.706 55.6869 39.6779 54.6587C38.6497 53.6305 37.2552 53.0529 35.8012 53.0529ZM35.8012 55.2455C36.4519 55.2455 37.088 55.4384 37.629 55.7999C38.17 56.1614 38.5917 56.6753 38.8407 57.2764C39.0897 57.8776 39.1548 58.539 39.0279 59.1772C38.9009 59.8154 38.5876 60.4016 38.1275 60.8617C37.6674 61.3218 37.0812 61.6351 36.443 61.7621C35.8049 61.889 35.1434 61.8239 34.5422 61.5749C33.9411 61.3259 33.4273 60.9042 33.0658 60.3632C32.7043 59.8221 32.5114 59.1861 32.5114 58.5354C32.5114 57.6629 32.858 56.8261 33.4749 56.2091C34.0919 55.5921 34.9287 55.2455 35.8012 55.2455ZM99.3968 38.7974H83.2585C81.9906 38.7978 80.7618 38.3587 79.7812 37.555C78.8006 36.7513 78.1288 35.6325 77.8803 34.3892L76.3936 26.9504C76.3622 26.7914 76.3665 26.6274 76.4063 26.4702C76.4461 26.3131 76.5203 26.1667 76.6236 26.0418C76.7272 25.9167 76.8572 25.816 77.0042 25.7469C77.1513 25.6778 77.3117 25.642 77.4742 25.642H99.4038C99.6941 25.6431 99.9722 25.7589 100.177 25.9642C100.383 26.1695 100.499 26.4476 100.5 26.7379V37.7015C100.499 37.9918 100.383 38.2699 100.177 38.4752C99.9722 38.6805 99.6941 38.7963 99.4038 38.7974H99.3968ZM97.2022 68.403C103.492 68.4023 109.641 70.2668 114.871 73.7608C120.101 77.2548 124.178 82.2213 126.585 88.0322C128.993 93.8432 129.623 100.238 128.396 106.407C127.17 112.576 124.141 118.243 119.694 122.691C115.246 127.138 109.58 130.168 103.411 131.395C97.2421 132.622 90.8478 131.993 85.0366 129.586C79.2255 127.179 74.2586 123.103 70.7641 117.873C67.2696 112.643 65.4044 106.494 65.4044 100.205C65.4044 91.7709 68.7544 83.6826 74.7175 77.7187C80.6807 71.7548 88.7685 68.4039 97.2022 68.403ZM83.0691 104.587L79.6094 105.919C79.3682 106.012 79.1676 106.188 79.0433 106.415C78.919 106.641 78.8789 106.905 78.93 107.158C79.2151 108.576 79.664 109.957 80.2678 111.271C80.3753 111.506 80.5625 111.695 80.7962 111.805C81.0299 111.915 81.2951 111.939 81.5447 111.873L85.5286 110.805C85.8626 111.341 86.2345 111.852 86.6413 112.335L84.3929 115.799C84.2529 116.016 84.1937 116.276 84.2258 116.532C84.2579 116.789 84.3791 117.026 84.5683 117.202C85.631 118.183 86.8054 119.035 88.0671 119.741C88.2924 119.868 88.555 119.911 88.8087 119.862C89.0624 119.814 89.2909 119.677 89.4538 119.477L92.0531 116.27C92.638 116.507 93.2387 116.703 93.8508 116.857L94.0696 120.981C94.0829 121.238 94.1871 121.483 94.3636 121.672C94.5401 121.86 94.7776 121.98 95.0341 122.011C96.471 122.181 97.9229 122.181 99.3597 122.011C99.6166 121.981 99.8547 121.861 100.032 121.673C100.208 121.484 100.313 121.239 100.326 120.981L100.544 116.857C101.156 116.705 101.757 116.511 102.342 116.276L104.941 119.483C105.104 119.684 105.332 119.821 105.586 119.87C105.84 119.918 106.103 119.875 106.328 119.747C107.587 119.039 108.76 118.187 109.823 117.208C110.014 117.033 110.136 116.795 110.168 116.538C110.201 116.281 110.14 116.021 109.998 115.804L107.751 112.339C108.156 111.855 108.528 111.344 108.864 110.81L112.848 111.878C113.097 111.946 113.363 111.922 113.597 111.812C113.83 111.702 114.018 111.512 114.125 111.276C114.728 109.962 115.177 108.582 115.462 107.164C115.514 106.91 115.473 106.647 115.349 106.42C115.225 106.193 115.024 106.018 114.783 105.925L111.323 104.592H116.92C117.083 104.592 117.244 104.555 117.391 104.485C117.538 104.415 117.668 104.313 117.771 104.187C117.874 104.06 117.947 103.913 117.986 103.754C118.025 103.596 118.028 103.431 117.995 103.272L117.447 100.629C117.293 99.8895 116.889 99.2255 116.304 98.7484C115.718 98.2713 114.987 98.0101 114.232 98.0086H114.205L112.963 90.5411C112.595 88.3362 111.623 86.2766 110.153 84.5922C108.683 82.9077 106.775 81.6646 104.64 81.0013C104.508 80.2361 104.11 79.5422 103.517 79.0417C102.923 78.5412 102.171 78.2664 101.395 78.2657H92.9862C92.2097 78.2664 91.4584 78.5412 90.8648 79.0417C90.2711 79.5422 89.8731 80.2361 89.7411 81.0013C87.6069 81.6655 85.6989 82.9089 84.2294 84.5932C82.76 86.2775 81.7868 88.3365 81.4182 90.5411L80.1734 98.0093H80.1469C79.3914 98.0097 78.6591 98.2705 78.0735 98.7478C77.4879 99.2251 77.0847 99.8897 76.9318 100.63L76.3832 103.272C76.3504 103.432 76.3536 103.597 76.3924 103.755C76.4312 103.913 76.5047 104.061 76.6076 104.188C76.7104 104.314 76.8401 104.416 76.9872 104.486C77.1343 104.556 77.2951 104.593 77.4581 104.593H83.0607L83.0691 104.587ZM108.732 104.587C108.716 104.727 108.706 104.872 108.683 105.015C108.651 105.26 108.702 105.508 108.829 105.721C108.956 105.933 109.151 106.096 109.382 106.183L113.127 107.624C112.96 108.264 112.755 108.895 112.514 109.511L108.637 108.475C108.4 108.412 108.148 108.43 107.922 108.528C107.696 108.625 107.51 108.795 107.393 109.011C106.906 109.909 106.304 110.738 105.6 111.478C105.431 111.657 105.326 111.888 105.303 112.134C105.28 112.38 105.34 112.626 105.474 112.833L107.657 116.198C107.148 116.62 106.613 117.008 106.055 117.362L103.527 114.242C103.372 114.05 103.156 113.916 102.915 113.863C102.674 113.809 102.422 113.838 102.2 113.946C101.278 114.384 100.303 114.701 99.2996 114.889C99.0575 114.933 98.8374 115.057 98.6751 115.242C98.5128 115.427 98.4178 115.662 98.4057 115.908L98.196 119.916C97.5366 119.954 96.8754 119.954 96.216 119.916L96.0063 115.908C95.9932 115.662 95.8979 115.428 95.7358 115.243C95.5736 115.058 95.3541 114.934 95.1124 114.889C94.1083 114.704 93.1331 114.387 92.2125 113.946C91.9898 113.84 91.7381 113.811 91.4975 113.865C91.2568 113.919 91.041 114.051 90.8845 114.242L88.3565 117.362C87.8002 117.006 87.2655 116.618 86.7553 116.198L88.938 112.833C89.0718 112.626 89.132 112.38 89.109 112.134C89.0861 111.888 88.9813 111.657 88.8115 111.478C88.1084 110.738 87.5059 109.909 87.0195 109.011C86.9022 108.795 86.7157 108.625 86.4899 108.528C86.2642 108.43 86.0122 108.412 85.7747 108.475L81.8984 109.511C81.6577 108.894 81.4528 108.264 81.2847 107.624L85.0296 106.183C85.2603 106.095 85.4546 105.932 85.5814 105.72C85.7081 105.508 85.76 105.26 85.7285 105.015C85.7062 104.875 85.695 104.729 85.6796 104.587H88.5019C88.7697 106.707 89.8019 108.657 91.4049 110.07C93.0079 111.483 95.0715 112.263 97.2084 112.263C99.3454 112.263 101.409 111.483 103.012 110.07C104.615 108.657 105.647 106.707 105.915 104.587H108.732ZM93.2162 98.0086L91.9064 81.6492C91.8924 81.498 91.9106 81.3455 91.9598 81.2018C92.0089 81.0581 92.0879 80.9264 92.1915 80.8154C92.2944 80.7046 92.4191 80.6164 92.5578 80.5562C92.6966 80.4961 92.8462 80.4653 92.9974 80.4659H101.407C101.558 80.4653 101.708 80.4961 101.846 80.5562C101.985 80.6164 102.11 80.7046 102.213 80.8154C102.316 80.9264 102.395 81.0581 102.445 81.2018C102.494 81.3455 102.512 81.498 102.498 81.6492L101.188 98.0086H93.2162ZM103.392 98.0086L104.571 83.2938C106.186 83.9055 107.611 84.93 108.706 86.2652C109.801 87.6003 110.526 89.1993 110.81 90.9025L111.994 98.0086H103.392ZM103.694 104.587C103.435 106.12 102.641 107.511 101.454 108.515C100.267 109.518 98.7626 110.069 97.2081 110.069C95.6536 110.069 94.1493 109.518 92.9621 108.515C91.7748 107.511 90.9813 106.12 90.7224 104.587H103.694ZM82.4198 98.0093L83.6045 90.9032C83.8887 89.2002 84.6143 87.6014 85.7089 86.2661C86.8035 84.9309 88.229 83.9059 89.8431 83.2931L91.0166 98.0079L82.4198 98.0093ZM114.246 100.202C114.498 100.201 114.742 100.287 114.938 100.446C115.134 100.605 115.269 100.827 115.32 101.073L115.594 102.394H78.8147L79.0887 101.073C79.1398 100.826 79.2748 100.605 79.4707 100.446C79.6666 100.287 79.9114 100.201 80.1637 100.202H114.246Z" fill="#A5170E"/>
</g>
</g>
</g>
<defs>
<clipPath id="clip0_1_460">
<rect width="125" height="125" fill="white" transform="translate(4 7)"/>
</clipPath>
</defs>
</svg>
