<svg width="132" height="132" viewBox="0 0 132 132" fill="none" xmlns="http://www.w3.org/2000/svg">
<g clip-path="url(#clip0_1_462)">
<mask id="mask0_1_462" style="mask-type:luminance" maskUnits="userSpaceOnUse" x="4" y="7" width="125" height="125">
<path d="M129 7H4V132H129V7Z" fill="white"/>
</mask>
<g mask="url(#mask0_1_462)">
<path d="M54 61.1665H41.5V69.4998H54V61.1665Z" fill="#A5170E"/>
<path d="M91.5 61.1665H79V69.4998H91.5V61.1665Z" fill="#A5170E"/>
<mask id="mask1_1_462" style="mask-type:luminance" maskUnits="userSpaceOnUse" x="4" y="7" width="125" height="125">
<path d="M129 7H4V132H129V7Z" fill="white"/>
</mask>
<g mask="url(#mask1_1_462)">
<path fill-rule="evenodd" clip-rule="evenodd" d="M124.903 127.831H8.16668V123.664H124.9L124.903 127.831ZM76.9583 73.6332C76.6848 73.6332 76.4139 73.5793 76.1611 73.4746C75.9083 73.3699 75.6787 73.2165 75.4852 73.023C75.2918 72.8296 75.1383 72.5999 75.0336 72.3472C74.9289 72.0944 74.875 71.8235 74.875 71.5499V59.0416C74.875 58.489 75.0945 57.9591 75.4852 57.5684C75.8759 57.1777 76.4058 56.9582 76.9583 56.9582H93.6342C94.1867 56.9582 94.7166 57.1777 95.1073 57.5684C95.498 57.9591 95.7175 58.489 95.7175 59.0416V71.5491C95.7175 72.1016 95.498 72.6315 95.1073 73.0222C94.7166 73.4129 94.1867 73.6324 93.6342 73.6324L76.9583 73.6332ZM37.3525 71.5499V59.0416C37.3525 58.489 37.572 57.9591 37.9627 57.5684C38.3534 57.1777 38.8833 56.9582 39.4358 56.9582H56.1133C56.6659 56.9582 57.1958 57.1777 57.5865 57.5684C57.9772 57.9591 58.1967 58.489 58.1967 59.0416V71.5491C58.1967 72.1016 57.9772 72.6315 57.5865 73.0222C57.1958 73.4129 56.6659 73.6324 56.1133 73.6324H39.4375C38.885 73.6324 38.3551 73.4129 37.9644 73.0222C37.5737 72.6315 37.3542 72.1016 37.3542 71.5491M87.3825 119.493V81.9716H68.6208V100.732H72.7875C73.34 100.732 73.87 100.952 74.2607 101.343C74.6514 101.733 74.8708 102.263 74.8708 102.816C74.8708 103.368 74.6514 103.898 74.2607 104.289C73.87 104.68 73.34 104.899 72.7875 104.899H68.6208V119.491H64.4542V104.899H60.2875C59.735 104.899 59.2051 104.68 58.8144 104.289C58.4237 103.898 58.2042 103.368 58.2042 102.816C58.2042 102.263 58.4237 101.733 58.8144 101.343C59.2051 100.952 59.735 100.732 60.2875 100.732H64.4542V81.9716H45.6908V119.493H41.5242V79.8866C41.5242 79.334 41.7437 78.8041 42.1344 78.4134C42.5251 78.0227 43.055 77.8032 43.6075 77.8032H89.4675C90.02 77.8032 90.5499 78.0227 90.9407 78.4134C91.3314 78.8041 91.5508 79.334 91.5508 79.8866V119.492L87.3825 119.493ZM11.25 65.2949L30.8217 46.3924L36.7167 40.7016L66.5358 11.9099L121.826 65.2949H113.232L67.9742 22.0949C67.5866 21.7251 67.0715 21.5187 66.5358 21.5187C66.0002 21.5187 65.485 21.7251 65.0975 22.0949L19.8408 65.2949H11.25ZM20.6767 11.0949H37.3525V15.2616H20.6767V11.0949ZM126.988 119.493H116.565V69.4641H126.988C127.403 69.4646 127.809 69.3408 128.154 69.1087C128.499 68.8766 128.766 68.5467 128.922 68.1614C129.077 67.7762 129.114 67.3532 129.028 66.9467C128.941 66.5403 128.735 66.1691 128.436 65.8807L67.985 7.51156C67.5963 7.13433 67.0759 6.92334 66.5342 6.92334C65.9925 6.92334 65.4721 7.13433 65.0833 7.51156L37.3525 34.2916V19.4357H39.4358C39.9884 19.4357 40.5183 19.2162 40.909 18.8255C41.2997 18.4348 41.5192 17.9049 41.5192 17.3524V9.01156C41.5192 8.45903 41.2997 7.92912 40.909 7.53842C40.5183 7.14772 39.9884 6.92823 39.4358 6.92823H18.5917C18.0391 6.92823 17.5092 7.14772 17.1185 7.53842C16.7278 7.92912 16.5083 8.45903 16.5083 9.01156V17.3507C16.5083 17.9033 16.7278 18.4332 17.1185 18.8239C17.5092 19.2146 18.0391 19.4341 18.5917 19.4341H20.675V50.3924L4.63585 65.8807C4.33667 66.1691 4.13055 66.5403 4.04399 66.9467C3.95744 67.3532 3.99439 67.7762 4.1501 68.1614C4.30581 68.5467 4.57317 68.8766 4.91782 69.1087C5.26247 69.3408 5.66865 69.4646 6.08418 69.4641H16.5075V119.492H6.08335C5.53081 119.492 5.00091 119.712 4.61021 120.103C4.21951 120.493 4.00001 121.023 4.00001 121.576V129.914C4.00001 130.467 4.21951 130.996 4.61021 131.387C5.00091 131.778 5.53081 131.997 6.08335 131.997H126.988C127.54 131.997 128.07 131.778 128.461 131.387C128.851 130.996 129.071 130.467 129.071 129.914V121.581C129.071 121.028 128.851 120.498 128.461 120.108C128.07 119.717 127.54 119.497 126.988 119.497" fill="#A5170E"/>
</g>
</g>
</g>
<defs>
<clipPath id="clip0_1_462">
<rect width="125" height="125" fill="white" transform="translate(4 7)"/>
</clipPath>
</defs>
</svg>
