<svg width="132" height="132" viewBox="0 0 132 132" fill="none" xmlns="http://www.w3.org/2000/svg">
<g clip-path="url(#clip0_1_461)">
<mask id="mask0_1_461" style="mask-type:luminance" maskUnits="userSpaceOnUse" x="4" y="6" width="125" height="126">
<path d="M129 6H4V132H129V6Z" fill="white"/>
</mask>
<g mask="url(#mask0_1_461)">
<mask id="mask1_1_461" style="mask-type:luminance" maskUnits="userSpaceOnUse" x="4" y="6" width="125" height="126">
<path d="M129 6H4V132H129V6Z" fill="white"/>
</mask>
<g mask="url(#mask1_1_461)">
<path d="M7.82426 121.37H125.176C125.706 121.37 126.214 121.579 126.588 121.953C126.963 122.326 127.173 122.832 127.173 123.36V130.01C127.173 130.538 126.963 131.044 126.588 131.417C126.214 131.79 125.706 132 125.176 132H7.82426C7.29447 132 6.78637 131.79 6.41175 131.417C6.03712 131.044 5.82666 130.538 5.82666 130.01V123.36C5.82666 122.832 6.03712 122.326 6.41175 121.953C6.78637 121.579 7.29447 121.37 7.82426 121.37Z" fill="#A5170E"/>
<path d="M128.879 61.0895L123.891 70.3422C123.823 70.4726 123.726 70.586 123.608 70.6743C123.49 70.7625 123.353 70.8232 123.209 70.852C123.142 70.8638 123.075 70.8706 123.008 70.8724C122.779 70.871 122.556 70.7935 122.376 70.6522L66.5014 25.8693L44.0077 43.9203C43.8704 44.0282 43.7083 44.1004 43.5359 44.1303L40.3041 44.8604C40.1748 44.8914 40.0405 44.8958 39.9094 44.8734C39.7783 44.8509 39.6532 44.8021 39.5417 44.7299C39.3177 44.5851 39.1592 44.3591 39.0996 44.0998L36.9516 34.0597C36.9128 33.88 36.9252 33.6931 36.9872 33.52C37.0492 33.3469 37.1584 33.1945 37.3026 33.0799L65.868 9.85568C66.0443 9.70554 66.2685 9.62305 66.5004 9.62305C66.7323 9.62305 66.9566 9.70554 67.1329 9.85568L128.63 59.8441C128.811 59.9889 128.935 60.1923 128.981 60.4189C129.027 60.6455 128.991 60.8809 128.88 61.084" fill="#A5170E"/>
<path d="M110.463 7.01039L110.414 42.4703L87.0857 23.5023L87.1043 7.00021C87.1043 6.86879 87.1303 6.73865 87.1808 6.61724C87.2313 6.49582 87.3053 6.38552 87.3986 6.29263C87.492 6.19974 87.6027 6.12608 87.7246 6.07587C87.8465 6.02566 87.9772 5.99988 88.1091 6L109.458 6.01018C109.724 6.01228 109.979 6.11594 110.17 6.29979C110.353 6.49132 110.458 6.74476 110.462 7.00947" fill="#A5170E"/>
<path d="M66.5003 46.5073C64.6939 46.5073 62.928 47.041 61.426 48.041C59.924 49.0409 58.7533 50.4621 58.062 52.1249C57.3707 53.7877 57.1898 55.6174 57.5422 57.3826C57.8946 59.1479 58.7645 60.7693 60.0419 62.042C61.3193 63.3146 62.9467 64.1813 64.7185 64.5325C66.4902 64.8836 68.3267 64.7034 69.9956 64.0146C71.6646 63.3259 73.091 62.1595 74.0947 60.663C75.0983 59.1665 75.634 57.4071 75.634 55.6073C75.634 53.1938 74.6717 50.8792 72.9588 49.1727C71.2459 47.4661 68.9227 46.5073 66.5003 46.5073Z" fill="#A5170E"/>
<path d="M86.8999 83.6074H72.3474V92.3826H86.8999V83.6074Z" fill="#A5170E"/>
<path d="M53.1609 86.4798H28.7708C28.76 86.4801 28.7494 86.4824 28.7395 86.4868C28.7296 86.4912 28.7207 86.4975 28.7132 86.5053C28.7058 86.5131 28.7 86.5224 28.6962 86.5324C28.6924 86.5425 28.6906 86.5533 28.691 86.564V119.37H53.2519V86.5696C53.2519 86.545 53.2421 86.5215 53.2247 86.5042C53.2073 86.4868 53.1836 86.4771 53.159 86.4771M49.8668 106.093C49.8668 106.358 49.7611 106.612 49.5728 106.8C49.3845 106.988 49.1292 107.093 48.8629 107.093C48.5967 107.093 48.3413 106.988 48.1531 106.8C47.9648 106.612 47.859 106.358 47.859 106.093V101.651C47.859 101.386 47.9648 101.132 48.1531 100.944C48.3413 100.757 48.5967 100.651 48.8629 100.651C49.1292 100.651 49.3845 100.757 49.5728 100.944C49.7611 101.132 49.8668 101.386 49.8668 101.651V106.093Z" fill="#A5170E"/>
<path d="M103.458 83.6074H88.907V92.3826H103.458V83.6074Z" fill="#A5170E"/>
<path d="M86.8999 94.3833H72.3474V103.159H86.8999V94.3833Z" fill="#A5170E"/>
<path d="M103.458 94.3833H88.907V103.159H103.458V94.3833Z" fill="#A5170E"/>
<path d="M66.5013 28.4395L47.5905 43.6138L43.5359 68.6238L43.3455 53.0238C43.3296 52.8584 43.2713 52.6999 43.1764 52.5633C43.0814 52.4268 42.9529 52.3167 42.8031 52.2438C42.6542 52.1705 42.4898 52.1341 42.3237 52.1377C42.1577 52.1412 41.995 52.1846 41.8494 52.2641L34.5722 56.4537L34.0401 54.4839L14.6194 70.0496V119.366H26.6839V86.5693C26.6817 86.0175 26.8995 85.4874 27.2894 85.0954C27.6793 84.7035 28.2094 84.4818 28.7633 84.4791H53.1607C53.4362 84.4789 53.7089 84.5327 53.9634 84.6376C54.218 84.7424 54.4492 84.8962 54.6441 85.0901C54.8389 85.2841 54.9935 85.5144 55.0989 85.7679C55.2044 86.0213 55.2586 86.2931 55.2586 86.5675V119.369H118.381V70.0191L66.5013 28.4395ZM55.3571 55.609C55.3545 53.4129 56.0057 51.2653 57.2282 49.4379C58.4507 47.6105 60.1897 46.1854 62.2252 45.3427C64.2607 44.5 66.5013 44.2777 68.6637 44.7039C70.826 45.13 72.813 46.1854 74.3732 47.7367C75.9335 49.288 76.997 51.2654 77.4292 53.4189C77.8614 55.5724 77.6429 57.8052 76.8014 59.835C75.9598 61.8648 74.5331 63.6003 72.7015 64.8221C70.8699 66.044 68.7157 66.6972 66.5115 66.6992H66.5013C63.5487 66.6965 60.7177 65.5276 58.6287 63.4488C56.5397 61.3699 55.3632 58.5507 55.3571 55.609ZM105.463 104.16C105.463 104.291 105.437 104.421 105.387 104.542C105.337 104.664 105.263 104.774 105.169 104.867C105.076 104.96 104.965 105.033 104.844 105.084C104.722 105.134 104.591 105.16 104.46 105.16H71.3481C71.2163 105.16 71.0857 105.134 70.9639 105.084C70.8421 105.033 70.7314 104.96 70.6382 104.867C70.545 104.774 70.4711 104.664 70.4206 104.542C70.3702 104.421 70.3442 104.291 70.3442 104.16V82.6092C70.3437 82.4775 70.3693 82.347 70.4195 82.2253C70.4698 82.1035 70.5436 81.9928 70.6369 81.8995C70.7302 81.8062 70.841 81.7322 70.9631 81.6817C71.0851 81.6312 71.2159 81.6053 71.3481 81.6053H104.46C104.726 81.6053 104.981 81.7106 105.169 81.8982C105.358 82.0858 105.463 82.3402 105.463 82.6055V104.16Z" fill="#A5170E"/>
<path d="M32.9564 52.7798L10.4135 70.8595C10.2331 71.0009 10.0106 71.0783 9.7811 71.0797C9.71105 71.0778 9.64123 71.071 9.57214 71.0593C9.4257 71.0277 9.2883 70.9636 9.17013 70.8718C9.05195 70.7801 8.95606 70.6629 8.88956 70.5291L4.11055 61.0702C4.00583 60.868 3.9746 60.636 4.02218 60.4135C4.06975 60.191 4.19319 59.9918 4.37151 59.8497L28.6613 40.1101C28.7894 40.0013 28.9437 39.9274 29.1091 39.8958C29.2745 39.8642 29.4453 39.8758 29.6048 39.9297C29.7642 39.9805 29.9083 40.0703 30.024 40.1909C30.1396 40.3115 30.2232 40.459 30.2669 40.6199L33.2991 51.7416C33.3486 51.9294 33.3427 52.1275 33.2819 52.312C33.2211 52.4965 33.1081 52.6596 32.9564 52.7816" fill="#A5170E"/>
</g>
</g>
</g>
<defs>
<clipPath id="clip0_1_461">
<rect width="125" height="126" fill="white" transform="translate(4 6)"/>
</clipPath>
</defs>
</svg>
