<svg width="132" height="132" viewBox="0 0 132 132" fill="none" xmlns="http://www.w3.org/2000/svg">
<g clip-path="url(#clip0_1_452)">
<mask id="mask0_1_452" style="mask-type:luminance" maskUnits="userSpaceOnUse" x="3" y="38" width="125" height="94">
<path d="M128 38H3V132H128V38Z" fill="white"/>
</mask>
<g mask="url(#mask0_1_452)">
<mask id="mask1_1_452" style="mask-type:luminance" maskUnits="userSpaceOnUse" x="3" y="38" width="125" height="94">
<path d="M128 38H3V132H128V38Z" fill="white"/>
</mask>
<g mask="url(#mask1_1_452)">
<path fill-rule="evenodd" clip-rule="evenodd" d="M13.7273 69.6781C13.7657 69.6519 13.8056 69.6279 13.8468 69.6064L52.8056 46.0362C53.2024 45.7894 53.6604 45.6586 54.1276 45.6586C54.5949 45.6586 55.0528 45.7894 55.4497 46.0362L89.3314 66.5342H101.284L54.1296 38.0012L3.51794 68.6215L6.50603 74.0415L13.7273 69.6781ZM14.5998 125.801H3V131.993H67.6418V125.801H14.5998ZM48.5519 90.5668H26.7348V122.398H48.5439L48.5519 90.5668ZM56.0699 62.4818C62.076 62.4818 61.0786 61.4557 61.0786 67.7317C61.0824 67.9573 60.9973 68.1754 60.8418 68.3388C60.6862 68.5022 60.4727 68.5978 60.2473 68.6049C54.2412 68.6049 55.2386 69.6296 55.2386 63.355C55.2344 63.1292 55.3194 62.9109 55.475 62.7475C55.6307 62.584 55.8444 62.4885 56.0699 62.4818ZM48.0087 70.9335C54.0134 70.9335 53.0174 69.9061 53.0174 76.178C53.0215 76.404 52.9364 76.6225 52.7805 76.786C52.6245 76.9495 52.4105 77.0448 52.1847 77.0513C46.18 77.0513 47.1773 78.0773 47.1773 71.8067C47.1722 71.5806 47.2568 71.3617 47.4126 71.1981C47.5685 71.0344 47.7828 70.9392 48.0087 70.9335ZM56.0699 70.9335C62.0746 70.9335 61.0786 69.9061 61.0786 76.178C61.0827 76.4038 60.9978 76.6221 60.8421 76.7855C60.6865 76.949 60.4728 77.0445 60.2473 77.0513C54.2412 77.0513 55.2386 78.0773 55.2386 71.8067C55.2344 71.5809 55.3194 71.3626 55.475 71.1992C55.6307 71.0357 55.8444 70.9402 56.0699 70.9335ZM48.0087 62.4818C54.0134 62.4818 53.0174 61.4557 53.0174 67.7317C53.0212 67.9575 52.9359 68.1758 52.7801 68.3392C52.6242 68.5027 52.4103 68.5981 52.1847 68.6049C46.18 68.6049 47.1773 69.6296 47.1773 63.355C47.1722 63.1289 47.2568 62.9101 47.4126 62.7464C47.5685 62.5827 47.7828 62.4875 48.0087 62.4818ZM73.187 131.999H70.7209L70.7149 69.6057H128.001V131.994L125.534 132V89.029C125.534 88.621 125.372 88.2297 125.084 87.9412C124.795 87.6527 124.404 87.4906 123.997 87.4906H74.7183C74.3105 87.4906 73.9193 87.6526 73.6308 87.9411C73.3423 88.2296 73.1801 88.6209 73.1797 89.029L73.187 131.999ZM122.457 90.5668H76.2555V131.997H122.457V90.5668ZM84.4555 112.816H114.263V109.746H84.4542L84.4555 112.816ZM84.4555 122.748H114.263V119.674H84.4542L84.4555 122.748ZM84.4555 102.883H114.263V99.8133H84.4542L84.4555 102.883ZM54.1296 48.8207L83.3997 66.5328H69.179C68.7713 66.5332 68.3804 66.6953 68.092 66.9837C67.8035 67.2721 67.6412 67.6632 67.6405 68.0713V122.731H51.6196V89.0304C51.6196 88.828 51.5798 88.6276 51.5023 88.4407C51.4249 88.2537 51.3114 88.0839 51.1683 87.9409C51.0252 87.7979 50.8554 87.6845 50.6685 87.6072C50.4816 87.53 50.2813 87.4903 50.0791 87.4906H25.2016C24.7936 87.491 24.4025 87.6533 24.114 87.942C23.8256 88.2307 23.6634 88.6221 23.663 89.0304V122.731H16.1138V71.8266L54.1296 48.8207Z" fill="#A5170E"/>
</g>
</g>
</g>
<defs>
<clipPath id="clip0_1_452">
<rect width="125" height="94" fill="white" transform="translate(3 38)"/>
</clipPath>
</defs>
</svg>
